{"glyphs":{"0":{"ha":807,"x_min":47,"x_max":760,"o":"m 140 831 q 186 894 140 831 q 404 957 232 957 q 668 831 576 957 q 760 468 760 704 q 668 106 760 232 q 404 -21 576 -21 q 140 106 232 -21 q 47 468 47 232 q 140 831 47 704 m 404 817 q 266 727 314 817 q 218 468 218 638 q 266 208 218 299 q 404 117 314 117 q 541 208 493 117 q 589 468 589 299 q 541 727 589 638 q 404 817 493 817 z "},"1":{"ha":807,"x_min":139,"x_max":521,"o":"m 521 0 l 357 0 l 357 658 l 139 658 l 139 778 q 308 815 253 778 q 375 936 363 851 l 521 936 l 521 0 z "},"2":{"ha":807,"x_min":63,"x_max":739,"o":"m 403 957 q 631 885 546 957 q 717 693 717 813 q 700 584 717 632 q 647 497 683 536 q 571 431 610 458 q 469 367 532 403 q 298 243 340 290 q 253 136 256 196 l 739 136 l 739 0 l 64 0 q 63 29 63 11 q 117 263 63 172 q 335 447 172 353 q 499 563 451 515 q 546 686 546 611 q 508 782 546 746 q 403 818 469 818 q 240 653 247 818 l 75 653 q 166 878 79 799 q 403 957 253 957 z "},"3":{"ha":807,"x_min":60,"x_max":736,"o":"m 401 957 q 635 886 549 957 q 721 697 721 815 q 558 483 721 542 l 558 481 q 693 394 650 450 q 736 249 736 339 q 644 53 736 126 q 403 -21 553 -21 q 149 61 239 -21 q 60 294 60 143 l 226 294 q 403 117 226 117 q 524 155 478 117 q 569 256 569 193 q 364 403 569 403 l 331 403 l 331 538 l 364 538 q 505 577 453 538 q 557 682 557 617 q 513 781 557 743 q 396 819 468 819 q 276 777 318 819 q 235 650 235 735 l 69 650 q 158 876 69 794 q 401 957 246 957 z "},"4":{"ha":807,"x_min":24,"x_max":776,"o":"m 776 225 l 633 225 l 633 0 l 469 0 l 469 225 l 24 225 l 24 367 l 414 936 l 633 936 l 633 357 l 776 357 l 776 225 m 178 357 l 474 357 l 474 478 q 481 807 474 624 l 478 807 q 276 499 410 696 l 178 357 z "},"5":{"ha":807,"x_min":72,"x_max":736,"o":"m 690 800 l 264 800 l 239 546 l 242 546 q 428 619 308 619 q 651 534 567 619 q 736 310 736 449 q 642 69 736 160 q 392 -21 547 -21 q 159 53 246 -21 q 72 253 72 126 l 238 253 q 283 153 239 189 q 392 117 326 117 q 519 165 474 117 q 565 303 565 214 q 520 438 565 390 q 397 486 475 486 q 242 371 271 486 l 79 382 l 132 936 l 690 936 l 690 800 z "},"6":{"ha":807,"x_min":65,"x_max":747,"o":"m 433 957 q 644 885 565 957 q 733 688 724 814 l 567 688 q 426 819 547 819 q 280 741 335 819 q 221 503 225 663 l 224 503 q 446 611 308 611 q 664 526 581 611 q 747 304 747 440 q 654 69 747 158 q 411 -21 561 -21 q 154 94 243 -21 q 65 436 65 210 q 162 822 65 688 q 433 957 258 957 m 414 482 q 294 431 339 482 q 249 297 249 381 q 292 165 249 214 q 411 117 336 117 q 531 166 486 117 q 576 300 576 215 q 532 432 576 382 q 414 482 488 482 z "},"7":{"ha":807,"x_min":60,"x_max":733,"o":"m 733 936 l 733 793 q 417 0 500 461 l 236 0 q 381 457 290 251 q 571 796 471 663 l 60 796 l 60 936 l 733 936 z "},"8":{"ha":807,"x_min":61,"x_max":746,"o":"m 404 957 q 636 886 546 957 q 726 700 726 815 q 682 568 726 624 q 560 488 638 513 l 560 485 q 697 399 647 460 q 746 253 746 339 q 652 53 746 128 q 404 -21 558 -21 q 155 53 249 -21 q 61 253 61 128 q 110 399 61 339 q 247 485 160 460 l 247 488 q 125 568 169 513 q 81 700 81 624 q 171 886 81 815 q 404 957 261 957 m 522 785 q 500 803 522 785 q 404 821 478 821 q 285 785 331 821 q 240 689 240 749 q 284 586 240 624 q 404 549 328 549 q 523 586 479 549 q 567 689 567 624 q 522 785 567 749 m 532 374 q 508 394 532 374 q 404 415 483 415 q 276 374 325 415 q 228 267 228 333 q 275 158 228 199 q 404 118 322 118 q 533 158 485 118 q 581 267 581 199 q 532 374 581 332 z "},"9":{"ha":807,"x_min":42,"x_max":722,"o":"m 354 -21 q 144 51 224 -21 q 54 249 64 122 l 221 249 q 363 117 240 117 q 509 195 454 117 q 568 433 564 274 l 565 433 q 343 325 481 325 q 125 410 208 325 q 42 632 42 496 q 135 867 42 778 q 378 957 228 957 q 633 842 544 957 q 722 500 722 726 q 626 114 722 249 q 354 -21 531 -21 m 375 454 q 494 506 449 454 q 540 639 540 557 q 497 770 540 721 q 378 819 453 819 q 257 770 301 819 q 213 636 213 721 q 256 503 213 553 q 375 454 300 454 z "}," ":{"ha":319,"x_min":0,"x_max":0,"o":""},"!":{"ha":417,"x_min":110,"x_max":306,"o":"m 269 260 l 146 260 l 110 989 l 306 989 l 269 260 m 297 0 l 118 0 l 118 165 l 297 165 l 297 0 z "},"\"":{"ha":561,"x_min":89,"x_max":472,"o":"m 222 617 l 107 617 l 89 989 l 240 989 l 222 617 m 454 617 l 339 617 l 321 989 l 472 989 l 454 617 z "},"#":{"ha":917,"x_min":49,"x_max":868,"o":"m 700 571 l 668 368 l 818 368 l 800 253 l 650 253 l 610 0 l 474 0 l 514 253 l 336 253 l 296 0 l 160 0 l 200 253 l 49 253 l 67 368 l 218 368 l 250 571 l 99 571 l 117 686 l 268 686 l 308 936 l 444 936 l 404 686 l 582 686 l 622 936 l 758 936 l 718 686 l 868 686 l 850 571 l 700 571 m 564 571 l 386 571 l 354 368 l 532 368 l 564 571 z "},"$":{"ha":807,"x_min":54,"x_max":753,"o":"m 753 256 q 672 67 753 140 q 453 -18 592 -7 l 453 -137 l 353 -137 l 353 -19 q 131 76 208 -7 q 54 306 54 158 l 208 306 q 353 107 208 133 l 353 418 q 269 444 303 432 q 194 478 236 456 q 128 528 153 501 q 85 596 103 554 q 68 690 68 638 q 144 874 68 803 q 353 956 221 944 l 353 1061 l 453 1061 l 453 954 q 728 647 728 929 l 575 647 q 453 829 575 803 l 453 544 q 542 518 508 529 q 622 483 576 507 q 692 432 667 460 q 735 359 717 404 q 753 256 753 314 m 226 703 q 256 620 226 649 q 353 571 286 592 l 353 832 q 226 703 226 814 m 453 389 l 453 106 q 596 249 596 125 q 562 335 596 306 q 453 389 528 365 z "},"%":{"ha":1231,"x_min":63,"x_max":1168,"o":"m 406 -42 l 301 -42 l 825 978 l 929 978 l 406 -42 m 120 887 q 149 922 120 887 q 283 957 178 957 q 447 887 389 957 q 504 688 504 817 q 447 488 504 558 q 283 418 389 418 q 120 488 178 418 q 63 688 63 558 q 120 887 63 817 m 375 688 q 375 773 375 688 q 283 858 375 858 q 192 688 192 858 q 283 517 192 517 q 375 688 375 517 m 784 448 q 813 483 784 448 q 947 518 842 518 q 1110 448 1053 518 q 1168 249 1168 378 q 1110 49 1168 119 q 947 -21 1053 -21 q 784 49 842 -21 q 726 249 726 119 q 784 448 726 378 m 947 419 q 856 249 856 419 q 947 78 856 78 q 1040 249 1040 78 q 947 419 1040 419 z "},"&":{"ha":1032,"x_min":68,"x_max":1032,"o":"m 815 0 l 722 94 q 419 -21 610 -21 q 161 57 254 -21 q 68 265 68 135 q 279 554 68 460 q 195 667 218 619 q 172 781 172 714 q 244 947 172 883 q 436 1010 317 1010 q 625 949 554 1010 q 696 788 696 889 q 654 643 696 706 q 515 525 613 581 l 724 313 q 776 556 776 410 l 935 556 q 832 204 932 346 l 1032 0 l 815 0 m 436 878 q 357 850 386 878 q 328 772 328 822 q 347 700 328 733 q 422 610 367 667 q 544 775 544 683 q 515 849 544 821 q 436 878 485 878 m 433 117 q 628 190 542 117 l 367 456 q 265 374 294 417 q 236 275 236 331 q 290 161 236 206 q 433 117 343 117 z "},"'":{"ha":329,"x_min":89,"x_max":240,"o":"m 222 617 l 107 617 l 89 989 l 240 989 l 222 617 z "},"(":{"ha":431,"x_min":64,"x_max":389,"o":"m 256 1029 l 389 1029 q 272 727 308 874 q 235 413 235 581 q 389 -204 235 94 l 256 -204 q 110 88 157 -60 q 64 413 64 235 q 256 1029 64 751 z "},")":{"ha":431,"x_min":42,"x_max":367,"o":"m 42 1029 l 175 1029 q 367 413 367 751 q 320 88 367 235 q 175 -204 274 -60 l 42 -204 q 196 413 196 90 q 160 728 196 582 q 42 1029 124 874 z "},"*":{"ha":579,"x_min":40,"x_max":539,"o":"m 329 801 l 501 879 l 539 760 l 354 725 l 481 589 l 381 515 l 289 679 l 197 515 l 97 589 l 224 725 l 40 760 l 78 879 l 250 801 l 228 989 l 351 989 l 329 801 z "},"+":{"ha":786,"x_min":93,"x_max":693,"o":"m 456 503 l 693 503 l 693 376 l 456 376 l 456 140 l 331 140 l 331 376 l 93 376 l 93 503 l 331 503 l 331 740 l 456 740 l 456 503 z "},",":{"ha":336,"x_min":74,"x_max":260,"o":"m 260 0 l 172 -219 l 74 -219 l 138 0 l 76 0 l 76 197 l 260 197 l 260 0 z "},"-":{"ha":431,"x_min":42,"x_max":389,"o":"m 389 340 l 42 340 l 42 471 l 389 471 l 389 340 z "},".":{"ha":336,"x_min":76,"x_max":260,"o":"m 260 0 l 76 0 l 76 197 l 260 197 l 260 0 z "},"/":{"ha":657,"x_min":42,"x_max":586,"o":"m 172 -124 l 42 -124 l 456 1035 l 586 1035 l 172 -124 z "},":":{"ha":336,"x_min":76,"x_max":260,"o":"m 260 508 l 76 508 l 76 706 l 260 706 l 260 508 m 260 0 l 76 0 l 76 197 l 260 197 l 260 0 z "},";":{"ha":336,"x_min":74,"x_max":260,"o":"m 260 508 l 76 508 l 76 706 l 260 706 l 260 508 m 260 0 l 172 -219 l 74 -219 l 138 0 l 76 0 l 76 197 l 260 197 l 260 0 z "},"<":{"ha":786,"x_min":93,"x_max":693,"o":"m 693 625 l 240 442 l 240 439 l 693 256 l 693 117 l 93 367 l 93 514 l 693 764 l 693 625 z "},"=":{"ha":786,"x_min":93,"x_max":693,"o":"m 693 500 l 93 500 l 93 626 l 693 626 l 693 500 m 693 253 l 93 253 l 93 379 l 693 379 l 693 253 z "},">":{"ha":786,"x_min":93,"x_max":693,"o":"m 693 514 l 693 367 l 93 117 l 93 256 l 546 439 l 546 442 l 93 625 l 93 764 l 693 514 z "},"?":{"ha":739,"x_min":44,"x_max":686,"o":"m 374 1008 q 601 940 517 1008 q 686 754 686 871 q 657 632 686 682 q 542 508 628 582 q 442 394 464 443 q 419 244 419 346 l 282 244 q 281 288 281 260 q 307 448 281 392 q 418 579 333 504 q 501 670 482 638 q 519 750 519 703 q 481 837 519 804 q 374 869 442 869 q 208 710 217 869 l 44 710 q 135 933 50 857 q 374 1008 219 1008 m 439 0 l 260 0 l 260 165 l 439 165 l 439 0 z "},"@":{"ha":1208,"x_min":60,"x_max":1149,"o":"m 619 971 q 1004 830 860 971 q 1149 456 1149 689 q 1070 192 1149 283 q 875 100 992 100 q 713 219 738 100 l 710 219 q 524 100 651 100 q 372 170 426 100 q 317 371 318 240 q 392 622 318 525 q 582 719 467 719 q 736 618 694 719 l 739 618 q 756 706 751 689 l 885 706 q 828 303 828 431 q 897 210 828 210 q 1001 272 960 210 q 1043 456 1043 335 q 928 754 1043 642 q 619 867 813 867 q 286 731 407 867 q 165 385 165 594 q 283 65 165 181 q 599 -51 400 -51 q 903 24 782 -51 l 950 -68 q 599 -156 800 -156 q 206 -11 351 -156 q 60 385 60 133 q 212 802 60 633 q 619 971 364 971 m 604 599 q 499 538 540 599 q 457 375 457 478 q 485 261 457 300 q 563 222 513 222 q 665 283 624 222 q 706 461 706 344 q 679 563 706 526 q 604 599 653 599 z "},"A":{"ha":954,"x_min":6,"x_max":949,"o":"m 682 268 l 272 268 l 181 0 l 6 0 l 365 989 l 589 989 l 949 0 l 774 0 l 682 268 m 632 413 l 606 490 q 478 883 522 738 l 475 883 q 349 490 401 642 l 322 413 l 632 413 z "},"B":{"ha":886,"x_min":122,"x_max":831,"o":"m 122 989 l 463 989 q 722 921 635 989 q 808 736 808 853 q 640 506 808 568 l 640 503 q 831 271 831 458 q 740 73 831 146 q 490 0 650 0 l 122 0 l 122 989 m 289 851 l 289 569 l 453 569 q 647 711 647 569 q 461 851 647 851 l 289 851 m 289 436 l 289 139 l 465 139 q 614 175 567 139 q 661 286 661 211 q 612 399 661 361 q 454 436 563 436 l 289 436 z "},"C":{"ha":965,"x_min":56,"x_max":904,"o":"m 499 1010 q 785 910 676 1010 q 900 650 893 810 l 732 650 q 659 805 721 749 q 499 861 597 861 q 300 763 372 861 q 228 494 228 665 q 299 226 228 324 q 494 128 371 128 q 656 185 593 128 q 733 343 719 242 l 904 343 q 781 76 889 172 q 494 -21 672 -21 q 173 117 290 -21 q 56 494 56 254 q 174 872 56 735 q 499 1010 293 1010 z "},"D":{"ha":1013,"x_min":122,"x_max":957,"o":"m 122 989 l 439 989 q 822 860 688 989 q 957 494 957 732 q 822 128 957 257 q 439 0 688 0 l 122 0 l 122 989 m 288 844 l 288 144 l 436 144 q 785 494 785 144 q 436 844 785 844 l 288 844 z "},"E":{"ha":868,"x_min":122,"x_max":797,"o":"m 783 844 l 289 844 l 289 576 l 753 576 l 753 433 l 289 433 l 289 144 l 797 144 l 797 0 l 122 0 l 122 989 l 783 989 l 783 844 z "},"F":{"ha":804,"x_min":122,"x_max":763,"o":"m 763 844 l 289 844 l 289 540 l 729 540 l 729 397 l 289 397 l 289 0 l 122 0 l 122 989 l 763 989 l 763 844 z "},"G":{"ha":1024,"x_min":56,"x_max":917,"o":"m 514 1010 q 795 922 689 1010 q 917 686 901 835 l 739 686 q 666 816 724 771 q 514 861 608 861 q 305 762 382 861 q 228 490 228 663 q 303 217 228 317 q 507 117 378 117 q 690 186 624 117 q 758 396 757 256 l 506 396 l 506 535 l 914 535 l 914 0 l 771 0 l 771 122 l 768 122 q 649 19 728 57 q 469 -18 571 -18 q 167 118 279 -18 q 56 490 56 254 q 178 871 56 732 q 514 1010 301 1010 z "},"H":{"ha":1033,"x_min":122,"x_max":910,"o":"m 910 0 l 744 0 l 744 442 l 289 442 l 289 0 l 122 0 l 122 989 l 289 989 l 289 586 l 744 586 l 744 989 l 910 989 l 910 0 z "},"I":{"ha":411,"x_min":122,"x_max":289,"o":"m 289 0 l 122 0 l 122 989 l 289 989 l 289 0 z "},"J":{"ha":519,"x_min":21,"x_max":404,"o":"m 404 989 l 404 300 q 330 67 404 143 q 100 -8 256 -8 q 21 1 57 -8 l 21 144 q 83 139 50 139 q 201 181 164 139 q 238 329 238 222 l 238 989 l 404 989 z "},"K":{"ha":894,"x_min":122,"x_max":889,"o":"m 449 518 l 889 0 l 674 0 l 292 476 l 289 476 l 289 0 l 122 0 l 122 989 l 289 989 l 289 549 l 292 549 l 653 989 l 853 989 l 449 518 z "},"L":{"ha":789,"x_min":122,"x_max":775,"o":"m 289 144 l 775 144 l 775 0 l 122 0 l 122 989 l 289 989 l 289 144 z "},"M":{"ha":1332,"x_min":122,"x_max":1210,"o":"m 1210 0 l 1049 0 l 1049 497 q 1054 872 1049 706 l 1051 872 q 932 500 1003 710 l 761 0 l 571 0 l 400 500 q 281 872 329 710 l 278 872 q 283 497 283 706 l 283 0 l 122 0 l 122 989 l 390 989 l 550 518 q 664 146 615 328 l 667 146 q 782 518 721 339 l 942 989 l 1210 989 l 1210 0 z "},"N":{"ha":1064,"x_min":122,"x_max":940,"o":"m 940 0 l 701 0 l 488 414 q 278 839 375 633 l 275 839 q 283 389 283 614 l 283 0 l 122 0 l 122 989 l 363 989 l 575 575 q 785 150 688 356 l 788 150 q 781 600 781 400 l 781 989 l 940 989 l 940 0 z "},"O":{"ha":1028,"x_min":56,"x_max":972,"o":"m 178 872 q 240 941 178 872 q 514 1010 301 1010 q 849 872 726 1010 q 972 494 972 733 q 849 117 972 256 q 514 -21 726 -21 q 178 117 301 -21 q 56 494 56 256 q 178 872 56 733 m 723 763 q 684 812 723 763 q 514 861 646 861 q 305 763 382 861 q 228 494 228 664 q 305 226 228 325 q 514 128 382 128 q 723 226 646 128 q 800 494 800 325 q 723 763 800 664 z "},"P":{"ha":869,"x_min":122,"x_max":833,"o":"m 122 989 l 479 989 q 742 906 650 989 q 833 681 833 822 q 742 454 833 538 q 479 371 650 371 l 289 371 l 289 0 l 122 0 l 122 989 m 289 849 l 289 511 l 460 511 q 663 681 663 511 q 460 849 663 849 l 289 849 z "},"Q":{"ha":1028,"x_min":56,"x_max":972,"o":"m 972 494 q 851 121 972 258 l 963 -3 l 869 -90 l 753 38 q 515 -21 649 -21 q 179 117 303 -21 q 56 494 56 256 q 179 872 56 733 q 515 1010 303 1010 q 849 872 726 1010 q 972 494 972 733 m 518 121 q 649 151 590 121 l 514 300 l 610 389 l 743 240 q 806 490 806 338 q 728 761 806 661 q 518 861 651 861 q 306 761 383 861 q 228 490 228 661 q 306 220 228 319 q 518 121 383 121 z "},"R":{"ha":907,"x_min":122,"x_max":881,"o":"m 122 989 l 463 989 q 815 715 815 989 q 766 557 815 622 q 632 471 717 492 l 632 468 q 715 411 685 450 q 779 279 746 372 l 881 0 l 699 0 l 615 249 q 547 365 586 333 q 432 397 507 397 l 289 397 l 289 0 l 122 0 l 122 989 m 289 851 l 289 533 l 454 533 q 601 577 554 533 q 647 699 649 621 q 444 851 647 851 l 289 851 z "},"S":{"ha":861,"x_min":47,"x_max":801,"o":"m 410 1010 q 681 927 589 1010 q 774 685 774 844 l 606 685 q 554 826 606 778 q 407 874 503 874 q 280 838 326 874 q 233 742 233 803 q 282 647 233 678 q 460 585 331 617 q 568 556 526 568 q 659 519 610 543 q 736 465 708 494 q 783 390 764 436 q 801 282 801 343 q 700 62 801 144 q 432 -21 599 -21 q 149 69 250 -21 q 47 326 47 158 l 218 326 q 433 117 218 117 q 577 157 525 117 q 629 267 629 197 q 582 365 629 336 q 406 426 535 394 q 297 456 336 444 q 206 492 257 468 q 128 545 154 517 q 82 620 101 574 q 63 726 63 667 q 158 931 63 853 q 410 1010 253 1010 z "},"T":{"ha":843,"x_min":14,"x_max":829,"o":"m 829 844 l 504 844 l 504 0 l 339 0 l 339 844 l 14 844 l 14 989 l 829 989 l 829 844 z "},"U":{"ha":989,"x_min":114,"x_max":874,"o":"m 874 989 l 874 374 q 776 81 874 182 q 494 -21 678 -21 q 213 81 311 -21 q 114 374 114 182 l 114 989 l 281 989 l 281 379 q 336 192 281 256 q 494 128 392 128 q 653 192 597 128 q 708 379 708 256 l 708 989 l 874 989 z "},"V":{"ha":876,"x_min":8,"x_max":868,"o":"m 544 0 l 333 0 l 8 989 l 179 989 l 314 576 q 438 163 374 399 l 440 163 q 563 576 490 353 l 697 989 l 868 989 l 544 0 z "},"W":{"ha":1300,"x_min":14,"x_max":1286,"o":"m 1068 0 l 844 0 l 746 411 q 651 846 690 644 l 649 846 q 554 411 610 644 l 456 0 l 232 0 l 14 989 l 178 989 l 258 608 q 346 163 313 358 l 349 163 q 449 610 400 407 l 540 989 l 760 989 l 851 610 q 951 163 900 407 l 954 163 q 1040 608 983 333 l 1122 989 l 1286 989 l 1068 0 z "},"X":{"ha":869,"x_min":7,"x_max":861,"o":"m 536 506 l 861 0 l 667 0 l 436 378 l 433 378 l 203 0 l 7 0 l 333 506 l 24 989 l 217 989 l 433 626 l 436 626 l 653 989 l 844 989 l 536 506 z "},"Y":{"ha":869,"x_min":4,"x_max":864,"o":"m 518 397 l 518 0 l 351 0 l 351 397 l 4 989 l 193 989 l 301 793 q 433 538 371 668 l 436 538 q 569 793 503 676 l 676 989 l 864 989 l 518 397 z "},"Z":{"ha":797,"x_min":26,"x_max":771,"o":"m 746 838 l 224 144 l 224 142 l 771 142 l 771 0 l 26 0 l 26 151 l 549 844 l 549 847 l 46 847 l 46 989 l 746 989 l 746 838 z "},"[":{"ha":435,"x_min":101,"x_max":411,"o":"m 411 932 l 251 932 l 251 -110 l 411 -110 l 411 -207 l 101 -207 l 101 1029 l 411 1029 l 411 932 z "},"\\":{"ha":657,"x_min":71,"x_max":615,"o":"m 201 1035 l 615 -124 l 485 -124 l 71 1035 l 201 1035 z "},"]":{"ha":435,"x_min":24,"x_max":333,"o":"m 333 1029 l 333 -207 l 24 -207 l 24 -110 l 183 -110 l 183 932 l 24 932 l 24 1029 l 333 1029 z "},"^":{"ha":657,"x_min":14,"x_max":643,"o":"m 643 515 l 496 515 l 329 864 l 326 864 l 160 515 l 14 515 l 244 989 l 413 989 l 643 515 z "},"_":{"ha":694,"x_min":0,"x_max":694,"o":"m 694 -157 l 0 -157 l 0 -69 l 694 -69 l 694 -157 z "},"`":{"ha":451,"x_min":69,"x_max":382,"o":"m 268 989 l 382 789 l 253 789 l 69 989 l 268 989 z "},"a":{"ha":749,"x_min":42,"x_max":674,"o":"m 365 726 q 581 657 507 726 q 656 450 656 588 l 656 186 q 674 0 656 72 l 531 0 q 521 99 521 43 l 518 99 q 281 -15 440 -15 q 107 44 172 -15 q 42 194 42 103 q 103 339 42 285 q 313 417 165 393 q 503 438 401 432 l 503 465 q 365 611 503 611 q 265 578 301 611 q 226 488 229 544 l 71 488 q 152 660 76 593 q 365 726 228 726 m 503 300 l 503 335 q 340 317 413 329 q 233 279 264 304 q 201 206 201 254 q 234 130 201 158 q 326 101 267 101 q 454 149 407 101 q 492 210 482 178 q 503 300 503 243 z "},"b":{"ha":815,"x_min":101,"x_max":763,"o":"m 260 614 l 263 614 q 348 694 293 665 q 469 724 403 724 q 683 623 604 724 q 763 353 763 522 q 683 84 763 185 q 468 -17 603 -17 q 345 13 401 -17 q 258 97 289 43 l 256 97 l 256 0 l 101 0 l 101 989 l 260 989 l 260 614 m 422 600 q 298 534 344 600 q 251 353 251 468 q 298 172 251 239 q 422 106 344 106 q 550 173 503 106 q 597 353 597 240 q 550 533 597 465 q 422 600 503 600 z "},"c":{"ha":761,"x_min":53,"x_max":714,"o":"m 396 726 q 616 649 529 726 q 714 450 703 572 l 549 450 q 501 560 543 519 q 396 601 460 601 q 266 535 313 601 q 219 353 219 469 q 266 170 219 236 q 396 104 313 104 q 501 150 460 104 q 547 268 542 196 l 714 268 q 617 59 703 139 q 396 -21 531 -21 q 146 81 239 -21 q 53 353 53 182 q 146 625 53 524 q 396 726 239 726 z "},"d":{"ha":815,"x_min":53,"x_max":714,"o":"m 714 0 l 560 0 l 560 97 l 557 97 q 470 13 526 43 q 347 -17 414 -17 q 133 84 213 -17 q 53 353 53 185 q 132 623 53 522 q 346 724 211 724 q 467 694 413 724 q 553 614 522 665 l 556 614 l 556 989 l 714 989 l 714 0 m 393 600 q 265 533 313 600 q 218 353 218 465 q 265 173 218 240 q 393 106 313 106 q 517 172 471 106 q 564 353 564 239 q 517 534 564 468 q 393 600 471 600 z "},"e":{"ha":781,"x_min":53,"x_max":728,"o":"m 394 96 q 503 128 461 96 q 557 213 546 160 l 719 213 q 613 46 699 113 q 394 -21 526 -21 q 144 83 235 -21 q 53 361 53 188 q 144 624 53 521 q 392 726 235 726 q 595 662 511 726 q 708 486 679 597 q 728 321 728 424 l 210 321 q 265 151 214 207 q 394 96 315 96 m 513 563 q 489 586 513 563 q 392 610 465 610 q 270 563 318 610 q 213 425 222 515 l 569 425 q 513 563 561 515 z "},"f":{"ha":449,"x_min":17,"x_max":433,"o":"m 394 878 q 318 851 343 878 q 293 763 293 824 l 293 706 l 429 706 l 429 585 l 293 585 l 293 0 l 136 0 l 136 585 l 17 585 l 17 706 l 136 706 l 136 781 q 350 999 136 999 q 433 989 385 999 l 433 872 q 394 878 414 878 z "},"g":{"ha":808,"x_min":53,"x_max":707,"o":"m 349 725 q 554 607 476 725 l 557 607 l 557 706 l 707 706 l 707 44 q 623 -190 707 -111 q 386 -268 539 -268 q 167 -209 246 -268 q 83 -44 89 -150 l 242 -44 q 283 -124 244 -96 q 389 -151 322 -151 q 512 -104 471 -151 q 553 50 553 -57 l 553 119 l 550 119 q 346 8 474 8 q 132 106 211 8 q 53 367 53 203 q 133 628 53 531 q 349 725 214 725 m 385 593 q 263 532 308 593 q 218 367 218 471 q 263 201 218 263 q 385 139 308 139 q 512 201 465 139 q 558 367 558 263 q 512 532 558 471 q 385 593 465 593 z "},"h":{"ha":817,"x_min":101,"x_max":722,"o":"m 260 622 l 263 622 q 465 722 336 722 q 655 649 588 722 q 722 432 722 575 l 722 0 l 564 0 l 564 418 q 421 594 564 594 q 305 542 350 594 q 260 392 260 489 l 260 0 l 101 0 l 101 989 l 260 989 l 260 622 z "},"i":{"ha":361,"x_min":101,"x_max":260,"o":"m 260 838 l 101 838 l 101 989 l 260 989 l 260 838 m 260 0 l 101 0 l 101 706 l 260 706 l 260 0 z "},"j":{"ha":367,"x_min":-37,"x_max":265,"o":"m 265 838 l 107 838 l 107 989 l 265 989 l 265 838 m 265 706 l 265 -28 q 206 -207 265 -150 q 43 -264 147 -264 q -37 -254 6 -264 l -37 -136 q 1 -140 -19 -140 q 81 -110 56 -140 q 107 -7 107 -81 l 107 706 l 265 706 z "},"k":{"ha":725,"x_min":101,"x_max":738,"o":"m 738 0 l 538 0 l 263 342 l 260 342 l 260 0 l 101 0 l 101 989 l 260 989 l 260 417 l 263 417 l 519 706 l 704 706 l 413 383 l 738 0 z "},"l":{"ha":361,"x_min":101,"x_max":260,"o":"m 260 0 l 101 0 l 101 989 l 260 989 l 260 0 z "},"m":{"ha":1222,"x_min":101,"x_max":1128,"o":"m 886 722 q 1064 649 1000 722 q 1128 435 1128 575 l 1128 0 l 969 0 l 969 419 q 842 594 969 594 q 733 538 772 594 q 693 381 693 482 l 693 0 l 535 0 l 535 436 q 502 553 535 511 q 408 594 469 594 q 299 538 338 594 q 260 378 260 481 l 260 0 l 101 0 l 101 706 l 253 706 l 253 621 l 256 621 q 451 722 331 722 q 660 594 604 722 q 886 722 742 722 z "},"n":{"ha":817,"x_min":101,"x_max":722,"o":"m 465 722 q 655 649 588 722 q 722 432 722 575 l 722 0 l 564 0 l 564 418 q 421 594 564 594 q 305 542 350 594 q 260 392 260 489 l 260 0 l 101 0 l 101 706 l 251 706 l 251 614 l 254 614 q 465 722 329 722 z "},"o":{"ha":801,"x_min":53,"x_max":749,"o":"m 147 626 q 194 676 147 626 q 401 726 242 726 q 655 626 561 726 q 749 353 749 525 q 655 80 749 181 q 401 -21 561 -21 q 147 80 242 -21 q 53 353 53 181 q 147 626 53 525 m 535 535 q 510 568 535 535 q 401 601 486 601 q 268 535 317 601 q 219 353 219 468 q 268 171 219 238 q 401 104 317 104 q 535 171 486 104 q 583 353 583 238 q 535 535 583 468 z "},"p":{"ha":815,"x_min":101,"x_max":763,"o":"m 468 724 q 683 623 603 724 q 763 353 763 522 q 683 83 763 183 q 469 -17 604 -17 q 348 12 403 -17 q 263 92 293 40 l 260 92 l 260 -257 l 101 -257 l 101 706 l 256 706 l 256 608 l 258 608 q 345 693 289 663 q 468 724 401 724 m 422 600 q 298 534 344 600 q 251 353 251 468 q 298 172 251 239 q 422 106 344 106 q 550 173 503 106 q 597 353 597 240 q 550 533 597 465 q 422 600 503 600 z "},"q":{"ha":815,"x_min":53,"x_max":714,"o":"m 347 724 q 470 693 414 724 q 557 608 526 663 l 560 608 l 560 706 l 714 706 l 714 -257 l 556 -257 l 556 92 l 553 92 q 467 12 522 40 q 346 -17 413 -17 q 132 83 211 -17 q 53 353 53 183 q 133 623 53 522 q 347 724 213 724 m 393 600 q 265 533 313 600 q 218 353 218 465 q 265 173 218 240 q 393 106 313 106 q 517 172 471 106 q 564 353 564 239 q 517 534 564 468 q 393 600 471 600 z "},"r":{"ha":524,"x_min":101,"x_max":511,"o":"m 453 715 q 511 708 481 715 l 511 568 q 456 574 485 574 q 310 515 361 574 q 260 346 260 456 l 260 0 l 101 0 l 101 706 l 249 706 l 249 601 l 251 601 q 453 715 322 715 z "},"s":{"ha":707,"x_min":51,"x_max":653,"o":"m 344 726 q 555 665 481 726 q 631 486 629 603 l 478 486 q 343 611 478 611 q 257 589 288 611 q 226 528 226 567 q 258 468 226 486 q 386 426 290 450 q 435 414 425 417 q 481 401 446 411 q 528 383 517 390 q 567 361 540 375 q 603 333 593 347 q 628 297 614 318 q 648 251 643 276 q 653 194 653 225 q 572 38 653 97 q 357 -21 492 -21 q 133 44 213 -21 q 51 232 53 108 l 213 232 q 251 132 213 167 q 360 97 289 97 q 453 121 419 97 q 488 185 488 144 q 451 255 488 235 q 310 301 415 275 q 258 315 271 311 q 211 328 244 318 q 164 348 178 339 q 127 374 150 357 q 94 409 104 390 q 76 455 85 428 q 68 515 68 482 q 144 668 68 610 q 344 726 221 726 z "},"t":{"ha":471,"x_min":13,"x_max":433,"o":"m 385 121 q 433 128 415 121 l 433 4 q 344 -8 390 -8 q 181 42 232 -8 q 131 208 131 93 l 131 585 l 13 585 l 13 706 l 131 706 l 131 882 l 289 882 l 289 706 l 426 706 l 426 585 l 289 585 l 289 232 q 311 147 289 172 q 385 121 333 121 z "},"u":{"ha":817,"x_min":94,"x_max":715,"o":"m 351 -17 q 162 57 229 -17 q 94 274 94 131 l 94 706 l 253 706 l 253 288 q 396 111 253 111 q 512 164 467 111 q 557 314 557 217 l 557 706 l 715 706 l 715 0 l 565 0 l 565 92 l 563 92 q 351 -17 488 -17 z "},"v":{"ha":681,"x_min":-8,"x_max":689,"o":"m 443 0 l 238 0 l -8 706 l 157 706 l 249 418 q 339 110 294 278 l 342 110 q 432 418 386 278 l 524 706 l 689 706 l 443 0 z "},"w":{"ha":1097,"x_min":8,"x_max":1089,"o":"m 917 0 l 690 0 l 618 292 q 550 596 585 426 l 547 596 q 479 292 513 426 l 407 0 l 181 0 l 8 706 l 167 706 l 231 422 q 294 110 269 256 l 297 110 q 367 417 324 239 l 438 706 l 660 706 l 731 417 q 800 110 774 239 l 803 110 q 867 422 828 256 l 931 706 l 1089 706 l 917 0 z "},"x":{"ha":686,"x_min":-6,"x_max":692,"o":"m 440 365 l 692 0 l 506 0 l 344 261 l 342 261 l 181 0 l -6 0 l 246 365 l 13 706 l 197 706 l 342 476 l 344 476 l 489 706 l 674 706 l 440 365 z "},"y":{"ha":678,"x_min":-8,"x_max":686,"o":"m 686 706 l 414 -31 q 297 -214 364 -164 q 106 -264 229 -264 q 26 -254 63 -264 l 26 -125 q 93 -135 58 -135 q 191 -107 157 -135 q 250 -6 225 -79 l -8 706 l 161 706 l 338 181 l 340 181 l 522 706 l 686 706 z "},"z":{"ha":661,"x_min":38,"x_max":624,"o":"m 610 574 l 229 129 l 229 126 l 624 126 l 624 0 l 38 0 l 38 132 l 418 576 l 418 579 l 51 579 l 51 706 l 610 706 l 610 574 z "},"{":{"ha":444,"x_min":56,"x_max":410,"o":"m 410 1029 l 410 935 q 319 903 346 932 q 293 803 293 874 l 293 589 q 265 472 293 514 q 169 413 236 431 l 169 408 q 265 348 236 389 q 293 231 293 307 l 293 18 q 319 -83 293 -54 q 410 -114 346 -112 l 410 -210 l 378 -210 q 200 -154 253 -210 q 147 26 147 -99 l 147 228 q 127 317 147 289 q 56 358 107 344 l 56 461 q 128 505 108 476 q 147 593 147 533 l 147 794 q 200 974 147 919 q 378 1029 253 1029 l 410 1029 z "},"|":{"ha":393,"x_min":125,"x_max":268,"o":"m 268 -285 l 125 -285 l 125 1017 l 268 1017 l 268 -285 z "},"}":{"ha":444,"x_min":33,"x_max":389,"o":"m 33 1029 l 67 1029 q 244 974 192 1029 q 296 794 296 919 l 296 593 q 316 505 296 533 q 389 461 336 476 l 389 358 q 316 316 336 344 q 296 228 296 288 l 296 26 q 244 -154 296 -99 q 67 -210 192 -210 l 33 -210 l 33 -114 q 124 -83 97 -112 q 150 18 150 -54 l 150 231 q 179 347 150 306 q 274 408 208 389 l 274 413 q 179 473 208 432 q 150 589 150 514 l 150 803 q 124 903 150 874 q 33 935 97 932 l 33 1029 z "},"~":{"ha":818,"x_min":35,"x_max":783,"o":"m 251 575 q 348 553 300 575 q 426 503 396 531 q 496 453 457 475 q 568 431 535 431 q 647 467 617 431 q 676 563 676 503 l 783 563 q 723 376 783 447 q 567 304 663 304 q 447 340 504 304 q 340 413 389 376 q 249 449 290 449 q 170 413 200 449 q 140 318 140 378 l 35 318 q 95 504 35 433 q 251 575 156 575 z "}," ":{"ha":319,"x_min":0,"x_max":0,"o":""},"¡":{"ha":417,"x_min":110,"x_max":306,"o":"m 118 706 l 297 706 l 297 540 l 118 540 l 118 706 m 146 446 l 269 446 l 306 -283 l 110 -283 l 146 446 z "},"¢":{"ha":807,"x_min":74,"x_max":735,"o":"m 464 704 l 464 222 q 536 278 508 236 q 568 378 564 319 l 735 378 q 651 183 724 260 q 464 92 579 106 l 464 -35 l 364 -35 l 364 92 q 151 207 229 108 q 74 463 74 306 q 151 717 74 618 q 364 833 229 815 l 364 957 l 464 957 l 464 833 q 651 744 578 819 q 735 558 724 669 l 569 558 q 464 704 558 674 m 272 621 q 255 590 272 621 q 239 463 239 558 q 272 304 239 367 q 364 222 304 242 l 364 703 q 272 621 304 683 z "},"£":{"ha":807,"x_min":33,"x_max":761,"o":"m 249 133 l 753 133 l 753 0 l 33 0 l 33 135 q 131 178 99 135 q 163 319 163 221 l 163 396 l 33 396 l 33 531 l 163 531 l 163 639 q 241 877 163 797 q 469 957 319 957 q 683 878 606 957 q 761 664 761 800 l 601 664 q 567 778 601 739 q 469 818 532 818 q 328 639 328 818 l 328 531 l 500 531 l 500 396 l 328 396 l 328 321 q 310 205 328 246 q 249 136 292 164 l 249 133 z "},"¤":{"ha":807,"x_min":47,"x_max":761,"o":"m 658 575 q 704 404 704 501 q 658 233 704 307 l 761 125 l 660 31 l 558 140 q 404 103 494 103 q 249 139 317 103 l 147 31 l 47 125 l 149 233 q 103 404 103 307 q 149 575 103 501 l 47 683 l 147 778 l 249 669 q 404 706 317 706 q 558 668 494 706 l 660 778 l 761 683 l 658 575 m 282 276 q 305 252 282 276 q 404 228 328 228 q 526 276 481 228 q 571 404 571 325 q 526 532 571 483 q 404 581 481 581 q 282 532 328 581 q 236 404 236 483 q 282 276 236 325 z "},"¥":{"ha":807,"x_min":15,"x_max":792,"o":"m 539 492 l 718 492 l 718 401 l 488 401 l 488 335 l 718 335 l 718 246 l 488 246 l 488 0 l 319 0 l 319 246 l 89 246 l 89 335 l 319 335 l 319 401 l 89 401 l 89 492 l 268 492 l 15 936 l 201 936 l 275 799 q 403 542 344 665 l 406 542 q 532 799 457 657 l 606 936 l 792 936 l 539 492 z "},"¦":{"ha":393,"x_min":125,"x_max":268,"o":"m 268 531 l 125 531 l 125 1017 l 268 1017 l 268 531 m 268 -285 l 125 -285 l 125 201 l 268 201 l 268 -285 z "},"§":{"ha":850,"x_min":89,"x_max":761,"o":"m 421 1010 q 706 761 693 1010 l 546 761 q 421 879 542 879 q 341 856 371 879 q 311 790 311 832 q 341 722 311 743 q 483 654 371 700 q 603 601 561 622 q 687 547 646 579 q 744 472 728 514 q 761 371 761 429 q 642 168 761 243 l 642 165 q 708 15 708 114 q 631 -152 708 -92 q 424 -212 554 -212 q 204 -149 283 -212 q 122 39 125 -86 l 282 39 q 421 -82 290 -82 q 510 -56 476 -82 q 543 15 543 -31 q 506 92 543 65 q 340 175 469 119 q 148 288 207 233 q 89 443 89 342 q 208 646 89 574 l 208 649 q 146 788 146 700 q 223 949 146 888 q 421 1010 300 1010 m 307 576 q 243 467 243 535 q 278 378 243 414 q 415 297 314 342 q 543 238 465 278 q 608 353 608 278 q 574 439 608 403 q 444 515 540 475 q 307 576 376 543 z "},"¨":{"ha":567,"x_min":69,"x_max":497,"o":"m 211 838 l 69 838 l 69 989 l 211 989 l 211 838 m 497 838 l 356 838 l 356 989 l 497 989 l 497 838 z "},"©":{"ha":1119,"x_min":61,"x_max":1058,"o":"m 560 1007 q 922 866 785 1007 q 1058 494 1058 725 q 922 123 1058 264 q 560 -18 785 -18 q 199 123 336 -18 q 61 494 61 264 q 199 866 61 725 q 560 1007 336 1007 m 560 936 q 249 815 367 936 q 131 494 131 693 q 249 174 131 296 q 560 53 367 53 q 872 174 754 53 q 990 494 990 296 q 872 815 990 693 q 560 936 754 936 m 563 824 q 749 759 679 824 q 825 589 819 694 l 707 589 q 663 687 701 650 q 563 724 625 724 q 442 662 486 724 q 397 493 397 600 q 441 326 397 388 q 560 265 485 265 q 663 303 622 265 q 710 404 703 340 l 829 404 q 747 229 819 293 q 560 165 675 165 q 353 253 429 165 q 278 493 278 340 q 354 735 278 647 q 563 824 431 824 z "},"ª":{"ha":558,"x_min":29,"x_max":506,"o":"m 272 967 q 492 769 492 967 l 492 594 q 506 458 492 514 l 383 458 q 375 525 375 489 l 374 525 q 204 447 317 447 q 76 489 124 447 q 29 597 29 531 q 75 700 29 663 q 231 754 121 738 q 360 768 319 767 l 360 788 q 272 878 360 878 q 183 799 186 878 l 50 799 q 110 919 54 872 q 272 967 167 967 m 360 667 l 360 689 q 254 676 314 686 q 185 651 206 668 q 165 606 165 635 q 186 557 165 575 q 244 539 207 539 q 328 569 299 539 q 360 667 360 600 z "},"«":{"ha":692,"x_min":64,"x_max":628,"o":"m 213 353 l 364 75 l 222 75 l 64 353 l 222 631 l 364 631 l 213 353 m 475 353 l 628 75 l 486 75 l 328 353 l 486 631 l 628 631 l 475 353 z "},"¬":{"ha":786,"x_min":93,"x_max":693,"o":"m 693 189 l 567 189 l 567 508 l 93 508 l 93 636 l 693 636 l 693 189 z "},"­":{"ha":431,"x_min":42,"x_max":389,"o":"m 389 340 l 42 340 l 42 471 l 389 471 l 389 340 z "},"®":{"ha":818,"x_min":63,"x_max":756,"o":"m 158 912 q 206 961 158 912 q 410 1010 254 1010 q 660 912 565 1010 q 756 653 756 814 q 660 394 756 492 q 410 297 565 297 q 158 395 253 297 q 63 653 63 493 q 158 912 63 814 m 626 876 q 585 919 626 876 q 410 961 544 961 q 193 876 275 961 q 111 653 111 792 q 193 429 111 514 q 410 344 275 344 q 626 429 544 344 q 708 653 708 514 q 626 876 708 792 m 249 879 l 418 879 q 531 846 493 879 q 569 753 569 813 q 548 685 569 715 q 490 646 526 656 l 490 643 q 553 569 528 635 l 599 439 l 508 439 l 471 549 q 442 596 461 582 q 390 610 424 610 l 333 610 l 333 439 l 249 439 l 249 879 m 333 808 l 333 679 l 397 679 q 485 747 485 679 q 401 808 485 808 l 333 808 z "},"¯":{"ha":563,"x_min":69,"x_max":493,"o":"m 493 843 l 69 843 l 69 951 l 493 951 l 493 843 z "},"°":{"ha":457,"x_min":51,"x_max":406,"o":"m 103 951 q 130 977 103 951 q 229 1003 156 1003 q 354 951 303 1003 q 406 825 406 899 q 354 701 406 753 q 229 649 303 649 q 103 700 156 649 q 51 825 51 751 q 103 951 51 899 m 229 917 q 164 890 190 917 q 138 825 138 864 q 164 761 138 788 q 229 735 190 735 q 294 761 267 735 q 321 825 321 788 q 294 890 321 864 q 229 917 267 917 z "},"±":{"ha":786,"x_min":93,"x_max":693,"o":"m 456 550 l 693 550 l 693 424 l 456 424 l 456 196 l 331 196 l 331 424 l 93 424 l 93 550 l 331 550 l 331 776 l 456 776 l 456 550 m 693 0 l 93 0 l 93 126 l 693 126 l 693 0 z "},"²":{"ha":610,"x_min":50,"x_max":563,"o":"m 307 1129 q 481 1076 415 1129 q 546 938 546 1022 q 500 809 546 858 q 364 713 454 760 q 244 638 274 667 q 213 574 214 608 l 563 574 l 563 458 l 53 458 q 50 486 50 467 q 91 654 50 589 q 247 782 132 719 q 365 858 331 826 q 400 936 400 889 q 375 994 400 972 q 307 1017 350 1017 q 201 910 206 1017 l 60 910 q 127 1072 61 1014 q 307 1129 193 1129 z "},"³":{"ha":601,"x_min":42,"x_max":553,"o":"m 300 1129 q 478 1079 413 1129 q 543 944 543 1029 q 515 856 543 890 q 426 797 488 821 l 426 794 q 522 735 492 772 q 553 636 553 697 q 484 496 553 549 q 301 443 415 443 q 109 502 176 443 q 42 668 42 561 l 185 668 q 301 556 185 556 q 380 579 350 556 q 410 642 410 603 q 274 735 410 735 l 253 735 l 253 843 l 276 843 q 369 867 335 843 q 403 932 403 890 q 374 994 403 971 q 297 1017 346 1017 q 190 908 190 1017 l 50 908 q 116 1071 50 1013 q 300 1129 182 1129 z "},"´":{"ha":451,"x_min":69,"x_max":382,"o":"m 199 789 l 69 789 l 182 989 l 382 989 l 199 789 z "},"µ":{"ha":831,"x_min":101,"x_max":814,"o":"m 718 706 l 718 217 q 733 138 718 160 q 781 117 747 117 q 814 121 797 117 l 814 4 q 714 -10 774 -10 q 572 103 593 -10 l 569 103 q 499 20 547 50 q 386 -10 450 -10 q 260 35 301 -10 l 260 -257 l 101 -257 l 101 706 l 260 706 l 260 289 q 399 111 260 111 q 515 165 469 111 q 560 315 560 218 l 560 706 l 718 706 z "},"¶":{"ha":864,"x_min":56,"x_max":832,"o":"m 832 879 l 721 879 l 721 -167 l 603 -167 l 603 879 l 486 879 l 486 -167 l 368 -167 l 368 415 l 329 415 q 129 492 203 415 q 56 701 56 569 q 129 911 56 833 q 329 989 203 989 l 832 989 l 832 879 z "},"·":{"ha":336,"x_min":76,"x_max":260,"o":"m 260 326 l 76 326 l 76 522 l 260 522 l 260 326 z "},"¸":{"ha":453,"x_min":69,"x_max":383,"o":"m 282 0 l 228 -86 q 268 -81 240 -81 q 350 -108 317 -81 q 383 -183 383 -136 q 341 -274 383 -237 q 221 -310 299 -310 q 69 -269 142 -310 l 97 -214 q 207 -243 151 -243 q 281 -190 281 -243 q 262 -150 281 -165 q 210 -135 243 -135 q 165 -143 186 -135 l 139 -114 l 211 0 l 282 0 z "},"¹":{"ha":417,"x_min":15,"x_max":324,"o":"m 324 458 l 182 458 l 182 899 l 15 899 l 15 1001 q 147 1028 104 1001 q 200 1114 190 1054 l 324 1114 l 324 458 z "},"º":{"ha":593,"x_min":38,"x_max":556,"o":"m 297 967 q 485 896 415 967 q 556 706 556 825 q 486 514 556 585 q 297 443 417 443 q 108 514 178 443 q 38 706 38 585 q 108 896 38 825 q 297 967 178 967 m 382 820 q 367 841 382 820 q 297 861 351 861 q 212 819 243 861 q 181 706 181 778 q 212 591 181 633 q 297 549 243 549 q 382 590 351 549 q 413 706 413 632 q 382 820 413 779 z "},"»":{"ha":692,"x_min":64,"x_max":628,"o":"m 206 631 l 364 353 l 206 75 l 64 75 l 215 353 l 64 631 l 206 631 m 469 631 l 628 353 l 469 75 l 328 75 l 479 353 l 328 631 l 469 631 z "},"¼":{"ha":1057,"x_min":13,"x_max":1044,"o":"m 150 743 l 13 743 l 13 839 q 165 936 143 839 l 283 936 l 283 375 l 150 375 l 150 743 m 779 936 l 257 0 l 142 0 l 665 936 l 779 936 m 1044 122 l 951 122 l 951 0 l 822 0 l 822 122 l 549 122 l 549 229 l 781 561 l 951 561 l 951 225 l 1044 225 l 1044 122 m 667 225 l 828 225 l 828 289 q 832 467 828 379 l 831 467 q 722 303 775 376 l 667 225 z "},"½":{"ha":1100,"x_min":13,"x_max":1061,"o":"m 283 375 l 150 375 l 150 743 l 13 743 l 13 839 q 165 936 143 839 l 283 936 l 283 375 m 257 0 l 142 0 l 665 936 l 779 936 l 257 0 m 835 575 q 988 528 931 575 q 1044 408 1044 482 q 1003 296 1044 340 q 886 215 963 251 q 785 156 811 179 q 757 106 760 133 l 1061 106 l 1061 0 l 608 0 q 607 26 607 8 q 643 173 607 117 q 779 282 679 229 q 835 313 818 303 q 874 340 853 324 q 903 372 896 356 q 911 410 911 389 q 890 455 911 438 q 835 472 869 472 q 749 383 751 472 l 617 383 q 676 524 618 474 q 835 575 733 575 z "},"¾":{"ha":1229,"x_min":36,"x_max":1217,"o":"m 489 526 q 429 406 489 450 q 267 361 369 361 q 97 412 157 361 q 36 556 36 463 l 168 556 q 267 465 168 465 q 333 484 308 465 q 358 533 358 503 q 244 608 358 608 l 225 608 l 225 707 l 243 707 q 322 727 292 707 q 351 782 351 747 q 328 829 351 811 q 264 847 304 847 q 172 761 172 847 l 43 761 q 102 900 43 850 q 264 950 161 950 q 422 906 364 950 q 481 790 481 863 q 382 665 481 703 l 382 664 q 463 613 438 646 q 489 526 489 579 m 951 936 l 429 0 l 314 0 l 838 936 l 951 936 m 1217 122 l 1124 122 l 1124 0 l 994 0 l 994 122 l 721 122 l 721 229 l 953 561 l 1124 561 l 1124 225 l 1217 225 l 1217 122 m 839 225 l 1000 225 l 1000 289 q 1004 467 1000 379 l 1003 467 q 894 303 947 376 l 839 225 z "},"¿":{"ha":694,"x_min":53,"x_max":694,"o":"m 300 706 l 479 706 l 479 540 l 300 540 l 300 706 m 365 -303 q 138 -234 222 -303 q 53 -49 53 -165 q 81 75 53 25 q 196 197 110 125 q 297 311 274 263 q 319 461 319 360 l 457 461 l 457 418 q 431 258 457 314 q 321 126 404 201 q 238 37 257 69 q 219 -44 219 4 q 258 -131 219 -99 q 365 -164 297 -164 q 529 -4 521 -164 l 694 -4 q 604 -227 689 -151 q 365 -303 519 -303 z "},"À":{"ha":954,"x_min":6,"x_max":949,"o":"m 454 1056 l 271 1253 l 469 1253 l 583 1056 l 454 1056 m 682 268 l 272 268 l 181 0 l 6 0 l 365 989 l 589 989 l 949 0 l 774 0 l 682 268 m 632 413 l 606 490 q 478 883 522 738 l 475 883 q 349 490 401 642 l 322 413 l 632 413 z "},"Á":{"ha":954,"x_min":6,"x_max":949,"o":"m 500 1056 l 371 1056 l 483 1253 l 683 1253 l 500 1056 m 682 268 l 272 268 l 181 0 l 6 0 l 365 989 l 589 989 l 949 0 l 774 0 l 682 268 m 632 413 l 606 490 q 478 883 522 738 l 475 883 q 349 490 401 642 l 322 413 l 632 413 z "},"Â":{"ha":954,"x_min":6,"x_max":949,"o":"m 383 1056 l 233 1056 l 392 1253 l 563 1253 l 721 1056 l 571 1056 l 476 1169 l 383 1056 m 682 268 l 272 268 l 181 0 l 6 0 l 365 989 l 589 989 l 949 0 l 774 0 l 682 268 m 632 413 l 606 490 q 478 883 522 738 l 475 883 q 349 490 401 642 l 322 413 l 632 413 z "},"Ã":{"ha":954,"x_min":6,"x_max":949,"o":"m 385 1143 q 321 1075 329 1143 l 226 1075 q 271 1203 231 1157 q 379 1249 311 1249 q 485 1215 426 1249 q 568 1182 543 1182 q 632 1249 625 1182 l 726 1249 q 683 1121 722 1167 q 575 1075 643 1075 q 469 1109 528 1075 q 385 1143 411 1143 m 682 268 l 272 268 l 181 0 l 6 0 l 365 989 l 589 989 l 949 0 l 774 0 l 682 268 m 632 413 l 606 490 q 478 883 522 738 l 475 883 q 349 490 401 642 l 322 413 l 632 413 z "},"Ä":{"ha":954,"x_min":6,"x_max":949,"o":"m 404 1072 l 263 1072 l 263 1224 l 404 1224 l 404 1072 m 690 1072 l 549 1072 l 549 1224 l 690 1224 l 690 1072 m 682 268 l 272 268 l 181 0 l 6 0 l 365 989 l 589 989 l 949 0 l 774 0 l 682 268 m 632 413 l 606 490 q 478 883 522 738 l 475 883 q 349 490 401 642 l 322 413 l 632 413 z "},"Å":{"ha":954,"x_min":6,"x_max":949,"o":"m 578 1085 q 557 1064 578 1085 q 476 1043 536 1043 q 374 1085 417 1043 q 332 1188 332 1128 q 374 1290 332 1247 q 476 1332 417 1332 q 578 1290 536 1332 q 621 1188 621 1247 q 578 1085 621 1128 m 531 1242 q 520 1254 531 1242 q 476 1265 508 1265 q 422 1242 444 1265 q 399 1188 399 1219 q 422 1133 399 1156 q 476 1110 444 1110 q 531 1133 508 1110 q 554 1188 554 1156 q 531 1242 554 1219 m 682 268 l 272 268 l 181 0 l 6 0 l 365 989 l 589 989 l 949 0 l 774 0 l 682 268 m 632 413 l 606 490 q 478 883 522 738 l 475 883 q 349 490 401 642 l 322 413 l 632 413 z "},"Æ":{"ha":1321,"x_min":-8,"x_max":1250,"o":"m 1250 144 l 1250 0 l 715 0 l 674 281 l 307 281 l 179 0 l -8 0 l 464 989 l 1236 989 l 1236 844 l 753 844 l 792 576 l 1206 576 l 1206 433 l 813 433 l 856 144 l 1250 144 m 653 422 l 590 853 l 569 853 l 372 422 l 653 422 z "},"Ç":{"ha":965,"x_min":56,"x_max":904,"o":"m 733 343 l 904 343 q 794 89 890 185 q 539 -19 699 -7 l 497 -86 q 538 -81 510 -81 q 619 -108 586 -81 q 653 -183 653 -136 q 610 -274 653 -237 q 490 -310 568 -310 q 339 -269 411 -310 l 367 -214 q 476 -243 421 -243 q 550 -190 550 -243 q 531 -150 550 -165 q 479 -135 513 -135 q 435 -143 456 -135 l 408 -114 l 468 -21 q 165 126 275 -11 q 56 494 56 263 q 174 872 56 735 q 499 1010 293 1010 q 785 910 676 1010 q 900 650 893 810 l 732 650 q 659 805 721 749 q 499 861 597 861 q 300 763 372 861 q 228 494 228 665 q 299 226 228 324 q 494 128 371 128 q 656 185 593 128 q 733 343 719 242 z "},"È":{"ha":868,"x_min":122,"x_max":797,"o":"m 444 1253 l 558 1056 l 429 1056 l 246 1253 l 444 1253 m 783 844 l 289 844 l 289 576 l 753 576 l 753 433 l 289 433 l 289 144 l 797 144 l 797 0 l 122 0 l 122 989 l 783 989 l 783 844 z "},"É":{"ha":868,"x_min":122,"x_max":797,"o":"m 476 1056 l 347 1056 l 460 1253 l 660 1253 l 476 1056 m 783 844 l 289 844 l 289 576 l 753 576 l 753 433 l 289 433 l 289 144 l 797 144 l 797 0 l 122 0 l 122 989 l 783 989 l 783 844 z "},"Ê":{"ha":868,"x_min":122,"x_max":797,"o":"m 367 1253 l 538 1253 l 696 1056 l 546 1056 l 451 1169 l 358 1056 l 208 1056 l 367 1253 m 783 844 l 289 844 l 289 576 l 753 576 l 753 433 l 289 433 l 289 144 l 797 144 l 797 0 l 122 0 l 122 989 l 783 989 l 783 844 z "},"Ë":{"ha":868,"x_min":122,"x_max":797,"o":"m 381 1072 l 239 1072 l 239 1224 l 381 1224 l 381 1072 m 667 1072 l 525 1072 l 525 1224 l 667 1224 l 667 1072 m 783 844 l 289 844 l 289 576 l 753 576 l 753 433 l 289 433 l 289 144 l 797 144 l 797 0 l 122 0 l 122 989 l 783 989 l 783 844 z "},"Ì":{"ha":411,"x_min":0,"x_max":313,"o":"m 199 1253 l 313 1056 l 183 1056 l 0 1253 l 199 1253 m 289 0 l 122 0 l 122 989 l 289 989 l 289 0 z "},"Í":{"ha":411,"x_min":101,"x_max":414,"o":"m 231 1056 l 101 1056 l 214 1253 l 414 1253 l 231 1056 m 289 0 l 122 0 l 122 989 l 289 989 l 289 0 z "},"Î":{"ha":411,"x_min":-37,"x_max":450,"o":"m 121 1253 l 292 1253 l 450 1056 l 300 1056 l 206 1169 l 113 1056 l -37 1056 l 121 1253 m 289 0 l 122 0 l 122 989 l 289 989 l 289 0 z "},"Ï":{"ha":411,"x_min":-8,"x_max":419,"o":"m 133 1072 l -8 1072 l -8 1224 l 133 1224 l 133 1072 m 419 1072 l 278 1072 l 278 1224 l 419 1224 l 419 1072 m 289 0 l 122 0 l 122 989 l 289 989 l 289 0 z "},"Ð":{"ha":1013,"x_min":33,"x_max":957,"o":"m 122 989 l 439 989 q 822 860 688 989 q 957 494 957 732 q 822 128 957 257 q 439 0 688 0 l 122 0 l 122 439 l 33 439 l 33 563 l 122 563 l 122 989 m 288 144 l 436 144 q 785 494 785 144 q 436 844 785 844 l 288 844 l 288 563 l 543 563 l 543 439 l 288 439 l 288 144 z "},"Ñ":{"ha":1064,"x_min":122,"x_max":940,"o":"m 688 1249 l 782 1249 q 738 1121 778 1167 q 631 1075 699 1075 q 525 1109 583 1075 q 440 1143 467 1143 q 376 1075 385 1143 l 282 1075 q 326 1203 286 1157 q 435 1249 367 1249 q 540 1215 482 1249 q 624 1182 599 1182 q 688 1249 681 1182 m 940 0 l 701 0 l 488 414 q 278 839 375 633 l 275 839 q 283 389 283 614 l 283 0 l 122 0 l 122 989 l 363 989 l 575 575 q 785 150 688 356 l 788 150 q 781 600 781 400 l 781 989 l 940 989 l 940 0 z "},"Ò":{"ha":1028,"x_min":56,"x_max":972,"o":"m 506 1253 l 619 1056 l 490 1056 l 307 1253 l 506 1253 m 178 872 q 240 941 178 872 q 514 1010 301 1010 q 849 872 726 1010 q 972 494 972 733 q 849 117 972 256 q 514 -21 726 -21 q 178 117 301 -21 q 56 494 56 256 q 178 872 56 733 m 723 763 q 684 812 723 763 q 514 861 646 861 q 305 763 382 861 q 228 494 228 664 q 305 226 228 325 q 514 128 382 128 q 723 226 646 128 q 800 494 800 325 q 723 763 800 664 z "},"Ó":{"ha":1028,"x_min":56,"x_max":972,"o":"m 538 1056 l 408 1056 l 521 1253 l 721 1253 l 538 1056 m 178 872 q 240 941 178 872 q 514 1010 301 1010 q 849 872 726 1010 q 972 494 972 733 q 849 117 972 256 q 514 -21 726 -21 q 178 117 301 -21 q 56 494 56 256 q 178 872 56 733 m 723 763 q 684 812 723 763 q 514 861 646 861 q 305 763 382 861 q 228 494 228 664 q 305 226 228 325 q 514 128 382 128 q 723 226 646 128 q 800 494 800 325 q 723 763 800 664 z "},"Ô":{"ha":1028,"x_min":56,"x_max":972,"o":"m 428 1253 l 599 1253 l 757 1056 l 607 1056 l 513 1169 l 419 1056 l 269 1056 l 428 1253 m 178 872 q 240 941 178 872 q 514 1010 301 1010 q 849 872 726 1010 q 972 494 972 733 q 849 117 972 256 q 514 -21 726 -21 q 178 117 301 -21 q 56 494 56 256 q 178 872 56 733 m 723 763 q 684 812 723 763 q 514 861 646 861 q 305 763 382 861 q 228 494 228 664 q 305 226 228 325 q 514 128 382 128 q 723 226 646 128 q 800 494 800 325 q 723 763 800 664 z "},"Õ":{"ha":1028,"x_min":56,"x_max":972,"o":"m 669 1249 l 764 1249 q 720 1121 760 1167 q 613 1075 681 1075 q 507 1109 565 1075 q 422 1143 449 1143 q 358 1075 367 1143 l 264 1075 q 308 1203 268 1157 q 417 1249 349 1249 q 522 1215 464 1249 q 606 1182 581 1182 q 669 1249 664 1182 m 178 872 q 240 941 178 872 q 514 1010 301 1010 q 849 872 726 1010 q 972 494 972 733 q 849 117 972 256 q 514 -21 726 -21 q 178 117 301 -21 q 56 494 56 256 q 178 872 56 733 m 723 763 q 684 812 723 763 q 514 861 646 861 q 305 763 382 861 q 228 494 228 664 q 305 226 228 325 q 514 128 382 128 q 723 226 646 128 q 800 494 800 325 q 723 763 800 664 z "},"Ö":{"ha":1028,"x_min":56,"x_max":972,"o":"m 442 1072 l 300 1072 l 300 1224 l 442 1224 l 442 1072 m 728 1072 l 586 1072 l 586 1224 l 728 1224 l 728 1072 m 178 872 q 240 941 178 872 q 514 1010 301 1010 q 849 872 726 1010 q 972 494 972 733 q 849 117 972 256 q 514 -21 726 -21 q 178 117 301 -21 q 56 494 56 256 q 178 872 56 733 m 723 763 q 684 812 723 763 q 514 861 646 861 q 305 763 382 861 q 228 494 228 664 q 305 226 228 325 q 514 128 382 128 q 723 226 646 128 q 800 494 800 325 q 723 763 800 664 z "},"×":{"ha":786,"x_min":42,"x_max":744,"o":"m 744 688 l 482 426 l 744 164 l 656 75 l 393 338 l 132 75 l 42 164 l 304 426 l 42 688 l 132 776 l 393 515 l 656 776 l 744 688 z "},"Ø":{"ha":1028,"x_min":56,"x_max":972,"o":"m 940 982 l 854 867 q 972 494 972 729 q 849 117 972 256 q 514 -21 726 -21 q 247 57 357 -21 l 165 -53 l 88 8 l 174 124 q 56 494 56 261 q 178 872 56 733 q 514 1010 301 1010 q 782 932 669 1010 l 864 1042 l 940 982 m 222 494 q 275 258 222 351 l 689 808 q 514 868 617 868 q 301 768 379 868 q 222 494 222 668 m 514 121 q 727 221 649 121 q 806 494 806 321 q 753 731 806 638 l 340 181 q 514 121 411 121 z "},"Ù":{"ha":989,"x_min":114,"x_max":874,"o":"m 486 1253 l 600 1056 l 471 1056 l 288 1253 l 486 1253 m 874 989 l 874 374 q 776 81 874 182 q 494 -21 678 -21 q 213 81 311 -21 q 114 374 114 182 l 114 989 l 281 989 l 281 379 q 336 192 281 256 q 494 128 392 128 q 653 192 597 128 q 708 379 708 256 l 708 989 l 874 989 z "},"Ú":{"ha":989,"x_min":114,"x_max":874,"o":"m 518 1056 l 389 1056 l 501 1253 l 701 1253 l 518 1056 m 874 989 l 874 374 q 776 81 874 182 q 494 -21 678 -21 q 213 81 311 -21 q 114 374 114 182 l 114 989 l 281 989 l 281 379 q 336 192 281 256 q 494 128 392 128 q 653 192 597 128 q 708 379 708 256 l 708 989 l 874 989 z "},"Û":{"ha":989,"x_min":114,"x_max":874,"o":"m 408 1253 l 579 1253 l 738 1056 l 588 1056 l 493 1169 l 400 1056 l 250 1056 l 408 1253 m 874 989 l 874 374 q 776 81 874 182 q 494 -21 678 -21 q 213 81 311 -21 q 114 374 114 182 l 114 989 l 281 989 l 281 379 q 336 192 281 256 q 494 128 392 128 q 653 192 597 128 q 708 379 708 256 l 708 989 l 874 989 z "},"Ü":{"ha":989,"x_min":114,"x_max":874,"o":"m 422 1072 l 281 1072 l 281 1224 l 422 1224 l 422 1072 m 708 1072 l 567 1072 l 567 1224 l 708 1224 l 708 1072 m 874 989 l 874 374 q 776 81 874 182 q 494 -21 678 -21 q 213 81 311 -21 q 114 374 114 182 l 114 989 l 281 989 l 281 379 q 336 192 281 256 q 494 128 392 128 q 653 192 597 128 q 708 379 708 256 l 708 989 l 874 989 z "},"Ý":{"ha":869,"x_min":4,"x_max":864,"o":"m 458 1056 l 329 1056 l 442 1253 l 642 1253 l 458 1056 m 518 397 l 518 0 l 351 0 l 351 397 l 4 989 l 193 989 l 301 793 q 433 538 371 668 l 436 538 q 569 793 503 676 l 676 989 l 864 989 l 518 397 z "},"Þ":{"ha":869,"x_min":122,"x_max":833,"o":"m 289 818 l 479 818 q 742 735 650 818 q 833 508 833 651 q 742 283 833 365 q 479 200 650 200 l 289 200 l 289 0 l 122 0 l 122 989 l 289 989 l 289 818 m 289 678 l 289 340 l 460 340 q 663 508 663 340 q 460 678 663 678 l 289 678 z "},"ß":{"ha":786,"x_min":101,"x_max":736,"o":"m 400 1010 q 610 944 532 1010 q 689 768 689 878 q 525 553 689 606 l 525 550 q 681 463 626 531 q 736 286 736 396 q 649 71 736 149 q 419 -7 563 -7 q 349 0 383 -7 l 349 131 q 392 126 363 126 q 526 171 479 126 q 572 301 572 215 q 524 432 572 385 q 386 479 475 479 l 368 479 l 368 613 q 536 753 536 613 q 501 848 536 814 q 403 882 465 882 q 260 697 260 882 l 260 0 l 101 0 l 101 708 q 180 931 101 851 q 400 1010 258 1010 z "},"à":{"ha":749,"x_min":42,"x_max":674,"o":"m 349 989 l 463 789 l 333 789 l 150 989 l 349 989 m 365 726 q 581 657 507 726 q 656 450 656 588 l 656 186 q 674 0 656 72 l 531 0 q 521 99 521 43 l 518 99 q 281 -15 440 -15 q 107 44 172 -15 q 42 194 42 103 q 103 339 42 285 q 313 417 165 393 q 503 438 401 432 l 503 465 q 365 611 503 611 q 265 578 301 611 q 226 488 229 544 l 71 488 q 152 660 76 593 q 365 726 228 726 m 503 300 l 503 335 q 340 317 413 329 q 233 279 264 304 q 201 206 201 254 q 234 130 201 158 q 326 101 267 101 q 454 149 407 101 q 492 210 482 178 q 503 300 503 243 z "},"á":{"ha":749,"x_min":42,"x_max":674,"o":"m 381 789 l 251 789 l 364 989 l 564 989 l 381 789 m 365 726 q 581 657 507 726 q 656 450 656 588 l 656 186 q 674 0 656 72 l 531 0 q 521 99 521 43 l 518 99 q 281 -15 440 -15 q 107 44 172 -15 q 42 194 42 103 q 103 339 42 285 q 313 417 165 393 q 503 438 401 432 l 503 465 q 365 611 503 611 q 265 578 301 611 q 226 488 229 544 l 71 488 q 152 660 76 593 q 365 726 228 726 m 503 300 l 503 335 q 340 317 413 329 q 233 279 264 304 q 201 206 201 254 q 234 130 201 158 q 326 101 267 101 q 454 149 407 101 q 492 210 482 178 q 503 300 503 243 z "},"â":{"ha":749,"x_min":42,"x_max":674,"o":"m 450 789 l 357 906 l 263 789 l 113 789 l 271 989 l 442 989 l 600 789 l 450 789 m 365 726 q 581 657 507 726 q 656 450 656 588 l 656 186 q 674 0 656 72 l 531 0 q 521 99 521 43 l 518 99 q 281 -15 440 -15 q 107 44 172 -15 q 42 194 42 103 q 103 339 42 285 q 313 417 165 393 q 503 438 401 432 l 503 465 q 365 611 503 611 q 265 578 301 611 q 226 488 229 544 l 71 488 q 152 660 76 593 q 365 726 228 726 m 503 300 l 503 335 q 340 317 413 329 q 233 279 264 304 q 201 206 201 254 q 234 130 201 158 q 326 101 267 101 q 454 149 407 101 q 492 210 482 178 q 503 300 503 243 z "},"ã":{"ha":749,"x_min":42,"x_max":674,"o":"m 513 985 l 607 985 q 563 857 603 903 q 456 811 524 811 q 350 844 408 811 q 265 878 292 878 q 201 811 210 878 l 107 811 q 151 939 111 893 q 260 985 192 985 q 365 951 307 985 q 449 917 424 917 q 513 985 506 917 m 365 726 q 581 657 507 726 q 656 450 656 588 l 656 186 q 674 0 656 72 l 531 0 q 521 99 521 43 l 518 99 q 281 -15 440 -15 q 107 44 172 -15 q 42 194 42 103 q 103 339 42 285 q 313 417 165 393 q 503 438 401 432 l 503 465 q 365 611 503 611 q 265 578 301 611 q 226 488 229 544 l 71 488 q 152 660 76 593 q 365 726 228 726 m 503 300 l 503 335 q 340 317 413 329 q 233 279 264 304 q 201 206 201 254 q 234 130 201 158 q 326 101 267 101 q 454 149 407 101 q 492 210 482 178 q 503 300 503 243 z "},"ä":{"ha":749,"x_min":42,"x_max":674,"o":"m 285 838 l 143 838 l 143 989 l 285 989 l 285 838 m 571 838 l 429 838 l 429 989 l 571 989 l 571 838 m 365 726 q 581 657 507 726 q 656 450 656 588 l 656 186 q 674 0 656 72 l 531 0 q 521 99 521 43 l 518 99 q 281 -15 440 -15 q 107 44 172 -15 q 42 194 42 103 q 103 339 42 285 q 313 417 165 393 q 503 438 401 432 l 503 465 q 365 611 503 611 q 265 578 301 611 q 226 488 229 544 l 71 488 q 152 660 76 593 q 365 726 228 726 m 503 300 l 503 335 q 340 317 413 329 q 233 279 264 304 q 201 206 201 254 q 234 130 201 158 q 326 101 267 101 q 454 149 407 101 q 492 210 482 178 q 503 300 503 243 z "},"å":{"ha":749,"x_min":42,"x_max":674,"o":"m 255 1026 q 276 1047 255 1026 q 357 1068 297 1068 q 459 1026 417 1068 q 501 924 501 983 q 459 822 501 864 q 357 779 417 779 q 255 822 297 779 q 213 924 213 864 q 255 1026 213 983 m 412 978 q 400 990 412 978 q 357 1001 389 1001 q 302 978 325 1001 q 279 924 279 956 q 302 869 279 892 q 357 846 325 846 q 412 869 389 846 q 435 924 435 892 q 412 978 435 956 m 365 726 q 581 657 507 726 q 656 450 656 588 l 656 186 q 674 0 656 72 l 531 0 q 521 99 521 43 l 518 99 q 281 -15 440 -15 q 107 44 172 -15 q 42 194 42 103 q 103 339 42 285 q 313 417 165 393 q 503 438 401 432 l 503 465 q 365 611 503 611 q 265 578 301 611 q 226 488 229 544 l 71 488 q 152 660 76 593 q 365 726 228 726 m 503 300 l 503 335 q 340 317 413 329 q 233 279 264 304 q 201 206 201 254 q 234 130 201 158 q 326 101 267 101 q 454 149 407 101 q 492 210 482 178 q 503 300 503 243 z "},"æ":{"ha":1210,"x_min":42,"x_max":1157,"o":"m 833 96 q 936 128 896 96 q 986 213 976 160 l 1149 213 q 1047 46 1131 113 q 833 -21 963 -21 q 576 115 663 -21 q 304 -21 493 -21 q 113 40 185 -21 q 42 194 42 100 q 382 421 42 421 l 513 421 l 513 465 q 371 611 513 611 q 267 578 304 611 q 228 488 231 544 l 71 488 q 155 660 78 593 q 371 726 232 726 q 604 631 533 726 q 831 726 692 726 q 1028 662 946 726 q 1140 486 1111 597 q 1157 321 1157 419 l 658 321 q 709 151 661 207 q 833 96 757 96 m 947 561 q 924 585 947 561 q 831 610 901 610 q 715 561 760 610 q 660 421 669 513 l 999 421 q 947 561 993 513 m 513 321 l 400 321 q 246 292 290 321 q 201 206 201 264 q 235 126 201 156 q 329 96 269 96 q 461 146 414 96 q 501 208 490 175 q 513 300 513 242 l 513 321 z "},"ç":{"ha":761,"x_min":53,"x_max":714,"o":"m 396 104 q 501 150 460 104 q 547 268 542 196 l 714 268 q 631 72 704 150 q 440 -18 557 -6 l 397 -86 q 438 -81 410 -81 q 519 -108 486 -81 q 553 -183 553 -136 q 510 -274 553 -237 q 390 -310 468 -310 q 239 -269 311 -310 l 267 -214 q 376 -243 321 -243 q 450 -190 450 -243 q 431 -150 450 -165 q 379 -135 413 -135 q 335 -143 356 -135 l 308 -114 l 368 -19 q 138 90 222 -10 q 53 353 53 189 q 146 625 53 524 q 396 726 239 726 q 616 649 529 726 q 714 450 703 572 l 549 450 q 501 560 543 519 q 396 601 460 601 q 266 535 313 601 q 219 353 219 469 q 266 170 219 236 q 396 104 313 104 z "},"è":{"ha":781,"x_min":53,"x_max":728,"o":"m 367 789 l 183 989 l 382 989 l 496 789 l 367 789 m 394 96 q 503 128 461 96 q 557 213 546 160 l 719 213 q 613 46 699 113 q 394 -21 526 -21 q 144 83 235 -21 q 53 361 53 188 q 144 624 53 521 q 392 726 235 726 q 595 662 511 726 q 708 486 679 597 q 728 321 728 424 l 210 321 q 265 151 214 207 q 394 96 315 96 m 513 563 q 489 586 513 563 q 392 610 465 610 q 270 563 318 610 q 213 425 222 515 l 569 425 q 513 563 561 515 z "},"é":{"ha":781,"x_min":53,"x_max":728,"o":"m 413 789 l 283 789 l 396 989 l 596 989 l 413 789 m 394 96 q 503 128 461 96 q 557 213 546 160 l 719 213 q 613 46 699 113 q 394 -21 526 -21 q 144 83 235 -21 q 53 361 53 188 q 144 624 53 521 q 392 726 235 726 q 595 662 511 726 q 708 486 679 597 q 728 321 728 424 l 210 321 q 265 151 214 207 q 394 96 315 96 m 513 563 q 489 586 513 563 q 392 610 465 610 q 270 563 318 610 q 213 425 222 515 l 569 425 q 513 563 561 515 z "},"ê":{"ha":781,"x_min":53,"x_max":728,"o":"m 296 789 l 146 789 l 304 989 l 475 989 l 633 789 l 483 789 l 390 906 l 296 789 m 394 96 q 503 128 461 96 q 557 213 546 160 l 719 213 q 613 46 699 113 q 394 -21 526 -21 q 144 83 235 -21 q 53 361 53 188 q 144 624 53 521 q 392 726 235 726 q 595 662 511 726 q 708 486 679 597 q 728 321 728 424 l 210 321 q 265 151 214 207 q 394 96 315 96 m 513 563 q 489 586 513 563 q 392 610 465 610 q 270 563 318 610 q 213 425 222 515 l 569 425 q 513 563 561 515 z "},"ë":{"ha":781,"x_min":53,"x_max":728,"o":"m 317 838 l 175 838 l 175 989 l 317 989 l 317 838 m 603 838 l 461 838 l 461 989 l 603 989 l 603 838 m 394 96 q 503 128 461 96 q 557 213 546 160 l 719 213 q 613 46 699 113 q 394 -21 526 -21 q 144 83 235 -21 q 53 361 53 188 q 144 624 53 521 q 392 726 235 726 q 595 662 511 726 q 708 486 679 597 q 728 321 728 424 l 210 321 q 265 151 214 207 q 394 96 315 96 m 513 563 q 489 586 513 563 q 392 610 465 610 q 270 563 318 610 q 213 425 222 515 l 569 425 q 513 563 561 515 z "},"ì":{"ha":361,"x_min":-26,"x_max":286,"o":"m 172 989 l 286 789 l 157 789 l -26 989 l 172 989 m 260 0 l 101 0 l 101 706 l 260 706 l 260 0 z "},"í":{"ha":361,"x_min":75,"x_max":388,"o":"m 204 789 l 75 789 l 188 989 l 388 989 l 204 789 m 260 0 l 101 0 l 101 706 l 260 706 l 260 0 z "},"î":{"ha":361,"x_min":-43,"x_max":403,"o":"m 403 790 l 261 790 l 181 908 l 100 790 l -43 790 l 97 989 l 263 989 l 403 790 m 260 0 l 101 0 l 101 706 l 260 706 l 260 0 z "},"ï":{"ha":361,"x_min":-4,"x_max":365,"o":"m 138 838 l -4 838 l -4 989 l 138 989 l 138 838 m 365 838 l 222 838 l 222 989 l 365 989 l 365 838 m 260 0 l 101 0 l 101 706 l 260 706 l 260 0 z "},"ð":{"ha":803,"x_min":53,"x_max":750,"o":"m 617 735 q 750 358 750 557 q 656 82 750 185 q 403 -21 563 -21 q 147 77 242 -21 q 53 343 53 175 q 138 610 53 511 q 365 708 222 708 q 489 672 432 708 l 489 675 q 356 814 433 744 l 175 738 l 143 813 l 286 874 q 193 942 236 913 l 314 1010 q 422 931 364 978 l 596 1004 l 628 929 l 490 871 q 617 735 563 806 m 268 171 q 292 138 268 171 q 401 104 317 104 q 535 171 486 104 q 583 351 583 238 q 535 533 583 467 q 401 600 486 600 q 268 533 317 600 q 219 351 219 467 q 268 171 219 238 z "},"ñ":{"ha":817,"x_min":101,"x_max":722,"o":"m 568 985 l 663 985 q 619 857 658 903 q 511 811 579 811 q 406 844 464 811 q 321 878 347 878 q 257 811 265 878 l 163 811 q 207 939 167 893 q 315 985 247 985 q 421 951 363 985 q 504 917 479 917 q 568 985 561 917 m 465 722 q 655 649 588 722 q 722 432 722 575 l 722 0 l 564 0 l 564 418 q 421 594 564 594 q 305 542 350 594 q 260 392 260 489 l 260 0 l 101 0 l 101 706 l 251 706 l 251 614 l 254 614 q 465 722 329 722 z "},"ò":{"ha":801,"x_min":53,"x_max":749,"o":"m 393 989 l 507 789 l 378 789 l 194 989 l 393 989 m 147 626 q 194 676 147 626 q 401 726 242 726 q 655 626 561 726 q 749 353 749 525 q 655 80 749 181 q 401 -21 561 -21 q 147 80 242 -21 q 53 353 53 181 q 147 626 53 525 m 535 535 q 510 568 535 535 q 401 601 486 601 q 268 535 317 601 q 219 353 219 468 q 268 171 219 238 q 401 104 317 104 q 535 171 486 104 q 583 353 583 238 q 535 535 583 468 z "},"ó":{"ha":801,"x_min":53,"x_max":749,"o":"m 425 789 l 296 789 l 408 989 l 608 989 l 425 789 m 147 626 q 194 676 147 626 q 401 726 242 726 q 655 626 561 726 q 749 353 749 525 q 655 80 749 181 q 401 -21 561 -21 q 147 80 242 -21 q 53 353 53 181 q 147 626 53 525 m 535 535 q 510 568 535 535 q 401 601 486 601 q 268 535 317 601 q 219 353 219 468 q 268 171 219 238 q 401 104 317 104 q 535 171 486 104 q 583 353 583 238 q 535 535 583 468 z "},"ô":{"ha":801,"x_min":53,"x_max":749,"o":"m 494 789 l 401 906 l 307 789 l 157 789 l 315 989 l 486 989 l 644 789 l 494 789 m 147 626 q 194 676 147 626 q 401 726 242 726 q 655 626 561 726 q 749 353 749 525 q 655 80 749 181 q 401 -21 561 -21 q 147 80 242 -21 q 53 353 53 181 q 147 626 53 525 m 535 535 q 510 568 535 535 q 401 601 486 601 q 268 535 317 601 q 219 353 219 468 q 268 171 219 238 q 401 104 317 104 q 535 171 486 104 q 583 353 583 238 q 535 535 583 468 z "},"õ":{"ha":801,"x_min":53,"x_max":749,"o":"m 557 985 l 651 985 q 608 857 647 903 q 500 811 568 811 q 394 844 453 811 q 310 878 336 878 q 246 811 254 878 l 151 811 q 196 939 156 893 q 304 985 236 985 q 410 951 351 985 q 493 917 468 917 q 557 985 550 917 m 147 626 q 194 676 147 626 q 401 726 242 726 q 655 626 561 726 q 749 353 749 525 q 655 80 749 181 q 401 -21 561 -21 q 147 80 242 -21 q 53 353 53 181 q 147 626 53 525 m 535 535 q 510 568 535 535 q 401 601 486 601 q 268 535 317 601 q 219 353 219 468 q 268 171 219 238 q 401 104 317 104 q 535 171 486 104 q 583 353 583 238 q 535 535 583 468 z "},"ö":{"ha":801,"x_min":53,"x_max":749,"o":"m 328 838 l 186 838 l 186 989 l 328 989 l 328 838 m 614 838 l 472 838 l 472 989 l 614 989 l 614 838 m 147 626 q 194 676 147 626 q 401 726 242 726 q 655 626 561 726 q 749 353 749 525 q 655 80 749 181 q 401 -21 561 -21 q 147 80 242 -21 q 53 353 53 181 q 147 626 53 525 m 535 535 q 510 568 535 535 q 401 601 486 601 q 268 535 317 601 q 219 353 219 468 q 268 171 219 238 q 401 104 317 104 q 535 171 486 104 q 583 353 583 238 q 535 535 583 468 z "},"÷":{"ha":786,"x_min":93,"x_max":693,"o":"m 463 613 l 324 613 l 324 747 l 463 747 l 463 613 m 693 376 l 93 376 l 93 503 l 693 503 l 693 376 m 463 132 l 324 132 l 324 267 l 463 267 l 463 132 z "},"ø":{"ha":803,"x_min":53,"x_max":750,"o":"m 732 719 l 658 622 q 750 353 750 522 q 656 80 750 181 q 401 -21 561 -21 q 210 29 289 -21 l 139 -65 l 72 -15 l 146 82 q 53 353 53 182 q 147 626 53 525 q 401 726 242 726 q 594 676 513 726 l 665 771 l 732 719 m 401 607 q 263 538 314 607 q 211 353 211 469 q 239 207 211 267 l 513 568 q 401 607 465 607 m 401 99 q 540 167 489 99 q 592 353 592 235 q 564 499 592 432 l 290 136 q 401 99 336 99 z "},"ù":{"ha":817,"x_min":94,"x_max":715,"o":"m 400 989 l 514 789 l 385 789 l 201 989 l 400 989 m 351 -17 q 162 57 229 -17 q 94 274 94 131 l 94 706 l 253 706 l 253 288 q 396 111 253 111 q 512 164 467 111 q 557 314 557 217 l 557 706 l 715 706 l 715 0 l 565 0 l 565 92 l 563 92 q 351 -17 488 -17 z "},"ú":{"ha":817,"x_min":94,"x_max":715,"o":"m 432 789 l 303 789 l 415 989 l 615 989 l 432 789 m 351 -17 q 162 57 229 -17 q 94 274 94 131 l 94 706 l 253 706 l 253 288 q 396 111 253 111 q 512 164 467 111 q 557 314 557 217 l 557 706 l 715 706 l 715 0 l 565 0 l 565 92 l 563 92 q 351 -17 488 -17 z "},"û":{"ha":817,"x_min":94,"x_max":715,"o":"m 501 789 l 408 906 l 314 789 l 164 789 l 322 989 l 493 989 l 651 789 l 501 789 m 351 -17 q 162 57 229 -17 q 94 274 94 131 l 94 706 l 253 706 l 253 288 q 396 111 253 111 q 512 164 467 111 q 557 314 557 217 l 557 706 l 715 706 l 715 0 l 565 0 l 565 92 l 563 92 q 351 -17 488 -17 z "},"ü":{"ha":817,"x_min":94,"x_max":715,"o":"m 336 838 l 194 838 l 194 989 l 336 989 l 336 838 m 622 838 l 481 838 l 481 989 l 622 989 l 622 838 m 351 -17 q 162 57 229 -17 q 94 274 94 131 l 94 706 l 253 706 l 253 288 q 396 111 253 111 q 512 164 467 111 q 557 314 557 217 l 557 706 l 715 706 l 715 0 l 565 0 l 565 92 l 563 92 q 351 -17 488 -17 z "},"ý":{"ha":678,"x_min":-8,"x_max":686,"o":"m 363 789 l 233 789 l 346 989 l 546 989 l 363 789 m 686 706 l 414 -31 q 297 -214 364 -164 q 106 -264 229 -264 q 26 -254 63 -264 l 26 -125 q 93 -135 58 -135 q 191 -107 157 -135 q 250 -6 225 -79 l -8 706 l 161 706 l 338 181 l 340 181 l 522 706 l 686 706 z "},"þ":{"ha":815,"x_min":101,"x_max":763,"o":"m 260 614 l 263 614 q 348 694 293 665 q 468 724 403 724 q 683 623 603 724 q 763 353 763 522 q 683 83 763 183 q 469 -17 604 -17 q 348 12 403 -17 q 263 92 293 40 l 260 92 l 260 -257 l 101 -257 l 101 989 l 260 989 l 260 614 m 422 600 q 298 534 344 600 q 251 353 251 468 q 298 172 251 239 q 422 106 344 106 q 550 173 503 106 q 597 353 597 240 q 550 533 597 465 q 422 600 503 600 z "},"ÿ":{"ha":678,"x_min":-8,"x_max":686,"o":"m 267 838 l 125 838 l 125 989 l 267 989 l 267 838 m 553 838 l 411 838 l 411 989 l 553 989 l 553 838 m 686 706 l 414 -31 q 297 -214 364 -164 q 106 -264 229 -264 q 26 -254 63 -264 l 26 -125 q 93 -135 58 -135 q 191 -107 157 -135 q 250 -6 225 -79 l -8 706 l 161 706 l 338 181 l 340 181 l 522 706 l 686 706 z "},"Ā":{"ha":954,"x_min":6,"x_max":949,"o":"m 689 1088 l 265 1088 l 265 1196 l 689 1196 l 689 1088 m 682 268 l 272 268 l 181 0 l 6 0 l 365 989 l 589 989 l 949 0 l 774 0 l 682 268 m 632 413 l 606 490 q 478 883 522 738 l 475 883 q 349 490 401 642 l 322 413 l 632 413 z "},"ā":{"ha":749,"x_min":42,"x_max":674,"o":"m 568 843 l 144 843 l 144 951 l 568 951 l 568 843 m 365 726 q 581 657 507 726 q 656 450 656 588 l 656 186 q 674 0 656 72 l 531 0 q 521 99 521 43 l 518 99 q 281 -15 440 -15 q 107 44 172 -15 q 42 194 42 103 q 103 339 42 285 q 313 417 165 393 q 503 438 401 432 l 503 465 q 365 611 503 611 q 265 578 301 611 q 226 488 229 544 l 71 488 q 152 660 76 593 q 365 726 228 726 m 503 300 l 503 335 q 340 317 413 329 q 233 279 264 304 q 201 206 201 254 q 234 130 201 158 q 326 101 267 101 q 454 149 407 101 q 492 210 482 178 q 503 300 503 243 z "},"Ă":{"ha":954,"x_min":6,"x_max":949,"o":"m 476 1049 q 315 1102 375 1049 q 247 1253 254 1156 l 358 1253 q 476 1153 369 1153 q 594 1253 583 1153 l 707 1253 q 640 1102 700 1156 q 476 1049 579 1049 m 682 268 l 272 268 l 181 0 l 6 0 l 365 989 l 589 989 l 949 0 l 774 0 l 682 268 m 632 413 l 606 490 q 478 883 522 738 l 475 883 q 349 490 401 642 l 322 413 l 632 413 z "},"ă":{"ha":749,"x_min":42,"x_max":674,"o":"m 475 989 l 588 989 q 520 838 581 892 q 357 785 460 785 q 195 838 256 785 q 128 989 135 892 l 239 989 q 357 889 250 889 q 475 989 464 889 m 365 726 q 581 657 507 726 q 656 450 656 588 l 656 186 q 674 0 656 72 l 531 0 q 521 99 521 43 l 518 99 q 281 -15 440 -15 q 107 44 172 -15 q 42 194 42 103 q 103 339 42 285 q 313 417 165 393 q 503 438 401 432 l 503 465 q 365 611 503 611 q 265 578 301 611 q 226 488 229 544 l 71 488 q 152 660 76 593 q 365 726 228 726 m 503 300 l 503 335 q 340 317 413 329 q 233 279 264 304 q 201 206 201 254 q 234 130 201 158 q 326 101 267 101 q 454 149 407 101 q 492 210 482 178 q 503 300 503 243 z "},"Ą":{"ha":954,"x_min":6,"x_max":951,"o":"m 900 -178 q 951 -169 928 -178 l 951 -256 q 857 -271 914 -271 q 710 -156 710 -271 q 735 -76 710 -111 q 818 0 761 -42 l 774 0 l 682 268 l 272 268 l 181 0 l 6 0 l 365 989 l 589 989 l 949 0 l 947 0 q 847 -132 847 -71 q 900 -178 847 -178 m 632 413 l 606 490 q 478 883 522 738 l 475 883 q 349 490 401 642 l 322 413 l 632 413 z "},"ą":{"ha":749,"x_min":42,"x_max":678,"o":"m 626 -178 q 678 -169 656 -178 l 678 -256 q 583 -271 640 -271 q 436 -156 436 -271 q 462 -76 436 -111 q 544 0 488 -42 l 531 0 q 521 99 521 43 l 518 99 q 281 -15 440 -15 q 107 44 172 -15 q 42 194 42 103 q 103 339 42 285 q 313 417 165 393 q 503 438 401 432 l 503 465 q 365 611 503 611 q 265 578 301 611 q 226 488 229 544 l 71 488 q 152 660 76 593 q 365 726 228 726 q 581 657 507 726 q 656 450 656 588 l 656 186 q 674 0 656 72 q 574 -132 574 -71 q 626 -178 574 -178 m 503 300 l 503 335 q 340 317 413 329 q 233 279 264 304 q 201 206 201 254 q 234 130 201 158 q 326 101 267 101 q 454 149 407 101 q 492 210 482 178 q 503 300 503 243 z "},"Ć":{"ha":965,"x_min":56,"x_max":904,"o":"m 522 1056 l 393 1056 l 506 1253 l 706 1253 l 522 1056 m 499 1010 q 785 910 676 1010 q 900 650 893 810 l 732 650 q 659 805 721 749 q 499 861 597 861 q 300 763 372 861 q 228 494 228 665 q 299 226 228 324 q 494 128 371 128 q 656 185 593 128 q 733 343 719 242 l 904 343 q 781 76 889 172 q 494 -21 672 -21 q 173 117 290 -21 q 56 494 56 254 q 174 872 56 735 q 499 1010 293 1010 z "},"ć":{"ha":761,"x_min":53,"x_max":714,"o":"m 419 789 l 290 789 l 403 989 l 603 989 l 419 789 m 396 726 q 616 649 529 726 q 714 450 703 572 l 549 450 q 501 560 543 519 q 396 601 460 601 q 266 535 313 601 q 219 353 219 469 q 266 170 219 236 q 396 104 313 104 q 501 150 460 104 q 547 268 542 196 l 714 268 q 617 59 703 139 q 396 -21 531 -21 q 146 81 239 -21 q 53 353 53 182 q 146 625 53 524 q 396 726 239 726 z "},"Ĉ":{"ha":965,"x_min":56,"x_max":904,"o":"m 413 1253 l 583 1253 l 742 1056 l 592 1056 l 497 1169 l 404 1056 l 254 1056 l 413 1253 m 499 1010 q 785 910 676 1010 q 900 650 893 810 l 732 650 q 659 805 721 749 q 499 861 597 861 q 300 763 372 861 q 228 494 228 665 q 299 226 228 324 q 494 128 371 128 q 656 185 593 128 q 733 343 719 242 l 904 343 q 781 76 889 172 q 494 -21 672 -21 q 173 117 290 -21 q 56 494 56 254 q 174 872 56 735 q 499 1010 293 1010 z "},"ĉ":{"ha":761,"x_min":53,"x_max":714,"o":"m 490 789 l 397 906 l 303 789 l 153 789 l 311 989 l 482 989 l 640 789 l 490 789 m 396 726 q 616 649 529 726 q 714 450 703 572 l 549 450 q 501 560 543 519 q 396 601 460 601 q 266 535 313 601 q 219 353 219 469 q 266 170 219 236 q 396 104 313 104 q 501 150 460 104 q 547 268 542 196 l 714 268 q 617 59 703 139 q 396 -21 531 -21 q 146 81 239 -21 q 53 353 53 182 q 146 625 53 524 q 396 726 239 726 z "},"Ċ":{"ha":965,"x_min":56,"x_max":904,"o":"m 578 1068 l 419 1068 l 419 1219 l 578 1219 l 578 1068 m 499 1010 q 785 910 676 1010 q 900 650 893 810 l 732 650 q 659 805 721 749 q 499 861 597 861 q 300 763 372 861 q 228 494 228 665 q 299 226 228 324 q 494 128 371 128 q 656 185 593 128 q 733 343 719 242 l 904 343 q 781 76 889 172 q 494 -21 672 -21 q 173 117 290 -21 q 56 494 56 254 q 174 872 56 735 q 499 1010 293 1010 z "},"ċ":{"ha":761,"x_min":53,"x_max":714,"o":"m 475 838 l 317 838 l 317 989 l 475 989 l 475 838 m 396 726 q 616 649 529 726 q 714 450 703 572 l 549 450 q 501 560 543 519 q 396 601 460 601 q 266 535 313 601 q 219 353 219 469 q 266 170 219 236 q 396 104 313 104 q 501 150 460 104 q 547 268 542 196 l 714 268 q 617 59 703 139 q 396 -21 531 -21 q 146 81 239 -21 q 53 353 53 182 q 146 625 53 524 q 396 726 239 726 z "},"Č":{"ha":965,"x_min":56,"x_max":904,"o":"m 583 1056 l 413 1056 l 254 1253 l 404 1253 l 499 1139 l 592 1253 l 742 1253 l 583 1056 m 499 1010 q 785 910 676 1010 q 900 650 893 810 l 732 650 q 659 805 721 749 q 499 861 597 861 q 300 763 372 861 q 228 494 228 665 q 299 226 228 324 q 494 128 371 128 q 656 185 593 128 q 733 343 719 242 l 904 343 q 781 76 889 172 q 494 -21 672 -21 q 173 117 290 -21 q 56 494 56 254 q 174 872 56 735 q 499 1010 293 1010 z "},"č":{"ha":761,"x_min":53,"x_max":714,"o":"m 482 789 l 311 789 l 153 989 l 303 989 l 397 872 l 490 989 l 640 989 l 482 789 m 396 726 q 616 649 529 726 q 714 450 703 572 l 549 450 q 501 560 543 519 q 396 601 460 601 q 266 535 313 601 q 219 353 219 469 q 266 170 219 236 q 396 104 313 104 q 501 150 460 104 q 547 268 542 196 l 714 268 q 617 59 703 139 q 396 -21 531 -21 q 146 81 239 -21 q 53 353 53 182 q 146 625 53 524 q 396 726 239 726 z "},"Ď":{"ha":1013,"x_min":122,"x_max":957,"o":"m 546 1056 l 375 1056 l 217 1253 l 367 1253 l 461 1139 l 554 1253 l 704 1253 l 546 1056 m 122 989 l 439 989 q 822 860 688 989 q 957 494 957 732 q 822 128 957 257 q 439 0 688 0 l 122 0 l 122 989 m 288 844 l 288 144 l 436 144 q 785 494 785 144 q 436 844 785 844 l 288 844 z "},"ď":{"ha":815,"x_min":53,"x_max":928,"o":"m 714 0 l 560 0 l 560 97 l 557 97 q 470 13 526 43 q 347 -17 414 -17 q 133 84 213 -17 q 53 353 53 185 q 132 623 53 522 q 346 724 211 724 q 467 694 413 724 q 553 614 522 665 l 556 614 l 556 989 l 714 989 l 714 0 m 849 743 l 757 743 l 796 989 l 928 989 l 849 743 m 393 600 q 265 533 313 600 q 218 353 218 465 q 265 173 218 240 q 393 106 313 106 q 517 172 471 106 q 564 353 564 239 q 517 534 564 468 q 393 600 471 600 z "},"Đ":{"ha":1013,"x_min":33,"x_max":957,"o":"m 122 989 l 439 989 q 822 860 688 989 q 957 494 957 732 q 822 128 957 257 q 439 0 688 0 l 122 0 l 122 439 l 33 439 l 33 563 l 122 563 l 122 989 m 288 144 l 436 144 q 785 494 785 144 q 436 844 785 844 l 288 844 l 288 563 l 543 563 l 543 439 l 288 439 l 288 144 z "},"đ":{"ha":806,"x_min":53,"x_max":804,"o":"m 804 803 l 714 803 l 714 0 l 560 0 l 560 97 l 557 97 q 470 13 526 43 q 347 -17 414 -17 q 133 84 213 -17 q 53 353 53 185 q 132 623 53 522 q 346 724 211 724 q 467 694 413 724 q 553 614 522 665 l 556 614 l 556 803 l 381 803 l 381 892 l 556 892 l 556 989 l 714 989 l 714 892 l 804 892 l 804 803 m 393 106 q 517 172 471 106 q 564 353 564 239 q 517 534 564 468 q 393 600 471 600 q 265 533 313 600 q 218 353 218 465 q 265 173 218 240 q 393 106 313 106 z "},"Ē":{"ha":868,"x_min":122,"x_max":797,"o":"m 664 1088 l 240 1088 l 240 1196 l 664 1196 l 664 1088 m 783 844 l 289 844 l 289 576 l 753 576 l 753 433 l 289 433 l 289 144 l 797 144 l 797 0 l 122 0 l 122 989 l 783 989 l 783 844 z "},"ē":{"ha":781,"x_min":53,"x_max":728,"o":"m 601 843 l 178 843 l 178 951 l 601 951 l 601 843 m 394 96 q 503 128 461 96 q 557 213 546 160 l 719 213 q 613 46 699 113 q 394 -21 526 -21 q 144 83 235 -21 q 53 361 53 188 q 144 624 53 521 q 392 726 235 726 q 595 662 511 726 q 708 486 679 597 q 728 321 728 424 l 210 321 q 265 151 214 207 q 394 96 315 96 m 513 563 q 489 586 513 563 q 392 610 465 610 q 270 563 318 610 q 213 425 222 515 l 569 425 q 513 563 561 515 z "},"Ĕ":{"ha":868,"x_min":122,"x_max":797,"o":"m 571 1253 l 683 1253 q 616 1102 676 1156 q 453 1049 556 1049 q 291 1102 351 1049 q 224 1253 231 1156 l 335 1253 q 453 1153 346 1153 q 571 1253 560 1153 m 783 844 l 289 844 l 289 576 l 753 576 l 753 433 l 289 433 l 289 144 l 797 144 l 797 0 l 122 0 l 122 989 l 783 989 l 783 844 z "},"ĕ":{"ha":781,"x_min":53,"x_max":728,"o":"m 389 785 q 227 838 288 785 q 160 989 167 892 l 271 989 q 389 889 282 889 q 507 989 496 889 l 619 989 q 552 838 613 892 q 389 785 492 785 m 394 96 q 503 128 461 96 q 557 213 546 160 l 719 213 q 613 46 699 113 q 394 -21 526 -21 q 144 83 235 -21 q 53 361 53 188 q 144 624 53 521 q 392 726 235 726 q 595 662 511 726 q 708 486 679 597 q 728 321 728 424 l 210 321 q 265 151 214 207 q 394 96 315 96 m 513 563 q 489 586 513 563 q 392 610 465 610 q 270 563 318 610 q 213 425 222 515 l 569 425 q 513 563 561 515 z "},"Ė":{"ha":868,"x_min":122,"x_max":797,"o":"m 532 1068 l 374 1068 l 374 1219 l 532 1219 l 532 1068 m 783 844 l 289 844 l 289 576 l 753 576 l 753 433 l 289 433 l 289 144 l 797 144 l 797 0 l 122 0 l 122 989 l 783 989 l 783 844 z "},"ė":{"ha":781,"x_min":53,"x_max":728,"o":"m 468 838 l 310 838 l 310 989 l 468 989 l 468 838 m 394 96 q 503 128 461 96 q 557 213 546 160 l 719 213 q 613 46 699 113 q 394 -21 526 -21 q 144 83 235 -21 q 53 361 53 188 q 144 624 53 521 q 392 726 235 726 q 595 662 511 726 q 708 486 679 597 q 728 321 728 424 l 210 321 q 265 151 214 207 q 394 96 315 96 m 513 563 q 489 586 513 563 q 392 610 465 610 q 270 563 318 610 q 213 425 222 515 l 569 425 q 513 563 561 515 z "},"Ę":{"ha":868,"x_min":122,"x_max":801,"o":"m 750 -178 q 801 -169 778 -178 l 801 -256 q 707 -271 764 -271 q 560 -156 560 -271 q 585 -76 560 -111 q 668 0 611 -42 l 122 0 l 122 989 l 783 989 l 783 844 l 289 844 l 289 576 l 753 576 l 753 433 l 289 433 l 289 144 l 797 144 l 797 0 q 697 -132 697 -71 q 750 -178 697 -178 z "},"ę":{"ha":781,"x_min":53,"x_max":728,"o":"m 394 96 q 503 128 461 96 q 557 213 546 160 l 719 213 q 610 33 701 121 q 531 -53 553 -18 q 508 -126 508 -89 q 561 -178 508 -178 q 613 -169 589 -178 l 613 -256 q 518 -271 575 -271 q 371 -156 371 -271 q 446 -19 371 -82 l 446 -17 q 394 -21 424 -21 q 144 83 235 -21 q 53 361 53 188 q 144 624 53 521 q 392 726 235 726 q 595 662 511 726 q 708 486 679 597 q 728 321 728 424 l 210 321 q 265 151 214 207 q 394 96 315 96 m 513 563 q 489 586 513 563 q 392 610 465 610 q 270 563 318 610 q 213 425 222 515 l 569 425 q 513 563 561 515 z "},"Ě":{"ha":868,"x_min":122,"x_max":797,"o":"m 538 1056 l 367 1056 l 208 1253 l 358 1253 l 453 1139 l 546 1253 l 696 1253 l 538 1056 m 783 844 l 289 844 l 289 576 l 753 576 l 753 433 l 289 433 l 289 144 l 797 144 l 797 0 l 122 0 l 122 989 l 783 989 l 783 844 z "},"ě":{"ha":781,"x_min":53,"x_max":728,"o":"m 304 789 l 146 989 l 296 989 l 390 872 l 483 989 l 633 989 l 475 789 l 304 789 m 394 96 q 503 128 461 96 q 557 213 546 160 l 719 213 q 613 46 699 113 q 394 -21 526 -21 q 144 83 235 -21 q 53 361 53 188 q 144 624 53 521 q 392 726 235 726 q 595 662 511 726 q 708 486 679 597 q 728 321 728 424 l 210 321 q 265 151 214 207 q 394 96 315 96 m 513 563 q 489 586 513 563 q 392 610 465 610 q 270 563 318 610 q 213 425 222 515 l 569 425 q 513 563 561 515 z "},"Ĝ":{"ha":1024,"x_min":56,"x_max":917,"o":"m 418 1253 l 589 1253 l 747 1056 l 597 1056 l 503 1169 l 410 1056 l 260 1056 l 418 1253 m 514 1010 q 795 922 689 1010 q 917 686 901 835 l 739 686 q 666 816 724 771 q 514 861 608 861 q 305 762 382 861 q 228 490 228 663 q 303 217 228 317 q 507 117 378 117 q 690 186 624 117 q 758 396 757 256 l 506 396 l 506 535 l 914 535 l 914 0 l 771 0 l 771 122 l 768 122 q 649 19 728 57 q 469 -18 571 -18 q 167 118 279 -18 q 56 490 56 254 q 178 871 56 732 q 514 1010 301 1010 z "},"ĝ":{"ha":808,"x_min":53,"x_max":707,"o":"m 476 789 l 383 906 l 289 789 l 139 789 l 297 989 l 468 989 l 626 789 l 476 789 m 349 725 q 554 607 476 725 l 557 607 l 557 706 l 707 706 l 707 44 q 623 -190 707 -111 q 386 -268 539 -268 q 167 -209 246 -268 q 83 -44 89 -150 l 242 -44 q 283 -124 244 -96 q 389 -151 322 -151 q 512 -104 471 -151 q 553 50 553 -57 l 553 119 l 550 119 q 346 8 474 8 q 132 106 211 8 q 53 367 53 203 q 133 628 53 531 q 349 725 214 725 m 385 593 q 263 532 308 593 q 218 367 218 471 q 263 201 218 263 q 385 139 308 139 q 512 201 465 139 q 558 367 558 263 q 512 532 558 471 q 385 593 465 593 z "},"Ğ":{"ha":1024,"x_min":56,"x_max":917,"o":"m 622 1253 l 735 1253 q 667 1102 728 1156 q 504 1049 607 1049 q 342 1102 403 1049 q 275 1253 282 1156 l 386 1253 q 504 1153 397 1153 q 622 1253 611 1153 m 514 1010 q 795 922 689 1010 q 917 686 901 835 l 739 686 q 666 816 724 771 q 514 861 608 861 q 305 762 382 861 q 228 490 228 663 q 303 217 228 317 q 507 117 378 117 q 690 186 624 117 q 758 396 757 256 l 506 396 l 506 535 l 914 535 l 914 0 l 771 0 l 771 122 l 768 122 q 649 19 728 57 q 469 -18 571 -18 q 167 118 279 -18 q 56 490 56 254 q 178 871 56 732 q 514 1010 301 1010 z "},"ğ":{"ha":808,"x_min":53,"x_max":707,"o":"m 500 989 l 613 989 q 545 838 606 892 q 382 785 485 785 q 220 838 281 785 q 153 989 160 892 l 264 989 q 382 889 275 889 q 500 989 489 889 m 349 725 q 554 607 476 725 l 557 607 l 557 706 l 707 706 l 707 44 q 623 -190 707 -111 q 386 -268 539 -268 q 167 -209 246 -268 q 83 -44 89 -150 l 242 -44 q 283 -124 244 -96 q 389 -151 322 -151 q 512 -104 471 -151 q 553 50 553 -57 l 553 119 l 550 119 q 346 8 474 8 q 132 106 211 8 q 53 367 53 203 q 133 628 53 531 q 349 725 214 725 m 385 593 q 263 532 308 593 q 218 367 218 471 q 263 201 218 263 q 385 139 308 139 q 512 201 465 139 q 558 367 558 263 q 512 532 558 471 q 385 593 465 593 z "},"Ġ":{"ha":1024,"x_min":56,"x_max":917,"o":"m 583 1068 l 425 1068 l 425 1219 l 583 1219 l 583 1068 m 514 1010 q 795 922 689 1010 q 917 686 901 835 l 739 686 q 666 816 724 771 q 514 861 608 861 q 305 762 382 861 q 228 490 228 663 q 303 217 228 317 q 507 117 378 117 q 690 186 624 117 q 758 396 757 256 l 506 396 l 506 535 l 914 535 l 914 0 l 771 0 l 771 122 l 768 122 q 649 19 728 57 q 469 -18 571 -18 q 167 118 279 -18 q 56 490 56 254 q 178 871 56 732 q 514 1010 301 1010 z "},"ġ":{"ha":808,"x_min":53,"x_max":707,"o":"m 463 838 l 304 838 l 304 989 l 463 989 l 463 838 m 349 725 q 554 607 476 725 l 557 607 l 557 706 l 707 706 l 707 44 q 623 -190 707 -111 q 386 -268 539 -268 q 167 -209 246 -268 q 83 -44 89 -150 l 242 -44 q 283 -124 244 -96 q 389 -151 322 -151 q 512 -104 471 -151 q 553 50 553 -57 l 553 119 l 550 119 q 346 8 474 8 q 132 106 211 8 q 53 367 53 203 q 133 628 53 531 q 349 725 214 725 m 385 593 q 263 532 308 593 q 218 367 218 471 q 263 201 218 263 q 385 139 308 139 q 512 201 465 139 q 558 367 558 263 q 512 532 558 471 q 385 593 465 593 z "},"Ģ":{"ha":1024,"x_min":56,"x_max":917,"o":"m 514 1010 q 795 922 689 1010 q 917 686 901 835 l 739 686 q 666 816 724 771 q 514 861 608 861 q 305 762 382 861 q 228 490 228 663 q 303 217 228 317 q 507 117 378 117 q 690 186 624 117 q 758 396 757 256 l 506 396 l 506 535 l 914 535 l 914 0 l 771 0 l 771 122 l 768 122 q 649 19 728 57 q 469 -18 571 -18 q 167 118 279 -18 q 56 490 56 254 q 178 871 56 732 q 514 1010 301 1010 m 578 -219 l 492 -367 l 426 -367 l 485 -219 l 429 -219 l 429 -86 l 578 -86 l 578 -219 z "},"ģ":{"ha":808,"x_min":53,"x_max":707,"o":"m 400 939 l 454 939 l 454 806 l 307 806 l 307 939 l 393 1086 l 458 1086 l 400 939 m 349 725 q 554 607 476 725 l 557 607 l 557 706 l 707 706 l 707 44 q 623 -190 707 -111 q 386 -268 539 -268 q 167 -209 246 -268 q 83 -44 89 -150 l 242 -44 q 283 -124 244 -96 q 389 -151 322 -151 q 512 -104 471 -151 q 553 50 553 -57 l 553 119 l 550 119 q 346 8 474 8 q 132 106 211 8 q 53 367 53 203 q 133 628 53 531 q 349 725 214 725 m 385 593 q 263 532 308 593 q 218 367 218 471 q 263 201 218 263 q 385 139 308 139 q 512 201 465 139 q 558 367 558 263 q 512 532 558 471 q 385 593 465 593 z "},"Ĥ":{"ha":1033,"x_min":122,"x_max":910,"o":"m 431 1253 l 601 1253 l 760 1056 l 610 1056 l 515 1169 l 422 1056 l 272 1056 l 431 1253 m 910 0 l 744 0 l 744 442 l 289 442 l 289 0 l 122 0 l 122 989 l 289 989 l 289 586 l 744 586 l 744 989 l 910 989 l 910 0 z "},"ĥ":{"ha":817,"x_min":101,"x_max":722,"o":"m 322 1253 l 493 1253 l 651 1056 l 501 1056 l 407 1169 l 314 1056 l 164 1056 l 322 1253 m 260 622 l 263 622 q 465 722 336 722 q 655 649 588 722 q 722 432 722 575 l 722 0 l 564 0 l 564 418 q 421 594 564 594 q 305 542 350 594 q 260 392 260 489 l 260 0 l 101 0 l 101 989 l 260 989 l 260 622 z "},"Ħ":{"ha":1033,"x_min":44,"x_max":989,"o":"m 989 793 l 910 793 l 910 0 l 744 0 l 744 442 l 289 442 l 289 0 l 122 0 l 122 793 l 44 793 l 44 883 l 122 883 l 122 989 l 289 989 l 289 883 l 744 883 l 744 989 l 910 989 l 910 883 l 989 883 l 989 793 m 744 793 l 289 793 l 289 586 l 744 586 l 744 793 z "},"ħ":{"ha":817,"x_min":1,"x_max":722,"o":"m 465 722 q 655 649 588 722 q 722 432 722 575 l 722 0 l 564 0 l 564 418 q 421 594 564 594 q 305 542 350 594 q 260 392 260 489 l 260 0 l 101 0 l 101 803 l 1 803 l 1 883 l 101 883 l 101 989 l 260 989 l 260 883 l 425 883 l 425 803 l 260 803 l 260 622 l 263 622 q 465 722 336 722 z "},"Ĩ":{"ha":411,"x_min":-44,"x_max":456,"o":"m 361 1249 l 456 1249 q 412 1121 451 1167 q 304 1075 372 1075 q 199 1109 257 1075 q 114 1143 140 1143 q 50 1075 58 1143 l -44 1075 q 0 1203 -40 1157 q 108 1249 40 1249 q 214 1215 156 1249 q 297 1182 272 1182 q 361 1249 354 1182 m 289 0 l 122 0 l 122 989 l 289 989 l 289 0 z "},"ĩ":{"ha":361,"x_min":-39,"x_max":401,"o":"m 318 985 l 401 985 q 360 857 397 903 q 261 811 324 811 q 171 846 219 811 q 100 881 122 881 q 43 811 50 881 l -39 811 q 1 939 -35 893 q 100 985 36 985 q 190 950 142 985 q 261 915 239 915 q 318 985 311 915 m 260 0 l 101 0 l 101 706 l 260 706 l 260 0 z "},"Ī":{"ha":411,"x_min":-6,"x_max":418,"o":"m 418 1088 l -6 1088 l -6 1196 l 418 1196 l 418 1088 m 289 0 l 122 0 l 122 989 l 289 989 l 289 0 z "},"ī":{"ha":361,"x_min":-8,"x_max":368,"o":"m 368 847 l -8 847 l -8 956 l 368 956 l 368 847 m 260 0 l 101 0 l 101 706 l 260 706 l 260 0 z "},"Ĭ":{"ha":411,"x_min":-24,"x_max":436,"o":"m 324 1253 l 436 1253 q 369 1102 429 1156 q 206 1049 308 1049 q 44 1102 104 1049 q -24 1253 -17 1156 l 88 1253 q 206 1153 99 1153 q 324 1253 313 1153 m 289 0 l 122 0 l 122 989 l 289 989 l 289 0 z "},"ĭ":{"ha":361,"x_min":-26,"x_max":388,"o":"m 282 989 l 388 989 q 329 839 383 893 q 181 785 275 785 q 32 838 86 785 q -26 989 -22 892 l 78 989 q 108 912 82 939 q 181 885 135 885 q 253 912 226 885 q 282 989 279 939 m 260 0 l 101 0 l 101 706 l 260 706 l 260 0 z "},"Į":{"ha":411,"x_min":51,"x_max":293,"o":"m 242 -178 q 293 -169 269 -178 l 293 -256 q 199 -271 256 -271 q 51 -156 51 -271 q 77 -76 51 -111 q 160 0 103 -42 l 122 0 l 122 989 l 289 989 l 289 0 q 189 -132 189 -71 q 242 -178 189 -178 z "},"į":{"ha":361,"x_min":22,"x_max":264,"o":"m 260 838 l 101 838 l 101 989 l 260 989 l 260 838 m 213 -178 q 264 -169 242 -178 l 264 -256 q 169 -271 226 -271 q 22 -156 22 -271 q 48 -76 22 -111 q 131 0 74 -42 l 101 0 l 101 706 l 260 706 l 260 0 q 160 -132 160 -71 q 213 -178 160 -178 z "},"İ":{"ha":411,"x_min":122,"x_max":289,"o":"m 285 1068 l 126 1068 l 126 1219 l 285 1219 l 285 1068 m 289 0 l 122 0 l 122 989 l 289 989 l 289 0 z "},"ı":{"ha":361,"x_min":101,"x_max":260,"o":"m 260 0 l 101 0 l 101 706 l 260 706 l 260 0 z "},"Ĳ":{"ha":931,"x_min":122,"x_max":815,"o":"m 289 0 l 122 0 l 122 989 l 289 989 l 289 0 m 815 989 l 815 300 q 741 67 815 143 q 511 -8 667 -8 q 432 1 468 -8 l 432 144 q 494 139 461 139 q 612 181 575 139 q 649 329 649 222 l 649 989 l 815 989 z "},"ĳ":{"ha":728,"x_min":101,"x_max":626,"o":"m 260 838 l 101 838 l 101 989 l 260 989 l 260 838 m 626 838 l 468 838 l 468 989 l 626 989 l 626 838 m 260 0 l 101 0 l 101 706 l 260 706 l 260 0 m 626 706 l 626 -28 q 567 -207 626 -150 q 404 -264 508 -264 q 324 -254 367 -264 l 324 -136 q 363 -140 342 -140 q 442 -110 417 -140 q 468 -7 468 -81 l 468 706 l 626 706 z "},"Ĵ":{"ha":519,"x_min":21,"x_max":564,"o":"m 235 1253 l 406 1253 l 564 1056 l 414 1056 l 319 1169 l 226 1056 l 76 1056 l 235 1253 m 404 989 l 404 300 q 330 67 404 143 q 100 -8 256 -8 q 21 1 57 -8 l 21 144 q 83 139 50 139 q 201 181 164 139 q 238 329 238 222 l 238 989 l 404 989 z "},"ĵ":{"ha":367,"x_min":-37,"x_max":408,"o":"m 408 790 l 267 790 l 186 908 l 106 790 l -37 790 l 103 989 l 268 989 l 408 790 m 265 706 l 265 -28 q 206 -207 265 -150 q 43 -264 147 -264 q -37 -254 6 -264 l -37 -136 q 1 -140 -19 -140 q 81 -110 56 -140 q 107 -7 107 -81 l 107 706 l 265 706 z "},"Ķ":{"ha":894,"x_min":122,"x_max":889,"o":"m 449 518 l 889 0 l 674 0 l 292 476 l 289 476 l 289 0 l 122 0 l 122 989 l 289 989 l 289 549 l 292 549 l 653 989 l 853 989 l 449 518 m 532 -219 l 446 -367 l 381 -367 l 439 -219 l 383 -219 l 383 -86 l 532 -86 l 532 -219 z "},"ķ":{"ha":725,"x_min":101,"x_max":738,"o":"m 738 0 l 538 0 l 263 342 l 260 342 l 260 0 l 101 0 l 101 989 l 260 989 l 260 417 l 263 417 l 519 706 l 704 706 l 413 383 l 738 0 m 318 -86 l 467 -86 l 467 -219 l 381 -367 l 315 -367 l 374 -219 l 318 -219 l 318 -86 z "},"ĸ":{"ha":749,"x_min":101,"x_max":738,"o":"m 738 0 l 538 0 l 263 342 l 260 342 l 260 0 l 101 0 l 101 706 l 260 706 l 260 417 l 263 417 l 519 706 l 704 706 l 413 383 l 738 0 z "},"Ĺ":{"ha":789,"x_min":122,"x_max":775,"o":"m 272 1056 l 143 1056 l 256 1253 l 456 1253 l 272 1056 m 289 144 l 775 144 l 775 0 l 122 0 l 122 989 l 289 989 l 289 144 z "},"ĺ":{"ha":361,"x_min":99,"x_max":411,"o":"m 228 1072 l 99 1072 l 211 1272 l 411 1272 l 228 1072 m 260 0 l 101 0 l 101 989 l 260 989 l 260 0 z "},"Ļ":{"ha":789,"x_min":122,"x_max":775,"o":"m 289 144 l 775 144 l 775 0 l 122 0 l 122 989 l 289 989 l 289 144 m 524 -219 l 438 -367 l 372 -367 l 431 -219 l 375 -219 l 375 -86 l 524 -86 l 524 -219 z "},"ļ":{"ha":361,"x_min":101,"x_max":260,"o":"m 260 0 l 101 0 l 101 989 l 260 989 l 260 0 m 256 -219 l 169 -367 l 104 -367 l 163 -219 l 107 -219 l 107 -86 l 256 -86 l 256 -219 z "},"Ľ":{"ha":789,"x_min":122,"x_max":775,"o":"m 289 144 l 775 144 l 775 0 l 122 0 l 122 989 l 289 989 l 289 144 m 449 682 l 357 682 l 396 989 l 528 989 l 449 682 z "},"ľ":{"ha":361,"x_min":101,"x_max":475,"o":"m 260 0 l 101 0 l 101 989 l 260 989 l 260 0 m 396 743 l 304 743 l 343 989 l 475 989 l 396 743 z "},"Ŀ":{"ha":900,"x_min":122,"x_max":775,"o":"m 289 144 l 775 144 l 775 0 l 122 0 l 122 989 l 289 989 l 289 144 m 740 488 l 557 488 l 557 685 l 740 685 l 740 488 z "},"ŀ":{"ha":613,"x_min":101,"x_max":579,"o":"m 260 0 l 101 0 l 101 989 l 260 989 l 260 0 m 579 396 l 396 396 l 396 593 l 579 593 l 579 396 z "},"Ł":{"ha":789,"x_min":19,"x_max":775,"o":"m 775 144 l 775 0 l 122 0 l 122 406 l 19 344 l 19 486 l 122 547 l 122 989 l 289 989 l 289 635 l 488 754 l 488 611 l 289 492 l 289 144 l 775 144 z "},"ł":{"ha":429,"x_min":14,"x_max":415,"o":"m 415 574 l 293 501 l 293 0 l 135 0 l 135 426 l 14 354 l 14 489 l 135 561 l 135 989 l 293 989 l 293 636 l 415 708 l 415 574 z "},"Ń":{"ha":1064,"x_min":122,"x_max":940,"o":"m 556 1056 l 426 1056 l 539 1253 l 739 1253 l 556 1056 m 940 0 l 701 0 l 488 414 q 278 839 375 633 l 275 839 q 283 389 283 614 l 283 0 l 122 0 l 122 989 l 363 989 l 575 575 q 785 150 688 356 l 788 150 q 781 600 781 400 l 781 989 l 940 989 l 940 0 z "},"ń":{"ha":817,"x_min":101,"x_max":722,"o":"m 436 789 l 307 789 l 419 989 l 619 989 l 436 789 m 465 722 q 655 649 588 722 q 722 432 722 575 l 722 0 l 564 0 l 564 418 q 421 594 564 594 q 305 542 350 594 q 260 392 260 489 l 260 0 l 101 0 l 101 706 l 251 706 l 251 614 l 254 614 q 465 722 329 722 z "},"Ņ":{"ha":1064,"x_min":122,"x_max":940,"o":"m 940 0 l 701 0 l 488 414 q 278 839 375 633 l 275 839 q 283 389 283 614 l 283 0 l 122 0 l 122 989 l 363 989 l 575 575 q 785 150 688 356 l 788 150 q 781 600 781 400 l 781 989 l 940 989 l 940 0 m 607 -219 l 521 -367 l 456 -367 l 514 -219 l 458 -219 l 458 -86 l 607 -86 l 607 -219 z "},"ņ":{"ha":817,"x_min":101,"x_max":722,"o":"m 465 722 q 655 649 588 722 q 722 432 722 575 l 722 0 l 564 0 l 564 418 q 421 594 564 594 q 305 542 350 594 q 260 392 260 489 l 260 0 l 101 0 l 101 706 l 251 706 l 251 614 l 254 614 q 465 722 329 722 m 486 -219 l 400 -367 l 335 -367 l 393 -219 l 338 -219 l 338 -86 l 486 -86 l 486 -219 z "},"Ň":{"ha":1064,"x_min":122,"x_max":940,"o":"m 617 1056 l 446 1056 l 288 1253 l 438 1253 l 532 1139 l 625 1253 l 775 1253 l 617 1056 m 940 0 l 701 0 l 488 414 q 278 839 375 633 l 275 839 q 283 389 283 614 l 283 0 l 122 0 l 122 989 l 363 989 l 575 575 q 785 150 688 356 l 788 150 q 781 600 781 400 l 781 989 l 940 989 l 940 0 z "},"ň":{"ha":817,"x_min":101,"x_max":722,"o":"m 497 789 l 326 789 l 168 989 l 318 989 l 413 872 l 506 989 l 656 989 l 497 789 m 465 722 q 655 649 588 722 q 722 432 722 575 l 722 0 l 564 0 l 564 418 q 421 594 564 594 q 305 542 350 594 q 260 392 260 489 l 260 0 l 101 0 l 101 706 l 251 706 l 251 614 l 254 614 q 465 722 329 722 z "},"ŉ":{"ha":1003,"x_min":88,"x_max":908,"o":"m 250 815 l 174 621 l 88 621 l 144 815 l 90 815 l 90 989 l 250 989 l 250 815 m 651 722 q 841 649 774 722 q 908 432 908 575 l 908 0 l 750 0 l 750 418 q 607 594 750 594 q 491 542 536 594 q 446 392 446 489 l 446 0 l 288 0 l 288 706 l 438 706 l 438 614 l 440 614 q 651 722 515 722 z "},"Ŋ":{"ha":1035,"x_min":122,"x_max":913,"o":"m 913 989 l 913 -35 q 853 -210 913 -154 q 689 -267 793 -267 q 608 -257 653 -267 l 608 -139 q 650 -143 629 -143 q 728 -115 703 -143 q 753 -21 753 -87 l 753 0 l 483 450 q 276 813 379 622 l 274 813 q 283 417 283 628 l 283 0 l 122 0 l 122 989 l 338 989 l 551 631 q 758 267 678 417 l 761 267 q 751 663 751 451 l 751 989 l 913 989 z "},"ŋ":{"ha":817,"x_min":101,"x_max":722,"o":"m 469 722 q 650 654 586 722 q 722 414 722 582 l 722 -31 q 663 -206 722 -150 q 500 -262 604 -262 q 419 -253 454 -262 l 419 -135 q 458 -139 439 -139 q 538 -110 513 -139 q 564 -11 564 -82 l 564 400 q 524 557 564 513 q 422 596 489 596 q 306 543 351 596 q 260 392 260 490 l 260 0 l 101 0 l 101 706 l 253 706 l 253 614 l 256 614 q 469 722 328 722 z "},"Ō":{"ha":1028,"x_min":56,"x_max":972,"o":"m 725 1088 l 301 1088 l 301 1196 l 725 1196 l 725 1088 m 178 872 q 240 941 178 872 q 514 1010 301 1010 q 849 872 726 1010 q 972 494 972 733 q 849 117 972 256 q 514 -21 726 -21 q 178 117 301 -21 q 56 494 56 256 q 178 872 56 733 m 723 763 q 684 812 723 763 q 514 861 646 861 q 305 763 382 861 q 228 494 228 664 q 305 226 228 325 q 514 128 382 128 q 723 226 646 128 q 800 494 800 325 q 723 763 800 664 z "},"ō":{"ha":801,"x_min":53,"x_max":749,"o":"m 613 843 l 189 843 l 189 951 l 613 951 l 613 843 m 147 626 q 194 676 147 626 q 401 726 242 726 q 655 626 561 726 q 749 353 749 525 q 655 80 749 181 q 401 -21 561 -21 q 147 80 242 -21 q 53 353 53 181 q 147 626 53 525 m 535 535 q 510 568 535 535 q 401 601 486 601 q 268 535 317 601 q 219 353 219 468 q 268 171 219 238 q 401 104 317 104 q 535 171 486 104 q 583 353 583 238 q 535 535 583 468 z "},"Ŏ":{"ha":1028,"x_min":56,"x_max":972,"o":"m 632 1253 l 744 1253 q 677 1102 738 1156 q 514 1049 617 1049 q 352 1102 413 1049 q 285 1253 292 1156 l 396 1253 q 514 1153 407 1153 q 632 1253 621 1153 m 178 872 q 240 941 178 872 q 514 1010 301 1010 q 849 872 726 1010 q 972 494 972 733 q 849 117 972 256 q 514 -21 726 -21 q 178 117 301 -21 q 56 494 56 256 q 178 872 56 733 m 723 763 q 684 812 723 763 q 514 861 646 861 q 305 763 382 861 q 228 494 228 664 q 305 226 228 325 q 514 128 382 128 q 723 226 646 128 q 800 494 800 325 q 723 763 800 664 z "},"ŏ":{"ha":801,"x_min":53,"x_max":749,"o":"m 518 989 l 631 989 q 563 838 624 892 q 400 785 503 785 q 238 838 299 785 q 171 989 178 892 l 282 989 q 400 889 293 889 q 518 989 507 889 m 147 626 q 194 676 147 626 q 401 726 242 726 q 655 626 561 726 q 749 353 749 525 q 655 80 749 181 q 401 -21 561 -21 q 147 80 242 -21 q 53 353 53 181 q 147 626 53 525 m 535 535 q 510 568 535 535 q 401 601 486 601 q 268 535 317 601 q 219 353 219 468 q 268 171 219 238 q 401 104 317 104 q 535 171 486 104 q 583 353 583 238 q 535 535 583 468 z "},"Ő":{"ha":1028,"x_min":56,"x_max":972,"o":"m 406 1053 l 278 1053 l 418 1253 l 597 1253 l 406 1053 m 649 1053 l 521 1053 l 661 1253 l 840 1253 l 649 1053 m 178 872 q 240 941 178 872 q 514 1010 301 1010 q 849 872 726 1010 q 972 494 972 733 q 849 117 972 256 q 514 -21 726 -21 q 178 117 301 -21 q 56 494 56 256 q 178 872 56 733 m 723 763 q 684 812 723 763 q 514 861 646 861 q 305 763 382 861 q 228 494 228 664 q 305 226 228 325 q 514 128 382 128 q 723 226 646 128 q 800 494 800 325 q 723 763 800 664 z "},"ő":{"ha":801,"x_min":53,"x_max":749,"o":"m 313 789 l 185 789 l 325 989 l 504 989 l 313 789 m 556 789 l 428 789 l 568 989 l 747 989 l 556 789 m 147 626 q 194 676 147 626 q 401 726 242 726 q 655 626 561 726 q 749 353 749 525 q 655 80 749 181 q 401 -21 561 -21 q 147 80 242 -21 q 53 353 53 181 q 147 626 53 525 m 535 535 q 510 568 535 535 q 401 601 486 601 q 268 535 317 601 q 219 353 219 468 q 268 171 219 238 q 401 104 317 104 q 535 171 486 104 q 583 353 583 238 q 535 535 583 468 z "},"Œ":{"ha":1403,"x_min":56,"x_max":1331,"o":"m 1317 844 l 822 844 l 822 576 l 1286 576 l 1286 433 l 822 433 l 822 144 l 1331 144 l 1331 0 l 575 0 q 191 128 326 0 q 56 494 56 257 q 191 860 56 732 q 575 989 326 989 l 1317 989 l 1317 844 m 656 844 l 575 844 q 315 756 403 844 q 228 494 228 668 q 315 233 228 321 q 575 144 403 144 l 656 144 l 656 844 z "},"œ":{"ha":1268,"x_min":53,"x_max":1215,"o":"m 890 96 q 994 128 953 96 q 1044 213 1035 160 l 1206 213 q 1103 46 1188 113 q 890 -21 1019 -21 q 643 101 728 -21 q 394 -21 556 -21 q 145 80 238 -21 q 53 353 53 181 q 145 626 53 525 q 394 726 238 726 q 642 606 557 726 q 888 726 729 726 q 1085 662 1003 726 q 1197 486 1168 597 q 1215 321 1215 414 l 715 321 q 766 151 718 207 q 890 96 814 96 m 888 610 q 773 563 818 610 q 718 425 728 515 l 1057 425 q 1004 563 1050 515 q 888 610 958 610 m 267 171 q 290 138 267 171 q 394 104 314 104 q 522 172 475 104 q 569 353 569 239 q 522 534 569 467 q 394 601 475 601 q 267 535 314 601 q 219 353 219 468 q 267 171 219 238 z "},"Ŕ":{"ha":907,"x_min":122,"x_max":881,"o":"m 468 1056 l 339 1056 l 451 1253 l 651 1253 l 468 1056 m 122 989 l 463 989 q 815 715 815 989 q 766 557 815 622 q 632 471 717 492 l 632 468 q 715 411 685 450 q 779 279 746 372 l 881 0 l 699 0 l 615 249 q 547 365 586 333 q 432 397 507 397 l 289 397 l 289 0 l 122 0 l 122 989 m 289 851 l 289 533 l 454 533 q 601 577 554 533 q 647 699 649 621 q 444 851 647 851 l 289 851 z "},"ŕ":{"ha":524,"x_min":101,"x_max":511,"o":"m 313 789 l 183 789 l 296 989 l 496 989 l 313 789 m 453 715 q 511 708 481 715 l 511 568 q 456 574 485 574 q 310 515 361 574 q 260 346 260 456 l 260 0 l 101 0 l 101 706 l 249 706 l 249 601 l 251 601 q 453 715 322 715 z "},"Ŗ":{"ha":907,"x_min":122,"x_max":881,"o":"m 122 989 l 463 989 q 815 715 815 989 q 766 557 815 622 q 632 471 717 492 l 632 468 q 715 411 685 450 q 779 279 746 372 l 881 0 l 699 0 l 615 249 q 547 365 586 333 q 432 397 507 397 l 289 397 l 289 0 l 122 0 l 122 989 m 289 851 l 289 533 l 454 533 q 601 577 554 533 q 647 699 649 621 q 444 851 647 851 l 289 851 m 551 -219 l 465 -367 l 400 -367 l 458 -219 l 403 -219 l 403 -86 l 551 -86 l 551 -219 z "},"ŗ":{"ha":524,"x_min":101,"x_max":511,"o":"m 453 715 q 511 708 481 715 l 511 568 q 456 574 485 574 q 310 515 361 574 q 260 346 260 456 l 260 0 l 101 0 l 101 706 l 249 706 l 249 601 l 251 601 q 453 715 322 715 m 256 -219 l 169 -367 l 104 -367 l 163 -219 l 107 -219 l 107 -86 l 256 -86 l 256 -219 z "},"Ř":{"ha":907,"x_min":122,"x_max":881,"o":"m 529 1056 l 358 1056 l 200 1253 l 350 1253 l 444 1139 l 538 1253 l 688 1253 l 529 1056 m 122 989 l 463 989 q 815 715 815 989 q 766 557 815 622 q 632 471 717 492 l 632 468 q 715 411 685 450 q 779 279 746 372 l 881 0 l 699 0 l 615 249 q 547 365 586 333 q 432 397 507 397 l 289 397 l 289 0 l 122 0 l 122 989 m 289 851 l 289 533 l 454 533 q 601 577 554 533 q 647 699 649 621 q 444 851 647 851 l 289 851 z "},"ř":{"ha":524,"x_min":44,"x_max":532,"o":"m 374 789 l 203 789 l 44 989 l 194 989 l 289 872 l 382 989 l 532 989 l 374 789 m 453 715 q 511 708 481 715 l 511 568 q 456 574 485 574 q 310 515 361 574 q 260 346 260 456 l 260 0 l 101 0 l 101 706 l 249 706 l 249 601 l 251 601 q 453 715 322 715 z "},"Ś":{"ha":861,"x_min":47,"x_max":801,"o":"m 433 1056 l 304 1056 l 417 1253 l 617 1253 l 433 1056 m 410 1010 q 681 927 589 1010 q 774 685 774 844 l 606 685 q 554 826 606 778 q 407 874 503 874 q 280 838 326 874 q 233 742 233 803 q 282 647 233 678 q 460 585 331 617 q 568 556 526 568 q 659 519 610 543 q 736 465 708 494 q 783 390 764 436 q 801 282 801 343 q 700 62 801 144 q 432 -21 599 -21 q 149 69 250 -21 q 47 326 47 158 l 218 326 q 433 117 218 117 q 577 157 525 117 q 629 267 629 197 q 582 365 629 336 q 406 426 535 394 q 297 456 336 444 q 206 492 257 468 q 128 545 154 517 q 82 620 101 574 q 63 726 63 667 q 158 931 63 853 q 410 1010 253 1010 z "},"ś":{"ha":707,"x_min":51,"x_max":653,"o":"m 368 789 l 239 789 l 351 989 l 551 989 l 368 789 m 344 726 q 555 665 481 726 q 631 486 629 603 l 478 486 q 343 611 478 611 q 257 589 288 611 q 226 528 226 567 q 258 468 226 486 q 386 426 290 450 q 435 414 425 417 q 481 401 446 411 q 528 383 517 390 q 567 361 540 375 q 603 333 593 347 q 628 297 614 318 q 648 251 643 276 q 653 194 653 225 q 572 38 653 97 q 357 -21 492 -21 q 133 44 213 -21 q 51 232 53 108 l 213 232 q 251 132 213 167 q 360 97 289 97 q 453 121 419 97 q 488 185 488 144 q 451 255 488 235 q 310 301 415 275 q 258 315 271 311 q 211 328 244 318 q 164 348 178 339 q 127 374 150 357 q 94 409 104 390 q 76 455 85 428 q 68 515 68 482 q 144 668 68 610 q 344 726 221 726 z "},"Ŝ":{"ha":861,"x_min":47,"x_max":801,"o":"m 324 1253 l 494 1253 l 653 1056 l 503 1056 l 408 1169 l 315 1056 l 165 1056 l 324 1253 m 410 1010 q 681 927 589 1010 q 774 685 774 844 l 606 685 q 554 826 606 778 q 407 874 503 874 q 280 838 326 874 q 233 742 233 803 q 282 647 233 678 q 460 585 331 617 q 568 556 526 568 q 659 519 610 543 q 736 465 708 494 q 783 390 764 436 q 801 282 801 343 q 700 62 801 144 q 432 -21 599 -21 q 149 69 250 -21 q 47 326 47 158 l 218 326 q 433 117 218 117 q 577 157 525 117 q 629 267 629 197 q 582 365 629 336 q 406 426 535 394 q 297 456 336 444 q 206 492 257 468 q 128 545 154 517 q 82 620 101 574 q 63 726 63 667 q 158 931 63 853 q 410 1010 253 1010 z "},"ŝ":{"ha":707,"x_min":51,"x_max":653,"o":"m 438 789 l 344 906 l 250 789 l 100 789 l 258 989 l 429 989 l 588 789 l 438 789 m 344 726 q 555 665 481 726 q 631 486 629 603 l 478 486 q 343 611 478 611 q 257 589 288 611 q 226 528 226 567 q 258 468 226 486 q 386 426 290 450 q 435 414 425 417 q 481 401 446 411 q 528 383 517 390 q 567 361 540 375 q 603 333 593 347 q 628 297 614 318 q 648 251 643 276 q 653 194 653 225 q 572 38 653 97 q 357 -21 492 -21 q 133 44 213 -21 q 51 232 53 108 l 213 232 q 251 132 213 167 q 360 97 289 97 q 453 121 419 97 q 488 185 488 144 q 451 255 488 235 q 310 301 415 275 q 258 315 271 311 q 211 328 244 318 q 164 348 178 339 q 127 374 150 357 q 94 409 104 390 q 76 455 85 428 q 68 515 68 482 q 144 668 68 610 q 344 726 221 726 z "},"Ş":{"ha":861,"x_min":47,"x_max":801,"o":"m 801 282 q 710 71 801 153 q 467 -19 619 -11 l 425 -86 q 465 -81 438 -81 q 547 -108 514 -81 q 581 -183 581 -136 q 538 -274 581 -237 q 418 -310 496 -310 q 267 -269 339 -310 l 294 -214 q 404 -243 349 -243 q 478 -190 478 -243 q 459 -150 478 -165 q 407 -135 440 -135 q 363 -143 383 -135 l 336 -114 l 396 -19 q 139 78 231 -11 q 47 326 47 167 l 218 326 q 433 117 218 117 q 577 157 525 117 q 629 267 629 197 q 582 365 629 336 q 406 426 535 394 q 297 456 336 444 q 206 492 257 468 q 128 545 154 517 q 82 620 101 574 q 63 726 63 667 q 158 931 63 853 q 410 1010 253 1010 q 681 927 589 1010 q 774 685 774 844 l 606 685 q 554 826 606 778 q 407 874 503 874 q 280 838 326 874 q 233 742 233 803 q 282 647 233 678 q 460 585 331 617 q 568 556 526 568 q 659 519 610 543 q 736 465 708 494 q 783 390 764 436 q 801 282 801 343 z "},"ş":{"ha":707,"x_min":51,"x_max":653,"o":"m 653 194 q 585 48 653 106 q 399 -19 517 -10 l 357 -86 q 397 -81 369 -81 q 479 -108 446 -81 q 513 -183 513 -136 q 470 -274 513 -237 q 350 -310 428 -310 q 199 -269 271 -310 l 226 -214 q 336 -243 281 -243 q 410 -190 410 -243 q 391 -150 410 -165 q 339 -135 372 -135 q 294 -143 315 -135 l 268 -114 l 328 -19 q 124 51 196 -12 q 51 232 53 114 l 213 232 q 251 132 213 167 q 360 97 289 97 q 453 121 419 97 q 488 185 488 144 q 451 255 488 235 q 310 301 415 275 q 258 315 271 311 q 211 328 244 318 q 164 348 178 339 q 127 374 150 357 q 94 409 104 390 q 76 455 85 428 q 68 515 68 482 q 144 668 68 610 q 344 726 221 726 q 555 665 481 726 q 631 486 629 603 l 478 486 q 343 611 478 611 q 257 589 288 611 q 226 528 226 567 q 258 468 226 486 q 386 426 290 450 q 435 414 425 417 q 481 401 446 411 q 528 383 517 390 q 567 361 540 375 q 603 333 593 347 q 628 297 614 318 q 648 251 643 276 q 653 194 653 225 z "},"Š":{"ha":861,"x_min":47,"x_max":801,"o":"m 494 1056 l 324 1056 l 165 1253 l 315 1253 l 410 1139 l 503 1253 l 653 1253 l 494 1056 m 410 1010 q 681 927 589 1010 q 774 685 774 844 l 606 685 q 554 826 606 778 q 407 874 503 874 q 280 838 326 874 q 233 742 233 803 q 282 647 233 678 q 460 585 331 617 q 568 556 526 568 q 659 519 610 543 q 736 465 708 494 q 783 390 764 436 q 801 282 801 343 q 700 62 801 144 q 432 -21 599 -21 q 149 69 250 -21 q 47 326 47 158 l 218 326 q 433 117 218 117 q 577 157 525 117 q 629 267 629 197 q 582 365 629 336 q 406 426 535 394 q 297 456 336 444 q 206 492 257 468 q 128 545 154 517 q 82 620 101 574 q 63 726 63 667 q 158 931 63 853 q 410 1010 253 1010 z "},"š":{"ha":707,"x_min":51,"x_max":653,"o":"m 429 789 l 258 789 l 100 989 l 250 989 l 344 872 l 438 989 l 588 989 l 429 789 m 344 726 q 555 665 481 726 q 631 486 629 603 l 478 486 q 343 611 478 611 q 257 589 288 611 q 226 528 226 567 q 258 468 226 486 q 386 426 290 450 q 435 414 425 417 q 481 401 446 411 q 528 383 517 390 q 567 361 540 375 q 603 333 593 347 q 628 297 614 318 q 648 251 643 276 q 653 194 653 225 q 572 38 653 97 q 357 -21 492 -21 q 133 44 213 -21 q 51 232 53 108 l 213 232 q 251 132 213 167 q 360 97 289 97 q 453 121 419 97 q 488 185 488 144 q 451 255 488 235 q 310 301 415 275 q 258 315 271 311 q 211 328 244 318 q 164 348 178 339 q 127 374 150 357 q 94 409 104 390 q 76 455 85 428 q 68 515 68 482 q 144 668 68 610 q 344 726 221 726 z "},"Ţ":{"ha":843,"x_min":14,"x_max":829,"o":"m 829 844 l 504 844 l 504 0 l 339 0 l 339 844 l 14 844 l 14 989 l 829 989 l 829 844 m 497 -219 l 411 -367 l 346 -367 l 404 -219 l 349 -219 l 349 -86 l 497 -86 l 497 -219 z "},"ţ":{"ha":471,"x_min":13,"x_max":433,"o":"m 385 121 q 433 128 415 121 l 433 4 q 344 -8 390 -8 q 181 42 232 -8 q 131 208 131 93 l 131 585 l 13 585 l 13 706 l 131 706 l 131 882 l 289 882 l 289 706 l 426 706 l 426 585 l 289 585 l 289 232 q 311 147 289 172 q 385 121 333 121 m 189 -86 l 338 -86 l 338 -219 l 251 -367 l 186 -367 l 244 -219 l 189 -219 l 189 -86 z "},"Ť":{"ha":843,"x_min":14,"x_max":829,"o":"m 507 1056 l 336 1056 l 178 1253 l 328 1253 l 422 1139 l 515 1253 l 665 1253 l 507 1056 m 829 844 l 504 844 l 504 0 l 339 0 l 339 844 l 14 844 l 14 989 l 829 989 l 829 844 z "},"ť":{"ha":471,"x_min":13,"x_max":504,"o":"m 425 743 l 333 743 l 372 989 l 504 989 l 425 743 m 289 585 l 289 232 q 311 147 289 172 q 385 121 333 121 q 433 128 415 121 l 433 4 q 344 -8 390 -8 q 181 42 232 -8 q 131 208 131 93 l 131 585 l 13 585 l 13 706 l 131 706 l 131 882 l 289 882 l 289 706 l 426 706 l 426 585 l 289 585 z "},"Ŧ":{"ha":843,"x_min":14,"x_max":829,"o":"m 504 844 l 504 561 l 697 561 l 697 439 l 504 439 l 504 0 l 339 0 l 339 439 l 147 439 l 147 561 l 339 561 l 339 844 l 14 844 l 14 989 l 829 989 l 829 844 l 504 844 z "},"ŧ":{"ha":468,"x_min":13,"x_max":433,"o":"m 385 121 q 433 128 415 121 l 433 4 q 344 -8 390 -8 q 182 42 232 -8 q 132 208 132 93 l 132 325 l 17 325 l 17 424 l 132 424 l 132 585 l 13 585 l 13 706 l 132 706 l 132 882 l 289 882 l 289 706 l 426 706 l 426 585 l 289 585 l 289 424 l 422 424 l 422 325 l 289 325 l 289 232 q 311 147 289 172 q 385 121 333 121 z "},"Ũ":{"ha":989,"x_min":114,"x_max":874,"o":"m 650 1249 l 744 1249 q 701 1121 740 1167 q 593 1075 661 1075 q 488 1109 546 1075 q 403 1143 429 1143 q 339 1075 347 1143 l 244 1075 q 289 1203 249 1157 q 397 1249 329 1249 q 503 1215 444 1249 q 586 1182 561 1182 q 650 1249 644 1182 m 874 989 l 874 374 q 776 81 874 182 q 494 -21 678 -21 q 213 81 311 -21 q 114 374 114 182 l 114 989 l 281 989 l 281 379 q 336 192 281 256 q 494 128 392 128 q 653 192 597 128 q 708 379 708 256 l 708 989 l 874 989 z "},"ũ":{"ha":817,"x_min":94,"x_max":715,"o":"m 564 985 l 658 985 q 615 857 654 903 q 507 811 575 811 q 401 844 460 811 q 317 878 343 878 q 253 811 261 878 l 158 811 q 203 939 163 893 q 311 985 243 985 q 417 951 358 985 q 500 917 475 917 q 564 985 557 917 m 351 -17 q 162 57 229 -17 q 94 274 94 131 l 94 706 l 253 706 l 253 288 q 396 111 253 111 q 512 164 467 111 q 557 314 557 217 l 557 706 l 715 706 l 715 0 l 565 0 l 565 92 l 563 92 q 351 -17 488 -17 z "},"Ū":{"ha":989,"x_min":114,"x_max":874,"o":"m 706 1088 l 282 1088 l 282 1196 l 706 1196 l 706 1088 m 874 989 l 874 374 q 776 81 874 182 q 494 -21 678 -21 q 213 81 311 -21 q 114 374 114 182 l 114 989 l 281 989 l 281 379 q 336 192 281 256 q 494 128 392 128 q 653 192 597 128 q 708 379 708 256 l 708 989 l 874 989 z "},"ū":{"ha":817,"x_min":94,"x_max":715,"o":"m 619 843 l 196 843 l 196 951 l 619 951 l 619 843 m 351 -17 q 162 57 229 -17 q 94 274 94 131 l 94 706 l 253 706 l 253 288 q 396 111 253 111 q 512 164 467 111 q 557 314 557 217 l 557 706 l 715 706 l 715 0 l 565 0 l 565 92 l 563 92 q 351 -17 488 -17 z "},"Ŭ":{"ha":989,"x_min":114,"x_max":874,"o":"m 613 1253 l 725 1253 q 658 1102 718 1156 q 494 1049 597 1049 q 333 1102 393 1049 q 265 1253 272 1156 l 376 1253 q 494 1153 388 1153 q 613 1253 601 1153 m 874 989 l 874 374 q 776 81 874 182 q 494 -21 678 -21 q 213 81 311 -21 q 114 374 114 182 l 114 989 l 281 989 l 281 379 q 336 192 281 256 q 494 128 392 128 q 653 192 597 128 q 708 379 708 256 l 708 989 l 874 989 z "},"ŭ":{"ha":817,"x_min":94,"x_max":715,"o":"m 526 989 l 639 989 q 572 838 632 892 q 408 785 511 785 q 247 838 307 785 q 179 989 186 892 l 290 989 q 408 889 301 889 q 526 989 515 889 m 351 -17 q 162 57 229 -17 q 94 274 94 131 l 94 706 l 253 706 l 253 288 q 396 111 253 111 q 512 164 467 111 q 557 314 557 217 l 557 706 l 715 706 l 715 0 l 565 0 l 565 92 l 563 92 q 351 -17 488 -17 z "},"Ů":{"ha":989,"x_min":114,"x_max":874,"o":"m 392 1290 q 413 1311 392 1290 q 494 1332 433 1332 q 597 1290 556 1332 q 639 1188 639 1247 q 597 1085 639 1128 q 494 1043 556 1043 q 392 1085 433 1043 q 350 1188 350 1128 q 392 1290 350 1247 m 549 1242 q 538 1254 549 1242 q 494 1265 526 1265 q 440 1242 463 1265 q 417 1188 417 1219 q 440 1133 417 1156 q 494 1110 463 1110 q 549 1133 526 1110 q 572 1188 572 1156 q 549 1242 572 1219 m 874 989 l 874 374 q 776 81 874 182 q 494 -21 678 -21 q 213 81 311 -21 q 114 374 114 182 l 114 989 l 281 989 l 281 379 q 336 192 281 256 q 494 128 392 128 q 653 192 597 128 q 708 379 708 256 l 708 989 l 874 989 z "},"ů":{"ha":817,"x_min":94,"x_max":715,"o":"m 306 1026 q 326 1047 306 1026 q 408 1068 347 1068 q 511 1026 469 1068 q 553 924 553 983 q 511 822 553 864 q 408 779 469 779 q 306 822 347 779 q 264 924 264 864 q 306 1026 264 983 m 463 978 q 452 990 463 978 q 408 1001 440 1001 q 353 978 376 1001 q 331 924 331 956 q 353 869 331 892 q 408 846 376 846 q 463 869 440 846 q 486 924 486 892 q 463 978 486 956 m 351 -17 q 162 57 229 -17 q 94 274 94 131 l 94 706 l 253 706 l 253 288 q 396 111 253 111 q 512 164 467 111 q 557 314 557 217 l 557 706 l 715 706 l 715 0 l 565 0 l 565 92 l 563 92 q 351 -17 488 -17 z "},"Ű":{"ha":989,"x_min":114,"x_max":874,"o":"m 386 1053 l 258 1053 l 399 1253 l 578 1253 l 386 1053 m 629 1053 l 501 1053 l 642 1253 l 821 1253 l 629 1053 m 874 989 l 874 374 q 776 81 874 182 q 494 -21 678 -21 q 213 81 311 -21 q 114 374 114 182 l 114 989 l 281 989 l 281 379 q 336 192 281 256 q 494 128 392 128 q 653 192 597 128 q 708 379 708 256 l 708 989 l 874 989 z "},"ű":{"ha":817,"x_min":94,"x_max":754,"o":"m 319 789 l 192 789 l 332 989 l 511 989 l 319 789 m 563 789 l 435 789 l 575 989 l 754 989 l 563 789 m 351 -17 q 162 57 229 -17 q 94 274 94 131 l 94 706 l 253 706 l 253 288 q 396 111 253 111 q 512 164 467 111 q 557 314 557 217 l 557 706 l 715 706 l 715 0 l 565 0 l 565 92 l 563 92 q 351 -17 488 -17 z "},"Ų":{"ha":989,"x_min":114,"x_max":874,"o":"m 874 989 l 874 374 q 715 18 874 144 q 617 -122 617 -57 q 669 -178 617 -178 q 721 -169 697 -178 l 721 -256 q 626 -271 683 -271 q 479 -150 479 -271 q 498 -81 479 -111 q 558 -17 517 -50 l 558 -14 q 494 -21 526 -21 q 213 81 311 -21 q 114 374 114 182 l 114 989 l 281 989 l 281 379 q 336 192 281 256 q 494 128 392 128 q 653 192 597 128 q 708 379 708 256 l 708 989 l 874 989 z "},"ų":{"ha":817,"x_min":94,"x_max":718,"o":"m 667 -178 q 718 -169 694 -178 l 718 -256 q 624 -271 681 -271 q 476 -156 476 -271 q 502 -76 476 -111 q 585 0 528 -42 l 565 0 l 565 92 l 563 92 q 351 -17 488 -17 q 162 57 229 -17 q 94 274 94 131 l 94 706 l 253 706 l 253 288 q 396 111 253 111 q 512 164 467 111 q 557 314 557 217 l 557 706 l 715 706 l 715 0 l 714 0 q 614 -132 614 -71 q 667 -178 614 -178 z "},"Ŵ":{"ha":1300,"x_min":14,"x_max":1286,"o":"m 563 1253 l 733 1253 l 892 1056 l 742 1056 l 647 1169 l 554 1056 l 404 1056 l 563 1253 m 1068 0 l 844 0 l 746 411 q 651 846 690 644 l 649 846 q 554 411 610 644 l 456 0 l 232 0 l 14 989 l 178 989 l 258 608 q 346 163 313 358 l 349 163 q 449 610 400 407 l 540 989 l 760 989 l 851 610 q 951 163 900 407 l 954 163 q 1040 608 983 333 l 1122 989 l 1286 989 l 1068 0 z "},"ŵ":{"ha":1097,"x_min":8,"x_max":1089,"o":"m 642 789 l 549 906 l 454 789 l 304 789 l 463 989 l 633 989 l 792 789 l 642 789 m 917 0 l 690 0 l 618 292 q 550 596 585 426 l 547 596 q 479 292 513 426 l 407 0 l 181 0 l 8 706 l 167 706 l 231 422 q 294 110 269 256 l 297 110 q 367 417 324 239 l 438 706 l 660 706 l 731 417 q 800 110 774 239 l 803 110 q 867 422 828 256 l 931 706 l 1089 706 l 917 0 z "},"Ŷ":{"ha":869,"x_min":4,"x_max":864,"o":"m 349 1253 l 519 1253 l 678 1056 l 528 1056 l 433 1169 l 340 1056 l 190 1056 l 349 1253 m 518 397 l 518 0 l 351 0 l 351 397 l 4 989 l 193 989 l 301 793 q 433 538 371 668 l 436 538 q 569 793 503 676 l 676 989 l 864 989 l 518 397 z "},"ŷ":{"ha":678,"x_min":-8,"x_max":686,"o":"m 432 789 l 339 906 l 244 789 l 94 789 l 253 989 l 424 989 l 582 789 l 432 789 m 686 706 l 414 -31 q 297 -214 364 -164 q 106 -264 229 -264 q 26 -254 63 -264 l 26 -125 q 93 -135 58 -135 q 191 -107 157 -135 q 250 -6 225 -79 l -8 706 l 161 706 l 338 181 l 340 181 l 522 706 l 686 706 z "},"Ÿ":{"ha":869,"x_min":4,"x_max":864,"o":"m 363 1072 l 221 1072 l 221 1224 l 363 1224 l 363 1072 m 649 1072 l 507 1072 l 507 1224 l 649 1224 l 649 1072 m 518 397 l 518 0 l 351 0 l 351 397 l 4 989 l 193 989 l 301 793 q 433 538 371 668 l 436 538 q 569 793 503 676 l 676 989 l 864 989 l 518 397 z "},"Ź":{"ha":797,"x_min":26,"x_max":771,"o":"m 419 1056 l 290 1056 l 403 1253 l 603 1253 l 419 1056 m 746 838 l 224 144 l 224 142 l 771 142 l 771 0 l 26 0 l 26 151 l 549 844 l 549 847 l 46 847 l 46 989 l 746 989 l 746 838 z "},"ź":{"ha":661,"x_min":38,"x_max":624,"o":"m 343 789 l 214 789 l 326 989 l 526 989 l 343 789 m 610 574 l 229 129 l 229 126 l 624 126 l 624 0 l 38 0 l 38 132 l 418 576 l 418 579 l 51 579 l 51 706 l 610 706 l 610 574 z "},"Ż":{"ha":797,"x_min":26,"x_max":771,"o":"m 475 1068 l 317 1068 l 317 1219 l 475 1219 l 475 1068 m 746 838 l 224 144 l 224 142 l 771 142 l 771 0 l 26 0 l 26 151 l 549 844 l 549 847 l 46 847 l 46 989 l 746 989 l 746 838 z "},"ż":{"ha":661,"x_min":38,"x_max":624,"o":"m 399 838 l 240 838 l 240 989 l 399 989 l 399 838 m 610 574 l 229 129 l 229 126 l 624 126 l 624 0 l 38 0 l 38 132 l 418 576 l 418 579 l 51 579 l 51 706 l 610 706 l 610 574 z "},"Ž":{"ha":797,"x_min":26,"x_max":771,"o":"m 481 1056 l 310 1056 l 151 1253 l 301 1253 l 396 1139 l 489 1253 l 639 1253 l 481 1056 m 746 838 l 224 144 l 224 142 l 771 142 l 771 0 l 26 0 l 26 151 l 549 844 l 549 847 l 46 847 l 46 989 l 746 989 l 746 838 z "},"ž":{"ha":661,"x_min":38,"x_max":624,"o":"m 404 789 l 233 789 l 75 989 l 225 989 l 319 872 l 413 989 l 563 989 l 404 789 m 610 574 l 229 129 l 229 126 l 624 126 l 624 0 l 38 0 l 38 132 l 418 576 l 418 579 l 51 579 l 51 706 l 610 706 l 610 574 z "},"ſ":{"ha":449,"x_min":17,"x_max":433,"o":"m 350 999 q 433 989 385 999 l 433 872 q 394 878 414 878 q 318 851 343 878 q 293 763 293 824 l 293 0 l 136 0 l 136 585 l 17 585 l 17 706 l 136 706 l 136 781 q 350 999 136 999 z "},"ƒ":{"ha":807,"x_min":31,"x_max":778,"o":"m 683 1001 q 778 990 736 1001 l 778 864 q 713 872 751 872 q 620 842 653 872 q 569 736 588 811 l 547 650 l 700 650 l 700 531 l 519 531 l 385 0 q 287 -205 349 -146 q 110 -264 225 -264 q 31 -254 61 -264 l 31 -128 q 92 -136 56 -136 q 177 -106 147 -136 q 231 14 207 -75 l 361 531 l 221 531 l 221 650 l 389 650 l 415 750 q 511 942 449 883 q 683 1001 574 1001 z "},"Ș":{"ha":861,"x_min":47,"x_max":801,"o":"m 410 1010 q 681 927 589 1010 q 774 685 774 844 l 606 685 q 554 826 606 778 q 407 874 503 874 q 280 838 326 874 q 233 742 233 803 q 282 647 233 678 q 460 585 331 617 q 568 556 526 568 q 659 519 610 543 q 736 465 708 494 q 783 390 764 436 q 801 282 801 343 q 700 62 801 144 q 432 -21 599 -21 q 149 69 250 -21 q 47 326 47 158 l 218 326 q 433 117 218 117 q 577 157 525 117 q 629 267 629 197 q 582 365 629 336 q 406 426 535 394 q 297 456 336 444 q 206 492 257 468 q 128 545 154 517 q 82 620 101 574 q 63 726 63 667 q 158 931 63 853 q 410 1010 253 1010 m 499 -219 l 413 -367 l 347 -367 l 406 -219 l 350 -219 l 350 -86 l 499 -86 l 499 -219 z "},"ș":{"ha":707,"x_min":51,"x_max":653,"o":"m 344 726 q 555 665 481 726 q 631 486 629 603 l 478 486 q 343 611 478 611 q 257 589 288 611 q 226 528 226 567 q 258 468 226 486 q 386 426 290 450 q 435 414 425 417 q 481 401 446 411 q 528 383 517 390 q 567 361 540 375 q 603 333 593 347 q 628 297 614 318 q 648 251 643 276 q 653 194 653 225 q 572 38 653 97 q 357 -21 492 -21 q 133 44 213 -21 q 51 232 53 108 l 213 232 q 251 132 213 167 q 360 97 289 97 q 453 121 419 97 q 488 185 488 144 q 451 255 488 235 q 310 301 415 275 q 258 315 271 311 q 211 328 244 318 q 164 348 178 339 q 127 374 150 357 q 94 409 104 390 q 76 455 85 428 q 68 515 68 482 q 144 668 68 610 q 344 726 221 726 m 431 -219 l 344 -367 l 279 -367 l 338 -219 l 282 -219 l 282 -86 l 431 -86 l 431 -219 z "},"Ț":{"ha":843,"x_min":14,"x_max":829,"o":"m 829 844 l 504 844 l 504 0 l 339 0 l 339 844 l 14 844 l 14 989 l 829 989 l 829 844 m 497 -219 l 411 -367 l 346 -367 l 404 -219 l 349 -219 l 349 -86 l 497 -86 l 497 -219 z "},"ț":{"ha":471,"x_min":13,"x_max":433,"o":"m 385 121 q 433 128 415 121 l 433 4 q 344 -8 390 -8 q 181 42 232 -8 q 131 208 131 93 l 131 585 l 13 585 l 13 706 l 131 706 l 131 882 l 289 882 l 289 706 l 426 706 l 426 585 l 289 585 l 289 232 q 311 147 289 172 q 385 121 333 121 m 189 -86 l 338 -86 l 338 -219 l 251 -367 l 186 -367 l 244 -219 l 189 -219 l 189 -86 z "},"ȷ":{"ha":367,"x_min":-37,"x_max":265,"o":"m 265 706 l 265 -28 q 206 -207 265 -150 q 43 -264 147 -264 q -37 -254 6 -264 l -37 -136 q 1 -140 -19 -140 q 81 -110 56 -140 q 107 -7 107 -81 l 107 706 l 265 706 z "},"ʼ":{"ha":342,"x_min":88,"x_max":250,"o":"m 250 815 l 174 621 l 88 621 l 144 815 l 90 815 l 90 989 l 250 989 l 250 815 z "},"ˆ":{"ha":626,"x_min":69,"x_max":557,"o":"m 407 789 l 314 906 l 219 789 l 69 789 l 228 989 l 399 989 l 557 789 l 407 789 z "},"ˇ":{"ha":626,"x_min":69,"x_max":557,"o":"m 399 789 l 228 789 l 69 989 l 219 989 l 314 872 l 407 989 l 557 989 l 399 789 z "},"ˉ":{"ha":563,"x_min":69,"x_max":493,"o":"m 493 843 l 69 843 l 69 951 l 493 951 l 493 843 z "},"˘":{"ha":599,"x_min":69,"x_max":529,"o":"m 417 989 l 529 989 q 462 838 522 892 q 299 785 401 785 q 137 838 197 785 q 69 989 76 892 l 181 989 q 299 889 192 889 q 417 989 406 889 z "},"˙":{"ha":297,"x_min":69,"x_max":228,"o":"m 228 838 l 69 838 l 69 989 l 228 989 l 228 838 z "},"˚":{"ha":428,"x_min":69,"x_max":358,"o":"m 111 1026 q 132 1047 111 1026 q 214 1068 153 1068 q 317 1026 275 1068 q 358 924 358 983 q 317 822 358 864 q 214 779 275 779 q 111 822 153 779 q 69 924 69 864 q 111 1026 69 983 m 269 978 q 257 990 269 978 q 214 1001 246 1001 q 159 978 182 1001 q 136 924 136 956 q 159 869 136 892 q 214 846 182 846 q 269 869 246 846 q 292 924 292 892 q 269 978 292 956 z "},"˛":{"ha":381,"x_min":69,"x_max":311,"o":"m 179 1 l 307 0 q 207 -132 207 -71 q 260 -178 207 -178 q 311 -169 289 -178 l 311 -256 q 217 -271 274 -271 q 69 -156 69 -271 q 96 -75 69 -111 q 179 1 122 -39 z "},"˜":{"ha":639,"x_min":69,"x_max":569,"o":"m 475 985 l 569 985 q 526 857 565 903 q 418 811 486 811 q 313 844 371 811 q 228 878 254 878 q 164 811 172 878 l 69 811 q 114 939 74 893 q 222 985 154 985 q 328 951 269 985 q 411 917 386 917 q 475 985 468 917 z "},"˝":{"ha":701,"x_min":69,"x_max":632,"o":"m 197 789 l 69 789 l 210 989 l 389 989 l 197 789 m 440 789 l 313 789 l 453 989 l 632 989 l 440 789 z "},"̒":{"ha":0,"x_min":69,"x_max":221,"o":"m 163 939 l 217 939 l 217 806 l 69 806 l 69 939 l 156 1086 l 221 1086 l 163 939 z "},"̦":{"ha":0,"x_min":69,"x_max":221,"o":"m 221 -219 l 135 -367 l 69 -367 l 128 -219 l 72 -219 l 72 -86 l 221 -86 l 221 -219 z "},"Δ":{"ha":954,"x_min":6,"x_max":949,"o":"m 949 0 l 6 0 l 367 989 l 592 989 l 949 0 m 722 144 l 604 490 q 478 883 536 693 l 475 883 q 347 490 431 738 l 229 144 l 722 144 z "},"Ω":{"ha":1015,"x_min":47,"x_max":968,"o":"m 184 899 q 245 954 184 899 q 508 1010 306 1010 q 832 899 711 1010 q 953 572 953 788 q 899 344 953 446 q 746 144 844 243 l 746 142 l 968 142 l 968 0 l 586 0 l 586 149 q 731 338 681 244 q 781 550 781 431 q 706 782 781 703 q 508 861 632 861 q 310 782 385 861 q 236 550 236 703 q 286 338 236 431 q 429 149 336 244 l 429 0 l 47 0 l 47 142 l 269 142 l 269 144 q 117 345 171 244 q 63 572 63 446 q 184 899 63 788 z "},"μ":{"ha":831,"x_min":101,"x_max":814,"o":"m 718 706 l 718 217 q 733 138 718 160 q 781 117 747 117 q 814 121 797 117 l 814 4 q 714 -10 774 -10 q 572 103 593 -10 l 569 103 q 499 20 547 50 q 386 -10 450 -10 q 260 35 301 -10 l 260 -257 l 101 -257 l 101 706 l 260 706 l 260 289 q 399 111 260 111 q 515 165 469 111 q 560 315 560 218 l 560 706 l 718 706 z "},"π":{"ha":919,"x_min":14,"x_max":894,"o":"m 894 585 l 743 585 l 743 229 q 765 138 743 164 q 831 113 786 113 q 871 118 856 113 l 871 3 q 774 -10 826 -10 q 631 40 678 -10 q 585 210 585 90 l 585 585 l 310 585 l 310 0 l 151 0 l 151 585 l 14 585 l 14 706 l 894 706 l 894 585 z "},"Ẁ":{"ha":1300,"x_min":14,"x_max":1286,"o":"m 640 1253 l 754 1056 l 625 1056 l 442 1253 l 640 1253 m 1068 0 l 844 0 l 746 411 q 651 846 690 644 l 649 846 q 554 411 610 644 l 456 0 l 232 0 l 14 989 l 178 989 l 258 608 q 346 163 313 358 l 349 163 q 449 610 400 407 l 540 989 l 760 989 l 851 610 q 951 163 900 407 l 954 163 q 1040 608 983 333 l 1122 989 l 1286 989 l 1068 0 z "},"ẁ":{"ha":1097,"x_min":8,"x_max":1089,"o":"m 540 989 l 654 789 l 525 789 l 342 989 l 540 989 m 917 0 l 690 0 l 618 292 q 550 596 585 426 l 547 596 q 479 292 513 426 l 407 0 l 181 0 l 8 706 l 167 706 l 231 422 q 294 110 269 256 l 297 110 q 367 417 324 239 l 438 706 l 660 706 l 731 417 q 800 110 774 239 l 803 110 q 867 422 828 256 l 931 706 l 1089 706 l 917 0 z "},"Ẃ":{"ha":1300,"x_min":14,"x_max":1286,"o":"m 672 1056 l 543 1056 l 656 1253 l 856 1253 l 672 1056 m 1068 0 l 844 0 l 746 411 q 651 846 690 644 l 649 846 q 554 411 610 644 l 456 0 l 232 0 l 14 989 l 178 989 l 258 608 q 346 163 313 358 l 349 163 q 449 610 400 407 l 540 989 l 760 989 l 851 610 q 951 163 900 407 l 954 163 q 1040 608 983 333 l 1122 989 l 1286 989 l 1068 0 z "},"ẃ":{"ha":1097,"x_min":8,"x_max":1089,"o":"m 572 789 l 443 789 l 556 989 l 756 989 l 572 789 m 917 0 l 690 0 l 618 292 q 550 596 585 426 l 547 596 q 479 292 513 426 l 407 0 l 181 0 l 8 706 l 167 706 l 231 422 q 294 110 269 256 l 297 110 q 367 417 324 239 l 438 706 l 660 706 l 731 417 q 800 110 774 239 l 803 110 q 867 422 828 256 l 931 706 l 1089 706 l 917 0 z "},"Ẅ":{"ha":1300,"x_min":14,"x_max":1286,"o":"m 576 1072 l 435 1072 l 435 1224 l 576 1224 l 576 1072 m 863 1072 l 721 1072 l 721 1224 l 863 1224 l 863 1072 m 1068 0 l 844 0 l 746 411 q 651 846 690 644 l 649 846 q 554 411 610 644 l 456 0 l 232 0 l 14 989 l 178 989 l 258 608 q 346 163 313 358 l 349 163 q 449 610 400 407 l 540 989 l 760 989 l 851 610 q 951 163 900 407 l 954 163 q 1040 608 983 333 l 1122 989 l 1286 989 l 1068 0 z "},"ẅ":{"ha":1097,"x_min":8,"x_max":1089,"o":"m 476 838 l 335 838 l 335 989 l 476 989 l 476 838 m 763 838 l 621 838 l 621 989 l 763 989 l 763 838 m 917 0 l 690 0 l 618 292 q 550 596 585 426 l 547 596 q 479 292 513 426 l 407 0 l 181 0 l 8 706 l 167 706 l 231 422 q 294 110 269 256 l 297 110 q 367 417 324 239 l 438 706 l 660 706 l 731 417 q 800 110 774 239 l 803 110 q 867 422 828 256 l 931 706 l 1089 706 l 917 0 z "},"ẞ":{"ha":1090,"x_min":108,"x_max":1032,"o":"m 956 825 l 738 589 q 1032 268 1032 521 q 942 57 1032 132 q 700 -18 851 -18 q 465 53 546 -18 q 383 260 383 124 l 546 260 q 697 121 546 121 q 815 160 772 121 q 858 271 858 199 q 783 417 858 368 q 557 478 707 467 l 557 594 l 747 799 q 547 869 669 869 q 275 581 275 869 l 275 0 l 108 0 l 108 578 q 224 898 108 788 q 557 1008 340 1008 q 784 959 681 1008 q 956 825 888 910 z "},"Ỳ":{"ha":869,"x_min":4,"x_max":864,"o":"m 426 1253 l 540 1056 l 411 1056 l 228 1253 l 426 1253 m 518 397 l 518 0 l 351 0 l 351 397 l 4 989 l 193 989 l 301 793 q 433 538 371 668 l 436 538 q 569 793 503 676 l 676 989 l 864 989 l 518 397 z "},"ỳ":{"ha":678,"x_min":-8,"x_max":686,"o":"m 331 989 l 444 789 l 315 789 l 132 989 l 331 989 m 686 706 l 414 -31 q 297 -214 364 -164 q 106 -264 229 -264 q 26 -254 63 -264 l 26 -125 q 93 -135 58 -135 q 191 -107 157 -135 q 250 -6 225 -79 l -8 706 l 161 706 l 338 181 l 340 181 l 522 706 l 686 706 z "},"‐":{"ha":431,"x_min":42,"x_max":389,"o":"m 389 340 l 42 340 l 42 471 l 389 471 l 389 340 z "},"–":{"ha":694,"x_min":28,"x_max":667,"o":"m 667 340 l 28 340 l 28 471 l 667 471 l 667 340 z "},"—":{"ha":1389,"x_min":28,"x_max":1361,"o":"m 1361 340 l 28 340 l 28 471 l 1361 471 l 1361 340 z "},"―":{"ha":1389,"x_min":28,"x_max":1361,"o":"m 1361 340 l 28 340 l 28 471 l 1361 471 l 1361 340 z "},"‗":{"ha":694,"x_min":0,"x_max":694,"o":"m 694 -153 l 0 -153 l 0 -69 l 694 -69 l 694 -153 m 694 -343 l 0 -343 l 0 -260 l 694 -260 l 694 -343 z "},"‘":{"ha":342,"x_min":90,"x_max":254,"o":"m 90 794 l 168 989 l 254 989 l 197 794 l 251 794 l 251 621 l 90 621 l 90 794 z "},"’":{"ha":342,"x_min":88,"x_max":250,"o":"m 250 815 l 174 621 l 88 621 l 144 815 l 90 815 l 90 989 l 250 989 l 250 815 z "},"‚":{"ha":342,"x_min":88,"x_max":250,"o":"m 250 0 l 174 -194 l 88 -194 l 144 0 l 90 0 l 90 174 l 250 174 l 250 0 z "},"“":{"ha":579,"x_min":90,"x_max":492,"o":"m 90 794 l 168 989 l 254 989 l 197 794 l 251 794 l 251 621 l 90 621 l 90 794 m 329 794 l 406 989 l 492 989 l 435 794 l 489 794 l 489 621 l 329 621 l 329 794 z "},"”":{"ha":579,"x_min":88,"x_max":488,"o":"m 250 815 l 174 621 l 88 621 l 144 815 l 90 815 l 90 989 l 250 989 l 250 815 m 488 815 l 411 621 l 325 621 l 382 815 l 328 815 l 328 989 l 488 989 l 488 815 z "},"„":{"ha":579,"x_min":88,"x_max":488,"o":"m 250 0 l 174 -194 l 88 -194 l 144 0 l 90 0 l 90 174 l 250 174 l 250 0 m 488 0 l 411 -194 l 325 -194 l 382 0 l 328 0 l 328 174 l 488 174 l 488 0 z "},"†":{"ha":764,"x_min":75,"x_max":689,"o":"m 463 735 l 689 735 l 689 607 l 463 607 l 463 -167 l 303 -167 l 303 607 l 75 607 l 75 735 l 303 735 l 303 989 l 463 989 l 463 735 z "},"‡":{"ha":764,"x_min":75,"x_max":689,"o":"m 463 735 l 689 735 l 689 607 l 463 607 l 463 244 l 689 244 l 689 115 l 463 115 l 463 -167 l 303 -167 l 303 115 l 75 115 l 75 244 l 303 244 l 303 607 l 75 607 l 75 735 l 303 735 l 303 989 l 463 989 l 463 735 z "},"•":{"ha":482,"x_min":64,"x_max":418,"o":"m 367 369 q 341 344 367 369 q 242 318 315 318 q 116 370 168 318 q 64 494 64 422 q 116 619 64 568 q 242 671 168 671 q 367 619 315 671 q 418 494 418 568 q 367 369 418 421 z "},"…":{"ha":1147,"x_min":76,"x_max":1069,"o":"m 260 0 l 76 0 l 76 197 l 260 197 l 260 0 m 664 0 l 482 0 l 482 197 l 664 197 l 664 0 m 1069 0 l 888 0 l 888 197 l 1069 197 l 1069 0 z "},"‰":{"ha":1461,"x_min":42,"x_max":1419,"o":"m 257 -42 l 150 -42 l 735 978 l 842 978 l 257 -42 m 92 896 q 118 926 92 896 q 236 957 143 957 q 381 896 329 957 q 432 724 432 835 q 381 551 432 611 q 236 490 331 490 q 92 551 143 490 q 42 724 42 611 q 92 896 42 835 m 236 864 q 179 827 200 864 q 158 724 158 790 q 179 620 158 657 q 236 583 200 583 q 315 724 315 583 q 294 827 315 790 q 236 864 274 864 m 754 447 q 899 386 849 447 q 950 213 950 325 q 899 40 950 101 q 754 -21 847 -21 q 610 40 661 -21 q 560 213 560 101 q 610 386 560 325 q 754 447 661 447 m 1081 386 q 1107 417 1081 386 q 1225 447 1132 447 q 1369 386 1318 447 q 1419 213 1419 325 q 1369 40 1419 101 q 1225 -21 1318 -21 q 1081 40 1132 -21 q 1031 213 1031 101 q 1081 386 1031 325 m 754 353 q 697 316 718 353 q 676 213 676 279 q 697 109 676 146 q 754 72 718 72 q 813 109 792 72 q 833 213 833 146 q 754 353 833 353 m 1303 213 q 1303 283 1303 213 q 1225 353 1303 353 q 1147 213 1147 353 q 1225 72 1147 72 q 1303 213 1303 72 z "},"‹":{"ha":428,"x_min":64,"x_max":364,"o":"m 213 353 l 364 75 l 222 75 l 64 353 l 222 631 l 364 631 l 213 353 z "},"›":{"ha":428,"x_min":64,"x_max":364,"o":"m 206 631 l 364 353 l 206 75 l 64 75 l 215 353 l 64 631 l 206 631 z "},"‽":{"ha":739,"x_min":44,"x_max":686,"o":"m 449 989 l 444 904 q 622 827 557 889 q 686 671 686 765 q 658 544 686 594 q 543 428 629 494 q 455 342 475 375 q 435 244 435 308 l 304 244 l 285 751 q 208 621 214 718 l 44 621 q 109 808 49 738 q 279 900 169 879 l 276 989 l 449 989 m 465 540 q 508 599 497 574 q 519 663 519 624 q 439 761 519 738 l 428 504 l 431 504 q 465 540 440 515 m 276 165 l 456 165 l 456 0 l 276 0 l 276 165 z "},"‾":{"ha":694,"x_min":0,"x_max":694,"o":"m 694 1088 l 0 1088 l 0 1196 l 694 1196 l 694 1088 z "},"⁄":{"ha":206,"x_min":-217,"x_max":421,"o":"m -101 0 l -217 0 l 307 936 l 421 936 l -101 0 z "},"⁰":{"ha":626,"x_min":47,"x_max":581,"o":"m 314 1129 q 511 1040 442 1129 q 581 786 581 951 q 511 532 581 621 q 314 443 442 443 q 116 532 185 443 q 47 786 47 621 q 116 1040 47 951 q 314 1129 185 1129 m 405 957 q 389 987 405 957 q 314 1017 374 1017 q 222 957 254 1017 q 190 786 190 897 q 222 614 190 674 q 314 554 254 554 q 405 615 374 554 q 436 786 436 675 q 405 957 436 897 z "},"⁴":{"ha":593,"x_min":15,"x_max":578,"o":"m 578 606 l 469 606 l 469 458 l 332 458 l 332 606 l 15 606 l 15 721 l 286 1114 l 469 1114 l 469 714 l 578 714 l 578 606 m 142 714 l 336 714 l 336 792 q 342 1006 336 864 l 339 1006 q 210 811 308 956 l 142 714 z "},"⁵":{"ha":601,"x_min":50,"x_max":553,"o":"m 517 999 l 210 999 l 194 846 l 197 846 q 329 894 246 894 q 491 835 429 894 q 553 678 553 775 q 483 507 553 571 q 297 443 413 443 q 117 497 183 443 q 50 642 50 550 l 192 642 q 222 577 193 600 q 296 554 250 554 q 378 585 349 554 q 408 672 408 617 q 378 757 408 726 q 299 788 349 788 q 196 714 217 788 l 57 722 l 94 1114 l 517 1114 l 517 999 z "},"⁶":{"ha":600,"x_min":47,"x_max":558,"o":"m 319 1129 q 482 1078 421 1129 q 550 933 543 1026 l 407 933 q 314 1019 394 1019 q 181 817 189 1019 l 183 817 q 340 885 240 885 q 498 826 438 885 q 558 674 558 768 q 488 507 558 571 q 307 443 418 443 q 115 525 182 443 q 47 767 47 607 q 119 1035 47 940 q 319 1129 190 1129 m 386 751 q 372 766 386 751 q 308 782 357 782 q 230 750 260 782 q 200 667 200 718 q 230 585 200 615 q 308 554 260 554 q 386 585 357 554 q 415 668 415 617 q 386 751 415 719 z "},"⁷":{"ha":532,"x_min":15,"x_max":517,"o":"m 517 1114 l 517 999 q 293 458 354 776 l 140 458 q 376 996 213 783 l 15 996 l 15 1114 l 517 1114 z "},"⁸":{"ha":603,"x_min":44,"x_max":558,"o":"m 301 1129 q 476 1078 408 1129 q 543 946 543 1028 q 511 856 543 894 q 424 800 479 818 l 424 797 q 522 738 486 781 q 558 636 558 696 q 488 495 558 547 q 301 443 418 443 q 115 495 185 443 q 44 636 44 547 q 80 738 44 696 q 178 797 115 781 l 178 800 q 90 856 122 818 q 58 946 58 894 q 126 1078 58 1028 q 301 1129 193 1129 m 379 997 q 365 1008 379 997 q 301 1019 350 1019 q 223 997 253 1019 q 193 936 193 974 q 222 872 193 896 q 301 847 251 847 q 379 872 350 847 q 408 936 408 896 q 379 997 408 974 m 301 742 q 217 716 249 742 q 186 647 186 690 q 217 579 186 604 q 301 554 249 554 q 385 579 354 554 q 415 647 415 604 q 384 716 415 690 q 301 742 353 742 z "},"⁹":{"ha":600,"x_min":42,"x_max":554,"o":"m 281 443 q 119 494 181 443 q 51 639 58 546 l 193 639 q 286 553 206 553 q 419 756 414 553 l 417 756 q 260 688 361 688 q 102 746 163 688 q 42 899 42 804 q 112 1065 42 1001 q 293 1129 182 1129 q 486 1047 418 1129 q 554 806 554 965 q 482 538 554 632 q 281 443 410 443 m 214 822 q 228 806 214 822 q 292 790 243 790 q 370 822 340 790 q 400 906 400 854 q 370 988 400 957 q 292 1018 340 1018 q 214 987 243 1018 q 185 904 185 956 q 214 822 185 853 z "},"⁺":{"ha":569,"x_min":65,"x_max":504,"o":"m 340 819 l 504 819 l 504 713 l 340 713 l 340 553 l 231 553 l 231 713 l 65 713 l 65 819 l 231 819 l 231 981 l 340 981 l 340 819 z "},"⁻":{"ha":569,"x_min":65,"x_max":504,"o":"m 504 713 l 65 713 l 65 819 l 504 819 l 504 713 z "},"⁼":{"ha":569,"x_min":65,"x_max":504,"o":"m 504 807 l 65 807 l 65 911 l 504 911 l 504 807 m 504 621 l 65 621 l 65 725 l 504 725 l 504 621 z "},"⁽":{"ha":326,"x_min":44,"x_max":297,"o":"m 185 1179 l 297 1179 q 190 747 190 965 q 297 315 190 529 l 185 315 q 44 747 44 514 q 185 1179 44 982 z "},"⁾":{"ha":326,"x_min":29,"x_max":282,"o":"m 142 315 l 29 315 q 136 747 136 529 q 29 1179 136 965 l 142 1179 q 282 747 282 981 q 142 315 282 513 z "},"₀":{"ha":626,"x_min":47,"x_max":581,"o":"m 314 432 q 511 343 442 432 q 581 89 581 254 q 511 -165 581 -76 q 314 -254 442 -254 q 116 -165 185 -254 q 47 89 47 -76 q 116 343 47 254 q 314 432 185 432 m 405 260 q 389 290 405 260 q 314 319 374 319 q 222 260 254 319 q 190 89 190 200 q 222 -83 190 -24 q 314 -143 254 -143 q 405 -83 374 -143 q 436 89 436 -22 q 405 260 436 200 z "},"₁":{"ha":417,"x_min":14,"x_max":322,"o":"m 322 -239 l 181 -239 l 181 201 l 14 201 l 14 304 q 146 331 103 304 q 199 417 189 357 l 322 417 l 322 -239 z "},"₂":{"ha":610,"x_min":50,"x_max":563,"o":"m 307 432 q 481 378 415 432 q 546 240 546 325 q 500 112 546 161 q 364 15 454 63 q 244 -60 274 -31 q 213 -124 214 -89 l 563 -124 l 563 -239 l 53 -239 q 50 -211 50 -231 q 91 -43 50 -108 q 247 85 132 22 q 365 160 331 129 q 400 239 400 192 q 375 297 400 275 q 307 319 350 319 q 201 213 206 319 l 60 213 q 127 374 61 317 q 307 432 193 432 z "},"₃":{"ha":601,"x_min":42,"x_max":553,"o":"m 300 432 q 478 382 413 432 q 543 247 543 332 q 515 158 543 193 q 426 100 488 124 l 426 97 q 522 38 492 75 q 553 -61 553 0 q 484 -201 553 -149 q 301 -254 415 -254 q 109 -195 176 -254 q 42 -29 42 -136 l 185 -29 q 301 -142 185 -142 q 380 -118 350 -142 q 410 -56 410 -94 q 274 38 410 38 l 253 38 l 253 146 l 276 146 q 369 169 335 146 q 403 235 403 193 q 374 297 403 274 q 297 319 346 319 q 190 211 190 319 l 50 211 q 116 374 50 315 q 300 432 182 432 z "},"₄":{"ha":593,"x_min":14,"x_max":576,"o":"m 576 -92 l 468 -92 l 468 -239 l 331 -239 l 331 -92 l 14 -92 l 14 24 l 285 417 l 468 417 l 468 17 l 576 17 l 576 -92 m 140 17 l 335 17 l 335 94 q 340 308 335 167 l 338 308 q 208 114 307 258 l 140 17 z "},"₅":{"ha":601,"x_min":50,"x_max":553,"o":"m 517 301 l 210 301 l 194 149 l 197 149 q 329 197 246 197 q 491 138 429 197 q 553 -19 553 78 q 483 -190 553 -126 q 297 -254 413 -254 q 117 -201 183 -254 q 50 -56 50 -147 l 192 -56 q 222 -120 193 -97 q 296 -143 250 -143 q 378 -112 349 -143 q 408 -25 408 -81 q 378 60 408 29 q 299 90 349 90 q 196 17 217 90 l 57 25 l 94 417 l 517 417 l 517 301 z "},"₆":{"ha":600,"x_min":47,"x_max":558,"o":"m 319 432 q 482 381 421 432 q 550 236 543 329 l 407 236 q 314 322 394 322 q 181 119 189 322 l 183 119 q 340 188 240 188 q 498 129 438 188 q 558 -24 558 71 q 488 -190 558 -126 q 307 -254 418 -254 q 115 -172 182 -254 q 47 69 47 -90 q 119 338 47 243 q 319 432 190 432 m 386 53 q 372 69 386 53 q 308 85 357 85 q 230 53 260 85 q 200 -31 200 21 q 230 -112 200 -82 q 308 -143 260 -143 q 386 -112 357 -143 q 415 -29 415 -81 q 386 53 415 22 z "},"₇":{"ha":532,"x_min":14,"x_max":515,"o":"m 515 417 l 515 301 q 292 -239 353 79 l 139 -239 q 375 299 211 86 l 14 299 l 14 417 l 515 417 z "},"₈":{"ha":603,"x_min":44,"x_max":558,"o":"m 301 432 q 476 381 408 432 q 543 249 543 331 q 511 159 543 197 q 424 103 479 121 l 424 100 q 522 41 486 83 q 558 -61 558 -1 q 488 -202 558 -150 q 301 -254 418 -254 q 115 -202 185 -254 q 44 -61 44 -150 q 80 41 44 -1 q 178 100 115 83 l 178 103 q 90 159 122 121 q 58 249 58 197 q 126 381 58 331 q 301 432 193 432 m 379 299 q 365 311 379 299 q 301 322 350 322 q 223 299 253 322 q 193 239 193 276 q 222 174 193 199 q 301 150 251 150 q 379 174 350 150 q 408 239 408 199 q 379 299 408 276 m 301 44 q 217 19 249 44 q 186 -50 186 -7 q 217 -118 186 -93 q 301 -143 249 -143 q 385 -118 354 -143 q 415 -50 415 -93 q 384 19 415 -7 q 301 44 353 44 z "},"₉":{"ha":600,"x_min":42,"x_max":554,"o":"m 281 -254 q 119 -203 181 -254 q 51 -58 58 -151 l 193 -58 q 286 -144 206 -144 q 419 58 414 -144 l 417 58 q 260 -10 361 -10 q 102 49 163 -10 q 42 201 42 107 q 112 368 42 304 q 293 432 182 432 q 486 350 418 432 q 554 108 554 268 q 482 -160 554 -65 q 281 -254 410 -254 m 214 124 q 228 109 214 124 q 292 93 243 93 q 370 125 340 93 q 400 208 400 157 q 370 290 400 260 q 292 321 340 321 q 214 290 243 321 q 185 207 185 258 q 214 124 185 156 z "},"₊":{"ha":571,"x_min":67,"x_max":504,"o":"m 340 122 l 504 122 l 504 15 l 340 15 l 340 -144 l 231 -144 l 231 15 l 67 15 l 67 122 l 231 122 l 231 283 l 340 283 l 340 122 z "},"₋":{"ha":571,"x_min":67,"x_max":504,"o":"m 504 15 l 67 15 l 67 122 l 504 122 l 504 15 z "},"₌":{"ha":571,"x_min":67,"x_max":504,"o":"m 504 110 l 67 110 l 67 214 l 504 214 l 504 110 m 504 -76 l 67 -76 l 67 28 l 504 28 l 504 -76 z "},"₍":{"ha":326,"x_min":44,"x_max":297,"o":"m 185 482 l 297 482 q 190 50 190 268 q 297 -382 190 -168 l 185 -382 q 44 50 44 -183 q 185 482 44 285 z "},"₎":{"ha":326,"x_min":29,"x_max":282,"o":"m 142 -382 l 29 -382 q 136 50 136 -168 q 29 482 136 268 l 142 482 q 282 50 282 283 q 142 -382 282 -185 z "},"₣":{"ha":807,"x_min":33,"x_max":767,"o":"m 313 792 l 313 574 l 733 574 l 733 429 l 313 429 l 313 283 l 546 283 l 546 160 l 313 160 l 313 0 l 146 0 l 146 160 l 33 160 l 33 283 l 146 283 l 146 936 l 767 936 l 767 792 l 313 792 z "},"₤":{"ha":807,"x_min":33,"x_max":761,"o":"m 249 133 l 753 133 l 753 0 l 33 0 l 33 135 q 131 178 99 135 q 163 319 163 221 l 163 331 l 33 331 l 33 419 l 163 419 l 163 486 l 33 486 l 33 576 l 163 576 l 163 639 q 241 877 163 797 q 469 957 319 957 q 683 878 606 957 q 761 664 761 800 l 601 664 q 567 778 601 739 q 469 818 532 818 q 328 639 328 818 l 328 576 l 500 576 l 500 486 l 328 486 l 328 419 l 500 419 l 500 331 l 328 331 l 328 321 q 310 205 328 246 q 249 136 292 164 l 249 133 z "},"₧":{"ha":1204,"x_min":122,"x_max":1168,"o":"m 1118 121 q 1168 128 1147 121 l 1168 4 q 1078 -8 1125 -8 q 915 42 965 -8 q 865 208 865 93 l 865 585 l 785 585 q 682 389 772 460 q 433 318 592 318 l 289 318 l 289 0 l 122 0 l 122 936 l 433 936 q 667 875 579 936 q 779 706 756 814 l 865 706 l 865 882 l 1024 882 l 1024 706 l 1161 706 l 1161 585 l 1024 585 l 1024 232 q 1045 147 1024 172 q 1118 121 1067 121 m 289 458 l 414 458 q 617 628 617 458 q 414 796 617 796 l 289 796 l 289 458 z "},"€":{"ha":807,"x_min":1,"x_max":788,"o":"m 625 288 l 788 288 q 683 60 774 142 q 449 -21 593 -21 q 201 72 296 -21 q 82 340 107 164 l 1 340 l 18 429 l 75 429 l 74 468 l 74 496 l 1 496 l 18 586 l 81 586 q 199 862 103 767 q 451 957 294 957 q 685 877 599 957 q 782 653 772 797 l 624 653 q 569 775 613 732 q 451 818 525 818 q 244 586 279 818 l 574 586 l 557 496 l 236 496 l 236 468 q 238 429 236 442 l 544 429 l 528 340 l 246 340 q 449 118 282 118 q 567 163 521 118 q 625 288 614 207 z "},"₹":{"ha":807,"x_min":39,"x_max":769,"o":"m 524 832 l 524 829 q 613 724 594 799 l 769 724 l 740 619 l 614 619 q 388 431 581 467 l 388 428 q 544 256 478 393 l 669 0 l 481 0 l 368 240 q 283 357 331 322 q 165 392 235 392 l 143 392 l 143 503 l 206 503 q 428 619 385 503 l 39 619 l 68 724 l 432 724 q 218 832 403 832 l 39 832 l 68 936 l 769 936 l 740 832 l 524 832 z "},"₺":{"ha":807,"x_min":22,"x_max":778,"o":"m 606 444 l 778 444 q 655 107 778 222 q 306 -8 532 -8 q 147 0 222 -8 l 147 360 l 22 292 l 22 403 l 147 471 l 147 578 l 22 510 l 22 621 l 147 689 l 147 936 l 314 936 l 314 768 l 544 893 l 544 782 l 314 657 l 314 551 l 544 676 l 544 565 l 314 440 l 314 138 q 531 215 456 138 q 606 444 606 293 z "},"₼":{"ha":953,"x_min":60,"x_max":893,"o":"m 60 0 l 60 422 q 142 734 60 632 q 400 847 225 836 l 400 989 l 553 989 l 553 847 q 810 734 728 836 q 893 422 893 632 l 893 0 l 740 0 l 740 418 q 698 628 740 563 q 553 700 656 693 l 553 0 l 400 0 l 400 700 q 256 628 299 693 q 213 418 213 563 l 213 0 l 60 0 z "},"₽":{"ha":807,"x_min":14,"x_max":774,"o":"m 126 936 l 449 936 q 690 860 607 936 q 774 651 774 783 q 690 442 774 518 q 449 365 607 365 l 290 365 l 290 281 l 553 281 l 553 157 l 290 157 l 290 0 l 126 0 l 126 157 l 14 157 l 14 281 l 126 281 l 126 365 l 14 365 l 14 494 l 126 494 l 126 936 m 290 807 l 290 494 l 429 494 q 560 535 517 494 q 604 651 604 576 q 560 766 604 725 q 429 807 517 807 l 290 807 z "},"ℓ":{"ha":618,"x_min":58,"x_max":532,"o":"m 289 282 l 289 221 q 313 131 289 160 q 388 103 336 103 q 454 114 424 103 l 454 1 q 349 -14 406 -14 q 185 42 238 -14 q 132 218 132 99 l 132 263 q 58 272 101 264 l 58 364 q 132 354 101 356 l 132 658 q 179 891 132 825 q 331 957 226 957 q 476 892 421 957 q 532 686 532 828 q 467 417 532 518 q 289 282 403 317 m 356 851 q 304 817 319 851 q 289 690 289 783 l 289 383 q 433 686 433 453 q 356 851 433 851 z "},"℗":{"ha":1119,"x_min":61,"x_max":1058,"o":"m 560 1007 q 922 866 785 1007 q 1058 494 1058 725 q 922 123 1058 264 q 560 -18 785 -18 q 199 123 336 -18 q 61 494 61 264 q 199 866 61 725 q 560 1007 336 1007 m 560 936 q 249 815 367 936 q 131 494 131 693 q 249 174 131 296 q 560 53 367 53 q 872 174 754 53 q 990 494 990 296 q 872 815 990 693 q 560 936 754 936 m 365 807 l 604 807 q 784 753 722 807 q 846 601 846 699 q 784 451 846 506 q 604 396 722 396 l 481 396 l 481 168 l 365 168 l 365 807 m 481 708 l 481 496 l 592 496 q 725 601 725 496 q 592 708 725 708 l 481 708 z "},"™":{"ha":1132,"x_min":7,"x_max":1071,"o":"m 431 890 l 276 890 l 276 494 l 161 494 l 161 890 l 7 890 l 7 989 l 431 989 l 431 890 m 1071 494 l 964 494 l 964 725 q 967 903 964 786 l 964 903 q 940 815 956 874 q 915 728 924 757 l 847 494 l 715 494 l 647 728 q 599 903 614 844 l 596 903 q 599 725 599 786 l 599 494 l 492 494 l 492 989 l 671 989 l 731 782 q 779 599 758 689 l 782 599 q 831 782 803 689 l 892 989 l 1071 989 l 1071 494 z "},"Ω":{"ha":1015,"x_min":47,"x_max":968,"o":"m 184 899 q 245 954 184 899 q 508 1010 306 1010 q 832 899 711 1010 q 953 572 953 788 q 899 344 953 446 q 746 144 844 243 l 746 142 l 968 142 l 968 0 l 586 0 l 586 149 q 731 338 681 244 q 781 550 781 431 q 706 782 781 703 q 508 861 632 861 q 310 782 385 861 q 236 550 236 703 q 286 338 236 431 q 429 149 336 244 l 429 0 l 47 0 l 47 142 l 269 142 l 269 144 q 117 345 171 244 q 63 572 63 446 q 184 899 63 788 z "},"℮":{"ha":1197,"x_min":65,"x_max":1131,"o":"m 599 957 q 987 811 843 957 q 1131 454 1131 665 l 282 454 q 263 438 263 454 l 263 206 q 285 144 263 165 q 599 18 414 18 q 787 60 699 18 q 931 171 875 103 l 1026 171 q 863 38 971 93 q 599 -17 754 -17 q 213 119 360 -17 q 65 468 65 256 q 210 818 65 679 q 599 957 356 957 m 599 921 q 285 790 415 921 q 263 733 263 771 l 263 503 q 282 485 263 485 l 914 485 q 932 503 932 485 l 932 733 q 911 790 932 771 q 599 921 779 921 z "},"⅛":{"ha":1093,"x_min":13,"x_max":1056,"o":"m 283 375 l 150 375 l 150 743 l 13 743 l 13 839 q 165 936 143 839 l 283 936 l 283 375 m 257 0 l 142 0 l 665 936 l 779 936 l 257 0 m 828 575 q 983 531 924 575 q 1043 415 1043 486 q 942 293 1043 324 l 942 290 q 1026 241 996 276 q 1056 156 1056 206 q 994 32 1056 78 q 828 -14 932 -14 q 663 32 724 -14 q 601 156 601 78 q 632 241 601 206 q 717 290 663 276 l 717 293 q 614 415 614 324 q 674 531 614 486 q 828 575 733 575 m 828 475 q 764 456 788 475 q 740 407 740 438 q 764 356 740 375 q 828 336 788 336 q 894 356 869 336 q 918 407 918 375 q 894 457 918 439 q 828 475 869 475 m 828 239 q 760 218 786 239 q 733 163 733 197 q 759 108 733 128 q 828 89 785 89 q 898 108 872 89 q 924 163 924 128 q 897 218 924 197 q 828 239 871 239 z "},"⅜":{"ha":1265,"x_min":36,"x_max":1228,"o":"m 264 950 q 422 906 364 950 q 481 790 481 863 q 382 665 481 703 l 382 664 q 463 613 438 646 q 489 526 489 579 q 429 406 489 450 q 267 361 369 361 q 97 412 157 361 q 36 556 36 463 l 168 556 q 267 465 168 465 q 333 484 308 465 q 358 533 358 503 q 244 608 358 608 l 225 608 l 225 707 l 243 707 q 322 727 292 707 q 351 782 351 747 q 328 829 351 811 q 264 847 304 847 q 172 761 172 847 l 43 761 q 102 900 43 850 q 264 950 161 950 m 429 0 l 314 0 l 838 936 l 951 936 l 429 0 m 1000 575 q 1156 531 1096 575 q 1215 415 1215 486 q 1114 293 1215 324 l 1114 290 q 1198 241 1168 276 q 1228 156 1228 206 q 1166 32 1228 78 q 1000 -14 1104 -14 q 835 32 896 -14 q 774 156 774 78 q 804 241 774 206 q 889 290 835 276 l 889 293 q 786 415 786 324 q 846 531 786 486 q 1000 575 906 575 m 1000 475 q 936 456 960 475 q 913 407 913 438 q 936 356 913 375 q 1000 336 960 336 q 1066 356 1042 336 q 1090 407 1090 375 q 1066 457 1090 439 q 1000 475 1042 475 m 1000 239 q 932 218 958 239 q 906 163 906 197 q 931 108 906 128 q 1000 89 957 89 q 1070 108 1044 89 q 1096 163 1096 128 q 1069 218 1096 197 q 1000 239 1043 239 z "},"⅝":{"ha":1265,"x_min":44,"x_max":1226,"o":"m 457 829 l 190 829 l 178 711 l 181 711 q 294 750 224 750 q 435 698 382 750 q 489 560 489 646 q 428 415 489 469 q 264 361 367 361 q 104 408 164 361 q 44 533 44 454 l 176 533 q 201 481 178 500 q 263 463 225 463 q 333 489 307 463 q 358 560 358 515 q 333 627 358 603 q 267 651 308 651 q 179 592 194 651 l 50 599 l 83 936 l 457 936 l 457 829 m 429 0 l 314 0 l 838 936 l 951 936 l 429 0 m 999 575 q 1154 531 1094 575 q 1214 415 1214 486 q 1113 293 1214 324 l 1113 290 q 1197 241 1167 276 q 1226 156 1226 206 q 1165 32 1226 78 q 999 -14 1103 -14 q 833 32 894 -14 q 772 156 772 78 q 803 241 772 206 q 888 290 833 276 l 888 293 q 785 415 785 324 q 844 531 785 486 q 999 575 904 575 m 999 475 q 935 456 958 475 q 911 407 911 438 q 935 356 911 375 q 999 336 958 336 q 1065 356 1040 336 q 1089 407 1089 375 q 1065 457 1089 439 q 999 475 1040 475 m 999 239 q 931 218 957 239 q 904 163 904 197 q 930 108 904 128 q 999 89 956 89 q 1069 108 1043 89 q 1094 163 1094 128 q 1068 218 1094 197 q 999 239 1042 239 z "},"⅞":{"ha":1132,"x_min":13,"x_max":1094,"o":"m 453 936 l 453 831 q 261 375 317 649 l 121 375 q 322 828 185 653 l 13 828 l 13 936 l 453 936 m 296 0 l 181 0 l 704 936 l 818 936 l 296 0 m 867 575 q 1022 531 963 575 q 1082 415 1082 486 q 981 293 1082 324 l 981 290 q 1065 241 1035 276 q 1094 156 1094 206 q 1033 32 1094 78 q 867 -14 971 -14 q 701 32 763 -14 q 640 156 640 78 q 671 241 640 206 q 756 290 701 276 l 756 293 q 653 415 653 324 q 713 531 653 486 q 867 575 772 575 m 867 475 q 803 456 826 475 q 779 407 779 438 q 803 356 779 375 q 867 336 826 336 q 933 356 908 336 q 957 407 957 375 q 933 457 957 439 q 867 475 908 475 m 867 239 q 799 218 825 239 q 772 163 772 197 q 798 108 772 128 q 867 89 824 89 q 937 108 911 89 q 963 163 963 128 q 936 218 963 197 q 867 239 910 239 z "},"∂":{"ha":851,"x_min":58,"x_max":758,"o":"m 389 1010 q 664 886 569 1010 q 758 525 758 763 q 656 115 758 250 q 389 -21 553 -21 q 144 69 231 -21 q 58 310 58 160 q 148 565 58 465 q 390 665 238 665 q 596 569 529 665 l 599 569 q 600 607 600 582 q 542 800 600 726 q 396 874 485 874 q 257 751 275 874 l 90 751 q 178 940 103 871 q 389 1010 253 1010 m 407 540 q 274 475 324 540 q 224 308 224 410 q 267 166 224 217 q 394 115 311 115 q 530 178 481 115 q 579 340 579 240 q 533 486 579 432 q 407 540 488 540 z "},"∆":{"ha":954,"x_min":6,"x_max":949,"o":"m 949 0 l 6 0 l 367 989 l 592 989 l 949 0 m 722 144 l 604 490 q 478 883 536 693 l 475 883 q 347 490 431 738 l 229 144 l 722 144 z "},"∏":{"ha":931,"x_min":122,"x_max":808,"o":"m 808 -167 l 643 -167 l 643 844 l 289 844 l 289 -167 l 122 -167 l 122 989 l 808 989 l 808 -167 z "},"∑":{"ha":694,"x_min":49,"x_max":646,"o":"m 646 843 l 232 843 l 492 408 l 232 -21 l 646 -21 l 646 -167 l 49 -167 l 49 -21 l 311 408 l 49 843 l 49 989 l 646 989 l 646 843 z "},"−":{"ha":786,"x_min":93,"x_max":693,"o":"m 693 376 l 93 376 l 93 503 l 693 503 l 693 376 z "},"∕":{"ha":657,"x_min":42,"x_max":586,"o":"m 172 -124 l 42 -124 l 456 1035 l 586 1035 l 172 -124 z "},"∙":{"ha":490,"x_min":154,"x_max":336,"o":"m 336 326 l 154 326 l 154 522 l 336 522 l 336 326 z "},"√":{"ha":844,"x_min":35,"x_max":817,"o":"m 486 -167 l 279 -167 l 149 385 l 35 385 l 35 513 l 256 513 l 385 -28 l 388 -28 l 678 989 l 817 989 l 486 -167 z "},"∞":{"ha":904,"x_min":21,"x_max":883,"o":"m 678 651 q 826 590 769 651 q 883 428 883 529 q 826 265 883 326 q 678 204 769 204 q 552 238 604 204 q 451 333 500 272 q 353 238 404 272 q 228 204 301 204 q 78 265 135 204 q 21 428 21 326 q 78 590 21 529 q 228 651 135 651 q 353 617 301 651 q 451 522 404 583 q 552 617 500 583 q 678 651 604 651 m 240 325 q 315 351 282 325 q 385 428 349 378 q 315 504 349 478 q 240 531 282 531 q 169 503 194 531 q 144 428 144 475 q 169 353 144 381 q 240 325 194 325 m 664 325 q 735 353 710 325 q 760 428 760 381 q 735 503 760 475 q 664 531 710 531 q 589 504 622 531 q 519 428 556 478 q 589 351 556 378 q 664 325 622 325 z "},"∫":{"ha":463,"x_min":13,"x_max":450,"o":"m 367 999 q 450 989 401 999 l 450 872 q 411 878 433 878 q 335 851 360 878 q 310 763 310 824 l 310 -49 q 96 -267 310 -267 q 13 -257 61 -267 l 13 -140 q 50 -146 29 -146 q 128 -119 103 -146 q 153 -31 153 -92 l 153 781 q 367 999 153 999 z "},"≈":{"ha":786,"x_min":88,"x_max":699,"o":"m 265 697 q 360 668 314 697 q 446 610 407 639 q 517 582 485 582 q 574 608 554 582 q 594 679 594 635 l 699 679 q 650 522 699 582 q 521 461 601 461 q 426 490 472 461 q 341 549 381 519 q 269 578 301 578 q 212 551 232 578 q 192 479 192 525 l 88 479 q 136 638 88 578 q 265 697 185 697 m 265 419 q 360 390 314 419 q 446 332 407 361 q 517 303 485 303 q 574 329 554 303 q 594 401 594 356 l 699 401 q 650 243 699 303 q 521 183 601 183 q 426 213 472 183 q 341 270 381 242 q 269 299 301 299 q 212 272 232 299 q 192 201 192 246 l 88 201 q 136 359 88 299 q 265 419 185 419 z "},"≠":{"ha":786,"x_min":93,"x_max":693,"o":"m 490 500 l 417 379 l 693 379 l 693 253 l 342 253 l 240 83 l 119 83 l 221 253 l 93 253 l 93 379 l 296 379 l 369 500 l 93 500 l 93 626 l 444 626 l 546 796 l 667 796 l 565 626 l 693 626 l 693 500 l 490 500 z "},"≤":{"ha":786,"x_min":93,"x_max":693,"o":"m 693 633 l 240 468 l 240 465 l 693 299 l 693 168 l 93 386 l 93 546 l 693 764 l 693 633 m 693 124 l 693 0 l 93 0 l 93 124 l 693 124 z "},"≥":{"ha":786,"x_min":93,"x_max":693,"o":"m 693 546 l 693 386 l 93 168 l 93 299 l 546 465 l 546 468 l 93 633 l 93 764 l 693 546 m 693 0 l 93 0 l 93 124 l 693 124 l 693 0 z "},"◊":{"ha":863,"x_min":56,"x_max":807,"o":"m 807 494 l 536 0 l 326 0 l 56 494 l 326 989 l 536 989 l 807 494 m 219 494 l 431 114 l 643 494 l 431 875 l 219 494 z "},"":{"ha":833,"x_min":25,"x_max":853,"o":"m 210 1079 l 669 1079 q 803 1029 754 1079 q 853 894 853 979 l 853 94 q 803 -40 853 10 q 669 -90 754 -90 l 210 -90 q 75 -41 125 -90 q 25 94 25 8 l 25 894 q 75 1030 25 981 q 210 1079 125 1079 m 669 1001 l 210 1001 q 133 972 161 1001 q 104 894 104 943 l 104 94 q 133 17 104 46 q 210 -12 161 -12 l 669 -12 q 747 17 718 -12 q 775 94 775 46 l 775 894 q 747 972 775 943 q 669 1001 718 1001 m 439 899 q 617 842 551 899 q 682 692 682 786 q 661 593 682 633 q 576 496 640 553 q 502 407 519 444 q 485 293 485 369 l 364 293 q 363 333 363 307 q 382 456 363 413 q 463 558 401 499 q 522 628 508 603 q 535 689 535 653 q 510 754 535 731 q 439 778 485 778 q 329 654 333 778 l 185 654 q 253 836 188 774 q 439 899 319 899 m 501 90 l 347 90 l 347 232 l 501 232 l 501 90 z "},"ﬀ":{"ha":854,"x_min":17,"x_max":838,"o":"m 800 878 q 724 851 749 878 q 699 763 699 824 l 699 706 l 835 706 l 835 585 l 699 585 l 699 0 l 542 0 l 542 585 l 293 585 l 293 0 l 136 0 l 136 585 l 17 585 l 17 706 l 136 706 l 136 781 q 350 999 136 999 q 433 989 385 999 l 433 872 q 394 878 414 878 q 318 851 343 878 q 293 763 293 824 l 293 706 l 542 706 l 542 781 q 756 999 542 999 q 838 989 792 999 l 838 872 q 800 878 821 878 z "},"ﬁ":{"ha":810,"x_min":17,"x_max":708,"o":"m 136 706 l 136 781 q 350 999 136 999 q 433 989 385 999 l 433 872 q 394 878 414 878 q 318 851 343 878 q 293 763 293 824 l 293 706 l 429 706 l 429 585 l 293 585 l 293 0 l 136 0 l 136 585 l 17 585 l 17 706 l 136 706 m 708 989 l 708 838 l 550 838 l 550 989 l 708 989 m 550 706 l 708 706 l 708 0 l 550 0 l 550 706 z "},"ﬂ":{"ha":810,"x_min":17,"x_max":708,"o":"m 136 706 l 136 781 q 350 999 136 999 q 433 989 385 999 l 433 872 q 394 878 414 878 q 318 851 343 878 q 293 763 293 824 l 293 706 l 429 706 l 429 585 l 293 585 l 293 0 l 136 0 l 136 585 l 17 585 l 17 706 l 136 706 m 708 989 l 708 0 l 550 0 l 550 989 l 708 989 z "},"ﬃ":{"ha":1215,"x_min":17,"x_max":1114,"o":"m 542 706 l 542 781 q 756 999 542 999 q 838 989 792 999 l 838 872 q 800 878 821 878 q 724 851 749 878 q 699 763 699 824 l 699 706 l 835 706 l 835 585 l 699 585 l 699 0 l 542 0 l 542 585 l 293 585 l 293 0 l 136 0 l 136 585 l 17 585 l 17 706 l 136 706 l 136 781 q 350 999 136 999 q 433 989 385 999 l 433 872 q 394 878 414 878 q 318 851 343 878 q 293 763 293 824 l 293 706 l 542 706 m 1114 989 l 1114 838 l 956 838 l 956 989 l 1114 989 m 956 706 l 1114 706 l 1114 0 l 956 0 l 956 706 z "},"ﬄ":{"ha":1215,"x_min":17,"x_max":1114,"o":"m 542 706 l 542 781 q 756 999 542 999 q 838 989 792 999 l 838 872 q 800 878 821 878 q 724 851 749 878 q 699 763 699 824 l 699 706 l 835 706 l 835 585 l 699 585 l 699 0 l 542 0 l 542 585 l 293 585 l 293 0 l 136 0 l 136 585 l 17 585 l 17 706 l 136 706 l 136 781 q 350 999 136 999 q 433 989 385 999 l 433 872 q 394 878 414 878 q 318 851 343 878 q 293 763 293 824 l 293 706 l 542 706 m 1114 989 l 1114 0 l 956 0 l 956 989 l 1114 989 z "},"﻿":{"ha":0,"x_min":0,"x_max":0,"o":""}}}
